<?xml version="1.0" encoding="UTF-8"?>
<svg id="Ebene_1" data-name="Ebene 1" xmlns="http://www.w3.org/2000/svg" xmlns:xlink="http://www.w3.org/1999/xlink" viewBox="0 0 595.28 595.28">
  <defs>
    <style>
      .cls-1 {
        fill: url(#Türkis);
      }
    </style>
    <linearGradient id="Türkis" x1="226.77" y1="308.79" x2="368.51" y2="308.79" gradientUnits="userSpaceOnUse">
      <stop offset=".01" stop-color="#42afcc"/>
      <stop offset=".5" stop-color="#008eb3"/>
      <stop offset=".99" stop-color="#00737d"/>
    </linearGradient>
  </defs>
  <path class="cls-1" d="M236.61,392.79c-1.54,1.05-2.31,2.45-2.31,4.27v4.76c0,.25-.14.38-.39.38h-1.79c-.25,0-.39-.14-.39-.38v-4.76c0-1.05.17-1.96.53-2.77.1-.31,0-.49-.35-.56-1.51-.28-2.73-1.02-3.71-2.2-.95-1.16-1.44-2.52-1.44-4.03v-9.67c0-.24.11-.35.38-.35h1.79c.25,0,.39.11.39.35v9.67c0,1.05.35,1.93,1.08,2.66.74.74,1.61,1.12,2.66,1.12s1.96-.38,2.7-1.12c.7-.74,1.08-1.61,1.08-2.66v-9.67c0-.24.14-.35.38-.35h1.82c.25,0,.39.11.39.35v9.67c0,2.28-.95,4.03-2.84,5.29ZM257.49,393.8c-1.33,1.33-2.91,2-4.8,2s-3.47-.67-4.8-2c-1.33-1.33-2-2.94-2-4.8v-5.22c0-1.89.66-3.47,2-4.8,1.33-1.33,2.94-2,4.8-2s3.47.67,4.8,2c1.33,1.33,2,2.91,2,4.8v5.22c0,1.86-.67,3.47-2,4.8ZM256.93,383.78c0-1.19-.38-2.17-1.22-3.01-.84-.84-1.82-1.23-3.01-1.23s-2.17.39-3.01,1.23c-.81.84-1.23,1.82-1.23,3.01v5.22c0,1.16.42,2.17,1.23,2.98.84.84,1.86,1.26,3.01,1.26s2.17-.42,3.01-1.26c.84-.81,1.22-1.82,1.22-2.98v-5.22ZM277,393.94c-1.23,1.22-2.7,1.86-4.41,1.86s-3.22-.63-4.45-1.86c-1.23-1.23-1.82-2.7-1.82-4.41v-11.7c0-.24.1-.35.38-.35h1.79c.25,0,.38.11.38.35v11.7c0,1.02.35,1.89,1.09,2.63.74.74,1.58,1.08,2.63,1.08s1.89-.35,2.59-1.08c.73-.74,1.12-1.61,1.12-2.63v-11.7c0-.24.1-.35.35-.35h1.82c.24,0,.38.11.38.35v11.7c0,1.71-.63,3.19-1.86,4.41ZM298.25,395.31h-1.79c-.25,0-.39-.14-.39-.38v-11.7c0-1.02-.35-1.89-1.09-2.59-.73-.74-1.61-1.09-2.63-1.09s-1.89.35-2.63,1.09c-.7.7-1.09,1.58-1.09,2.59v11.7c0,.24-.11.38-.38.38h-1.79c-.25,0-.39-.14-.39-.38v-11.7c0-1.71.63-3.19,1.86-4.41,1.23-1.22,2.7-1.82,4.41-1.82s3.19.6,4.41,1.82c1.22,1.23,1.86,2.7,1.86,4.41v11.7c0,.24-.14.38-.38.38ZM308.55,373.73c-.32.35-.74.53-1.23.53-.46,0-.88-.17-1.19-.53-.35-.31-.53-.73-.53-1.19,0-.49.18-.91.53-1.23.31-.35.73-.49,1.19-.49.49,0,.91.14,1.23.49.35.32.53.74.53,1.23,0,.46-.18.88-.53,1.19ZM308.23,395.31h-1.79c-.28,0-.38-.14-.38-.38v-17.09c0-.24.11-.35.38-.35h1.79c.25,0,.39.11.39.35v17.09c0,.24-.14.38-.39.38ZM326.37,393.38c-.17.11-.25.28-.21.42,0,.07.07.14.21.28,1.12,1.16,1.68,2.56,1.68,4.13v4.13c0,.25-.14.38-.39.38h-1.79c-.25,0-.39-.14-.39-.38v-4.13c0-.91-.32-1.68-.95-2.35-.66-.67-1.44-.98-2.42-.98-1.86,0-3.43-.67-4.76-2-1.33-1.33-1.96-2.91-1.96-4.76v-4.41c0-1.86.63-3.43,1.96-4.76,1.33-1.33,2.91-1.96,4.76-1.96s3.43.67,4.76,2.03c1.33,1.33,2,2.91,2,4.69v4.41c0,2.21-.84,3.92-2.52,5.25ZM326.34,383.71c0-1.15-.42-2.14-1.23-2.94-.84-.84-1.82-1.23-2.98-1.23s-2.1.39-2.94,1.23c-.84.81-1.22,1.79-1.22,2.94v4.41c0,1.16.38,2.14,1.22,2.98.81.81,1.79,1.23,2.94,1.23s2.17-.42,2.98-1.23c.81-.84,1.23-1.82,1.23-2.98v-4.41ZM347.04,393.94c-1.23,1.22-2.7,1.86-4.41,1.86s-3.22-.63-4.45-1.86c-1.23-1.23-1.82-2.7-1.82-4.41v-11.7c0-.24.11-.35.39-.35h1.79c.25,0,.38.11.38.35v11.7c0,1.02.35,1.89,1.09,2.63.74.74,1.58,1.08,2.63,1.08s1.89-.35,2.59-1.08c.73-.74,1.12-1.61,1.12-2.63v-11.7c0-.24.1-.35.35-.35h1.82c.25,0,.38.11.38.35v11.7c0,1.71-.63,3.19-1.86,4.41ZM368.16,387.53h-9.53c-.24,0-.38.14-.38.39v1.09c0,1.19.42,2.17,1.22,2.98.84.84,1.82,1.26,2.98,1.26,1.47,0,2.8-.42,3.99-1.26.17-.14.35-.11.49.07l1.05,1.51c.14.17.11.38-.1.52-1.58,1.16-3.4,1.72-5.43,1.72-1.86,0-3.43-.67-4.76-2-1.33-1.33-2-2.91-2-4.8v-5.6c0-1.79.63-3.29,1.89-4.55,1.26-1.22,2.77-1.86,4.52-1.86s3.29.63,4.55,1.89c1.26,1.26,1.86,2.77,1.86,4.52v3.75c0,.24-.11.38-.35.38ZM365.95,383.4c0-1.05-.35-1.96-1.12-2.73-.77-.77-1.68-1.12-2.73-1.12s-1.96.35-2.7,1.12c-.77.77-1.16,1.68-1.16,2.73v1.19c0,.25.14.39.38.39h6.97c.25,0,.35-.14.35-.39v-1.19ZM265.41,262.77c-2.93.17-5.6.08-6.97-1.31-2.68-5.89.9-10.88,6.53-10.45,11.19.85,4.29,14.96,3.48,22.2-.97,8.73,1.94,14.56,4.79,19.15,2.1,3.39,4.53,7.65,10.01,6.53.51-2.25.85-4.66,1.3-6.96-4.54-5.26-8.96-9-9.14-16.98-.19-8.22,4.02-15.84-.87-23.07-4.43-6.54-17.97-5.99-19.59,2.61-1.31,6.95,5.39,13.2,10.45,8.27ZM319.39,274.95c-.1,3.92-1.69,7.7-3.05,10.01-2.55,4.33-8.73,7.2-4.79,13.93,5.52,1.09,7.9-3.12,10.01-6.53,1.98-3.19,4.27-7.56,4.79-12.19,1.11-10.04-6.14-19.27-1.74-26.12,4.48-6.97,17.27-.57,11.32,7.83-1.42,1.05-4,.94-6.53.87,6.14,4.79,11.71-1.53,10.45-8.27-1.93-10.25-15.84-8.15-19.59-2.61-4.72,6.97-.69,15.94-.87,23.07ZM326.35,316.74c-9.92-.92-17.03-14.18-17.85-21.77-.5-4.63.26-7.93,1.03-11.3-.69.83-1.56,1.51-2.55,1.97l-.28,1.01c-.72,2.64-3.13,4.49-5.86,4.49h-6.84c-2.73,0-5.14-1.85-5.86-4.49l-.27-1.01c-1.14-.52-2.1-1.33-2.83-2.32.85,4.09,1.79,7.73,1.25,12.08-1.01,8.14-8.94,20.48-18.28,21.33-10.8.98-16.96,2.47-22.2,7.83-2.14,2.2-4.91,5.89-5.66,10.45-1.74,10.6,6.5,20.23,15.67,16.11,2.49-1.12,5.84-7.52,1.31-10.45,3.37,9.94-9.56,10.03-11.75,2.61-2.7-9.12,6.85-16.11,13.93-16.98,3.87-.47,8.48.64,13.49,0,6.68-.85,10.78-4.99,14.8-6.53-2.38,11.58-18.3,15.8-18.28,30.04,0,5.21,2.64,11.5,6.1,13.93,9.83,6.9,25.3-5.82,13.93-13.06,3.88,4.49,1.67,11.18-4.35,11.75-8.47.81-11.85-8.3-9.14-15.67,2.13-5.8,9.08-7.67,13.49-12.19,4.09-4.18,5.73-8.77,8.27-12.62,1.58,10.17,14.66,15.55,19.59,22.2,4.2,5.67,2.82,15.83-3.48,17.85-8.48,2.72-13.06-6.44-8.27-11.32-8.33,4.72-1.93,15.2,6.53,15.24,8.92.04,13.63-8.32,13.49-16.54-.23-14-16.28-18.1-18.28-30.04h.44c.03.27.07.52.44.44,3.79,2.57,7.91,5.81,14.37,6.53,5.11.57,9.58-.54,13.49,0,5.83.8,10.73,4.97,12.62,9.14,2.67,5.86-.29,14.56-7.4,13.49-4.33-.65-3.66-5.4-3.92-8.27-3.61,2.97-.95,9.24,1.74,10.45,6.54,2.94,14.54-2.72,15.67-8.71,1.5-7.9-2.75-14.88-5.66-17.85-5.4-5.52-11.63-6.82-22.63-7.83ZM243.21,299.77c6.64,10.29-9.7,12.59-12.19,3.92-2.79-9.73,6.32-16.41,15.24-15.24,13.35,1.76,15.74,20.56,29.6,22.2,2.68-2.69,4.69-6.04,6.53-9.58-16.78.9-16.8-17.64-34.83-19.15-6.82-.57-13.73,2.56-16.98,6.09-5.48,5.97-5.29,19.08,2.18,23.07,9.43,5.04,19.9-7.41,10.45-11.32ZM351.16,281.92c-16.6-1.39-23.08,15.16-31.78,18.28-1.79.64-2.12.84-6.53.87,1.29,3.93,3.56,6.88,6.09,9.58,14-1.72,16.26-20.73,30.04-22.2,9.21-.98,17.83,6.29,14.8,15.67-2.82,8.71-19.34,5-12.19-4.35-7.83,4.11-1.43,14.3,8.27,12.19,4-.87,7.76-6.25,8.27-9.14,2.35-13.22-6.98-20.05-16.98-20.89ZM297.28,214.86c-13.13.1-23.57,10.72-23.43,23.85.06,6.25,2.56,11.92,6.58,16.1,3.12,3.21,5.14,7.39,5.83,11.79,0,0,0,.02,0,.02.29,1.88,1.94,3.25,3.84,3.25h14.64c1.93,0,3.57-1.4,3.86-3.29.03-.2.08-.4.11-.59.75-4.17,2.71-8.07,5.68-11.15,4.1-4.24,6.62-10.01,6.62-16.38,0-13.09-10.64-23.69-23.75-23.59ZM305.66,273.45h-16.46c-1.5,0-2.7,1.2-2.7,2.7v2.8c0,2.25,1.64,4.08,3.78,4.42l.67,2.54c.37,1.38,1.62,2.35,3.05,2.35h6.84c1.44,0,2.68-.97,3.05-2.35l.69-2.54c2.13-.32,3.77-2.17,3.77-4.4v-2.8c0-1.5-1.2-2.7-2.7-2.72Z"/>
</svg>