<?xml version="1.0" encoding="UTF-8"?>
<svg id="Ebene_1" data-name="Ebene 1" xmlns="http://www.w3.org/2000/svg" xmlns:xlink="http://www.w3.org/1999/xlink" viewBox="0 0 595.28 595.28">
  <defs>
    <style>
      .cls-1 {
        fill: #fdfdfe;
      }

      .cls-2 {
        fill: #264753;
      }

      .cls-3 {
        fill: #bec4ca;
      }

      .cls-4 {
        fill: #86939c;
      }

      .cls-5 {
        fill: #556c77;
      }

      .cls-6 {
        fill: #fff;
      }

      .cls-7 {
        fill: #c0c5cb;
      }

      .cls-8 {
        fill: #2a4955;
      }

      .cls-9 {
        fill: #294854;
      }

      .cls-10 {
        fill: #87949d;
      }

      .cls-11 {
        fill: #294955;
      }

      .cls-12 {
        fill: url(#Türkis);
      }

      .cls-13 {
        fill: #264652;
      }

      .cls-14 {
        fill: #536a75;
      }

      .cls-15 {
        fill: #284854;
      }

      .cls-16 {
        fill: #274753;
      }
    </style>
    <linearGradient id="Türkis" x1="63.81" y1="237.38" x2="537.06" y2="237.38" gradientUnits="userSpaceOnUse">
      <stop offset=".01" stop-color="#42afcc"/>
      <stop offset=".5" stop-color="#008eb3"/>
      <stop offset=".99" stop-color="#00737d"/>
    </linearGradient>
  </defs>
  <path class="cls-12" d="M96.66,257.44c-5.15,3.51-7.72,8.18-7.72,14.26v15.91c0,.82-.47,1.28-1.29,1.28h-5.96c-.82,0-1.29-.47-1.29-1.28v-15.91c0-3.5.58-6.54,1.75-9.23.35-1.05,0-1.64-1.17-1.87-5.03-.93-9.12-3.39-12.39-7.36-3.16-3.86-4.79-8.42-4.79-13.45v-32.28c0-.82.35-1.17,1.28-1.17h5.96c.82,0,1.29.35,1.29,1.17v32.28c0,3.51,1.17,6.43,3.62,8.89,2.46,2.46,5.38,3.74,8.89,3.74s6.55-1.28,9.01-3.74c2.34-2.46,3.62-5.38,3.62-8.89v-32.28c0-.82.47-1.17,1.28-1.17h6.08c.82,0,1.29.35,1.29,1.17v32.28c0,7.6-3.16,13.45-9.47,17.65ZM166.36,260.83c-4.44,4.44-9.7,6.67-16.02,6.67s-11.58-2.22-16.02-6.67c-4.44-4.44-6.66-9.82-6.66-16.02v-17.43c0-6.31,2.22-11.58,6.66-16.02,4.44-4.44,9.82-6.67,16.02-6.67s11.58,2.22,16.02,6.67c4.44,4.44,6.67,9.71,6.67,16.02v17.43c0,6.2-2.22,11.58-6.67,16.02ZM164.49,227.39c0-3.97-1.28-7.25-4.09-10.06-2.81-2.8-6.08-4.1-10.06-4.1s-7.25,1.29-10.06,4.1c-2.69,2.81-4.1,6.08-4.1,10.06v17.43c0,3.86,1.41,7.25,4.1,9.94,2.8,2.8,6.2,4.21,10.06,4.21s7.25-1.4,10.06-4.21c2.8-2.69,4.09-6.08,4.09-9.94v-17.43ZM231.5,261.3c-4.1,4.09-9,6.2-14.74,6.2s-10.76-2.11-14.85-6.2c-4.1-4.1-6.08-9.01-6.08-14.73v-39.07c0-.82.35-1.17,1.28-1.17h5.97c.82,0,1.28.35,1.28,1.17v39.07c0,3.39,1.17,6.31,3.63,8.77,2.46,2.46,5.26,3.62,8.77,3.62s6.32-1.17,8.66-3.62c2.45-2.46,3.74-5.38,3.74-8.77v-39.07c0-.82.35-1.17,1.17-1.17h6.08c.82,0,1.28.35,1.28,1.17v39.07c0,5.73-2.1,10.64-6.2,14.73ZM302.48,265.86h-5.96c-.82,0-1.29-.47-1.29-1.28v-39.06c0-3.39-1.17-6.31-3.63-8.65-2.45-2.46-5.38-3.63-8.77-3.63s-6.31,1.17-8.77,3.63c-2.34,2.34-3.63,5.26-3.63,8.65v39.06c0,.82-.35,1.28-1.28,1.28h-5.96c-.82,0-1.29-.47-1.29-1.28v-39.06c0-5.73,2.11-10.64,6.2-14.74,4.09-4.09,9-6.08,14.73-6.08s10.64,1.99,14.74,6.08c4.09,4.1,6.2,9.01,6.2,14.74v39.06c0,.82-.47,1.28-1.28,1.28ZM336.87,193.82c-1.05,1.17-2.46,1.76-4.09,1.76-1.52,0-2.92-.58-3.97-1.76-1.17-1.05-1.75-2.45-1.75-3.97,0-1.64.59-3.04,1.75-4.1,1.05-1.17,2.45-1.64,3.97-1.64,1.64,0,3.04.47,4.09,1.64,1.17,1.06,1.75,2.46,1.75,4.1,0,1.52-.59,2.92-1.75,3.97ZM335.81,265.86h-5.96c-.93,0-1.28-.47-1.28-1.28v-57.07c0-.82.35-1.17,1.28-1.17h5.96c.82,0,1.29.35,1.29,1.17v57.07c0,.82-.47,1.28-1.29,1.28ZM396.39,259.43c-.58.35-.82.93-.7,1.4,0,.23.23.47.7.93,3.74,3.86,5.62,8.54,5.62,13.8v13.8c0,.82-.47,1.28-1.29,1.28h-5.96c-.82,0-1.29-.47-1.29-1.28v-13.8c0-3.04-1.05-5.61-3.16-7.83-2.22-2.22-4.79-3.27-8.07-3.27-6.2,0-11.46-2.22-15.9-6.67-4.44-4.44-6.55-9.7-6.55-15.9v-14.74c0-6.2,2.1-11.46,6.55-15.9,4.44-4.44,9.7-6.55,15.9-6.55s11.46,2.22,15.91,6.79c4.44,4.44,6.67,9.71,6.67,15.67v14.74c0,7.37-2.81,13.1-8.42,17.54ZM396.27,227.15c0-3.85-1.4-7.13-4.09-9.82-2.8-2.8-6.08-4.1-9.94-4.1s-7.02,1.29-9.82,4.1c-2.8,2.69-4.09,5.97-4.09,9.82v14.74c0,3.86,1.28,7.13,4.09,9.94,2.69,2.69,5.96,4.09,9.82,4.09s7.25-1.4,9.94-4.09c2.69-2.81,4.09-6.08,4.09-9.94v-14.74ZM465.38,261.3c-4.1,4.09-9.01,6.2-14.74,6.2s-10.76-2.11-14.85-6.2c-4.09-4.1-6.08-9.01-6.08-14.73v-39.07c0-.82.35-1.17,1.29-1.17h5.96c.82,0,1.28.35,1.28,1.17v39.07c0,3.39,1.17,6.31,3.63,8.77,2.46,2.46,5.26,3.62,8.77,3.62s6.32-1.17,8.66-3.62c2.45-2.46,3.74-5.38,3.74-8.77v-39.07c0-.82.35-1.17,1.17-1.17h6.08c.82,0,1.28.35,1.28,1.17v39.07c0,5.73-2.1,10.64-6.2,14.73ZM535.9,239.9h-31.81c-.82,0-1.28.47-1.28,1.29v3.63c0,3.97,1.4,7.25,4.09,9.94,2.81,2.8,6.08,4.21,9.94,4.21,4.91,0,9.35-1.4,13.33-4.21.58-.47,1.17-.35,1.64.24l3.51,5.03c.47.58.35,1.28-.35,1.75-5.26,3.86-11.34,5.73-18.13,5.73-6.2,0-11.46-2.22-15.9-6.67-4.44-4.44-6.67-9.7-6.67-16.02v-18.71c0-5.96,2.11-10.99,6.31-15.21,4.21-4.09,9.24-6.2,15.08-6.2s10.99,2.11,15.2,6.32c4.21,4.21,6.2,9.24,6.2,15.09v12.52c0,.82-.35,1.28-1.17,1.28ZM528.53,226.1c0-3.51-1.17-6.55-3.74-9.12-2.58-2.58-5.62-3.75-9.12-3.75s-6.55,1.17-9,3.75c-2.58,2.57-3.86,5.61-3.86,9.12v3.97c0,.82.47,1.29,1.28,1.29h23.27c.82,0,1.17-.47,1.17-1.29v-3.97Z"/>
  <g>
    <path class="cls-6" d="M45.41,399.27v-96.96h509.76c0,32.31,0,64.64,0,96.96H45.41ZM347.73,344.9c0,.06.01.12.02.18.06-.05.12-.1.18-.16,1.11-.02,2.22-.03,3.33-.05.06-.07.13-.14.19-.21v-24.89c-.06-.07-.13-.14-.19-.21-1.12,0-2.23,0-3.35,0-.06.07-.13.14-.19.21,0,8.38,0,16.75,0,25.13ZM78.75,319.56c-1.12,0-2.23,0-3.35,0-.06.07-.13.14-.19.21-.01,5.58-.01,11.16-.04,16.74,0,.74-.04,1.49-.2,2.21-.51,2.36-2.58,4-5.31,3.3-1.39-.35-2.64-1.22-4.21-1.99-.57.51-1.41,1.25-2.29,2.04.32.42.59.9.98,1.26,2.43,2.24,5.43,2.67,8.52,2.25,2.38-.33,4.46-1.49,5.36-3.91.5-1.33.89-2.79.91-4.2.09-5.9.02-11.8.01-17.7-.06-.07-.13-.14-.19-.21ZM240.39,344.66c.01-3.39,0-6.78.06-10.17.01-.59.22-1.25.53-1.75,2.17-3.53,4.4-7.02,6.6-10.54.53-.84,1.02-1.71,1.6-2.68-1.01,0-1.82.07-2.61-.02-1.14-.12-1.72.34-2.3,1.34-1.8,3.14-3.76,6.19-5.72,9.36-.14-.2-.22-.32-.3-.44-1.97-3.2-3.93-6.4-5.92-9.58-.18-.28-.54-.62-.84-.63-1.21-.07-2.43-.03-3.78-.03,2.31,3.73,4.4,7.4,6.79,10.87,1.57,2.27,2.36,4.56,2.14,7.32-.19,2.36-.04,4.76-.04,7.16,1.29,0,2.44,0,3.6,0,.06-.07.13-.14.19-.21ZM364.26,362.38c.07.06.14.13.21.19h9.07v22.33c.87,0,1.63-.06,2.37.01,1.09.11,1.34-.36,1.34-1.38-.04-6.54-.02-13.09-.02-19.63v-1.33c3.06,0,5.94,0,8.81,0,.07-.06.14-.12.21-.19v-3.04h-21.99v3.04ZM189.58,359.32h-15.82v25.44h16.87v-3.4h-13.16v-8.06h9.16v-3.45h-9.16v-7.25h12.3v-3.08c-.06-.07-.13-.14-.19-.21ZM245.94,381.05c4.36-5.28,8.68-10.59,13.11-15.81,1.5-1.77,2.63-3.5,1.86-5.89h-19.47v3.04c.07.06.14.13.21.19h14.83c-.72.83-1.23,1.41-1.73,2.01-1.42,1.71-2.82,3.43-4.25,5.13-1.38,1.65-2.78,3.29-4.16,4.94-1.4,1.68-2.67,3.47-4.19,5.02-1.48,1.51-1.59,3.18-1.24,5.14,1.05,0,2.04,0,3.04,0,5.43,0,10.87-.03,16.3.02,1.01,0,1.35-.29,1.25-1.28-.07-.66-.01-1.33-.01-2.09h-15.48c-.02-.14-.03-.28-.05-.42ZM471.94,319.56c-.06.07-.13.14-.19.21-.01,1.79,0,3.59-.04,5.38-.07,3.85.02,7.71-.31,11.54-.43,5.11-4.35,6.06-8.54,5.07-2.72-.64-3.83-2.9-3.87-5.57-.08-5.1-.07-10.21-.09-15.31,0-.43,0-.85,0-1.3h-3.69c-.03.17-.07.28-.07.39,0,5.7-.08,11.41.04,17.11.05,2.27.99,4.43,2.64,5.96,3.17,2.96,7.1,3.28,11.05,2.12,4.77-1.4,6.35-5.04,6.57-9.49.26-5.29.04-10.6.03-15.91-.06-.07-.13-.14-.19-.21-1.12,0-2.23,0-3.35,0ZM91.42,319.77c-.06-.07-.13-.14-.19-.21-1.12,0-2.23,0-3.35,0-.06.07-.13.14-.19.21,0,5.62-.07,11.25.07,16.87.04,1.48.54,3.06,1.22,4.39,1.27,2.51,3.43,4.04,6.27,4.43,3.11.43,6.12.3,8.84-1.54,2.92-1.98,3.81-4.98,3.9-8.22.13-4.86.03-9.73.03-14.6v-1.51h-3.76v1.24c0,4.51.08,9.02-.04,13.52-.04,1.61-.24,3.36-.93,4.77-1.07,2.2-3.14,2.88-5.64,2.97-3.84.13-6.15-2.64-6.18-6.17-.04-5.38-.04-10.77-.06-16.15ZM418.2,319.56h-3.52v25.31c1.22,0,2.37,0,3.52,0,.06-.07.13-.14.19-.21v-11.11h13.82v11.31c0,.07,0,.14,0,.21.05-.05.1-.11.15-.16h3.52v-25.32h-3.72v10.41h-13.78v-10.24c-.06-.07-.13-.14-.19-.21ZM341.44,359.32c-.06.07-.13.14-.19.21v25.2h3.72v-10.35c1.35,0,2.62.04,3.89-.02.74-.03,1.14.22,1.47.88,1.49,2.96,3.03,5.9,4.58,8.83.18.34.55.79.85.81,1.2.09,2.42.04,3.91.04-2.08-3.8-4.02-7.35-5.99-10.93,2.45-1.11,4.12-2.86,4.45-5.63.33-2.74-.07-5.21-2.38-7.12-1.82-1.51-4-1.78-6.17-1.89-2.71-.15-5.43-.01-8.15,0ZM419.4,371.79c-.07.06-.14.13-.21.19-.01.64.02,1.28-.05,1.91-.11.96.28,1.26,1.23,1.22,1.42-.07,2.84-.02,4.3-.02,0,1.51.05,2.87-.03,4.21-.03.4-.34.97-.69,1.13-1.25.58-2.53,1.25-3.86,1.48-3.31.56-6.28-.29-8.49-2.94-3.07-3.69-3.28-7.81-1.31-12.01,2.12-4.51,6.15-5.52,10.26-4.53,1.99.48,3.58,1.75,4.7,3.61.95-.8,1.85-1.55,2.89-2.43-1.05-1-1.94-2.03-3.02-2.83-2.4-1.78-5.2-2.08-8.1-1.99-5.79.19-9.74,3.9-11.28,9.12-.93,3.12-.75,6.29.3,9.38,1.22,3.59,3.68,5.98,7.21,7.34,2.9,1.12,5.88.96,8.82.42,2.1-.38,4.09-1.2,5.71-2.68.26-.23.52-.63.52-.95.02-3.15-.02-6.3-.04-9.45-.08-.06-.16-.12-.24-.18-2.88,0-5.75,0-8.63,0ZM160.36,332.22v3.16h5.24c0,1.5.04,2.89-.02,4.28-.02.38-.21.93-.5,1.1-3.76,2.12-8.52,2.31-11.98-1.01-3.62-3.48-4.08-9.22-1.21-13.61,2.34-3.59,5.79-4.4,9.85-3.39,2.01.5,3.3,2.02,4.63,3.46.91-.79,1.77-1.53,2.62-2.27-1.55-2.31-3.59-3.89-6.16-4.48-1.75-.4-3.62-.43-5.43-.38-3.58.11-6.44,1.88-8.49,4.67-2.76,3.77-3.42,8.06-2.23,12.59,1.03,3.9,3.37,6.68,7.13,8.33,2.18.95,4.41.99,6.69.95,2.87-.06,5.43-1.01,7.8-2.58.76-.51,1.14-1.12,1.1-2.14-.1-2.55-.03-5.11-.03-7.66,0-.38,0-.77,0-1.19-3.04,0-5.92,0-8.79,0-.07.06-.14.13-.21.19ZM228.98,359.52c-.01,6.31-.03,12.61-.04,18.92-.09.02-.18.03-.26.05-.21-.19-.46-.34-.61-.56-3.89-5.61-7.75-11.24-11.66-16.84-.48-.68-1.07-1.52-1.78-1.74-.97-.3-2.1-.07-3.13-.07v25.62c.75,0,1.43-.06,2.1.01,1.13.12,1.52-.25,1.51-1.45-.06-5.82-.01-11.64,0-17.47.06-.19.12-.38.18-.57,2.25,3.2,4.52,6.39,6.76,9.6,2.18,3.12,4.34,6.24,6.52,9.36.12.17.33.41.5.41,1.18.04,2.36.02,3.55.02v-25.5c-1.2,0-2.31,0-3.43,0-.06.07-.13.14-.19.21ZM117.15,345.11h3.44v-19.56l.06.04.05-.04c.22.31.43.63.65.94,3.63,5.13,7.42,10.16,10.82,15.45,1.51,2.34,3.08,3.55,5.84,2.95.06-.07.13-.14.19-.21v-24.89c-.06-.07-.13-.14-.19-.21h-3.59v19.33c-.41-.45-.65-.66-.83-.91-3.65-5.19-7.31-10.38-10.93-15.6-2.05-2.97-2.01-3-5.52-2.81-.06.07-.13.14-.19.21v25.13c.06.07.13.14.19.21ZM273.79,319.56c-.06.07-.13.14-.19.21-.01.64-.03,1.28-.03,1.91-.01,5.67-.02,11.33-.04,17-.08.02-.16.03-.24.05-.06-.05-.14-.08-.19-.14-4.32-6.15-8.63-12.29-12.96-18.43-.18-.26-.48-.59-.74-.6-1.1-.07-2.21-.03-3.32-.03v25.31h3.58v-19.42c2.07,2.91,4.03,5.63,5.95,8.37,2.47,3.54,4.91,7.11,7.37,10.65.15.21.44.45.68.46,1.18.05,2.36.02,3.54.02v-25.37c-1.2,0-2.32,0-3.43,0ZM502.17,319.56c-.06.07-.13.14-.19.21v18.9c-.11.01-.22.03-.33.04-.11-.14-.23-.28-.33-.43-4.2-5.99-8.4-11.98-12.61-17.96-.23-.32-.59-.74-.92-.77-1.1-.1-2.21-.04-3.31-.04v25.56h3.61v-19.3c.08-.03.15-.07.23-.1,1.18,1.71,2.37,3.42,3.55,5.13,3.16,4.54,6.32,9.08,9.5,13.61.16.22.47.46.72.47,1.18.05,2.35.02,3.51.02v-25.35c-1.2,0-2.32,0-3.43,0ZM318.33,326.3c.09,0,.19-.02.28-.03,2.01,3.36,4.02,6.71,6.01,10.08.98,1.64,2.39,1.66,3.34.03.72-1.23,1.44-2.45,2.17-3.67,1.29-2.16,2.58-4.31,4.02-6.72.15.7.29,1.09.31,1.49.1,1.82.18,3.64.25,5.45.09,2.7.15,5.39.25,8.09.05,1.33.16,2.67.24,3.85h3.7c-.2-3.28-.42-6.4-.57-9.52-.12-2.46-.14-4.92-.26-7.38-.13-2.79-.32-5.58-.48-8.45-.74,0-1.37.05-2-.01-1.05-.1-1.8.13-2.24,1.23-.38.92-.99,1.76-1.5,2.63-1.78,3.04-3.57,6.09-5.38,9.18-.12-.14-.22-.22-.28-.33-2.31-3.95-4.6-7.91-6.93-11.85-.2-.34-.55-.78-.87-.81-1.09-.1-2.2-.04-3.24-.04-.2,3.26-.44,6.37-.58,9.48-.2,4.35-.32,8.71-.5,13.06-.03.7-.14,1.4-.22,2.09-.07.61.08,1.01.81.99.91-.02,1.81,0,2.78,0,.3-6.37.59-12.61.88-18.85ZM514.78,344.97c3.02,0,5.96-.02,8.91,0,2.35.03,4.62-.33,6.76-1.31,3.03-1.39,5.27-3.61,5.97-6.92.44-2.06.55-4.23.48-6.34-.12-3.92-1.95-6.93-5.35-9-2.16-1.31-4.58-1.66-6.97-1.82-3.25-.22-6.52-.05-9.8-.05v25.43ZM201.64,344.96c2.92,0,5.79-.02,8.66,0,2.14.02,4.23-.2,6.23-1.02,1.86-.76,3.52-1.76,4.76-3.43,2.79-3.79,3.17-8,2.08-12.36-.74-2.97-2.35-5.4-5.33-6.8-1.95-.91-3.87-1.62-6.04-1.6-3.44.02-6.89,0-10.35,0v25.21ZM304.18,363.43c-1.22-1.02-2.29-2.12-3.55-2.93-2.24-1.44-4.76-1.85-7.41-1.72-3.95.2-7.02,1.96-9.36,5.06-2.51,3.32-2.9,7.14-2.38,11.1.63,4.75,4.72,9.18,9.52,10.15,3.64.73,7.27.44,10.67-1.19,1.83-.88,3.16-2.04,2.85-4.48-.27-2.16-.05-4.38-.06-6.57,0-.34-.04-.69-.07-1.03h-8.93v3.25h5.43v2.39c0,3.08-.21,3.37-3.15,4.23-.37.11-.76.15-1.15.2-4.25.54-7.01-.07-9.57-3.76-2.6-3.75-2.41-7.81-.31-11.82,2.64-5.05,9.92-5.54,13.67-1.68,1.13,1.16,1.71,1.13,2.78-.09.27-.31.55-.61,1.01-1.12ZM334.51,384.86c-.06-.32-.08-.6-.18-.85-1.33-3.42-2.67-6.84-4.01-10.25-1.69-4.32-3.43-8.62-5.04-12.96-.44-1.19-1.01-1.71-2.28-1.53-.78.11-1.58.02-2.22.02-3.35,8.54-6.65,16.96-10.06,25.63.91,0,1.69-.08,2.45.02,1.29.17,1.82-.41,2.17-1.59.51-1.71,1.21-3.37,1.87-5.03.1-.26.47-.57.71-.58,3.27-.04,6.54-.03,9.81-.03.92,2.45,1.8,4.82,2.68,7.16h4.09ZM297.66,319.52c-.97,0-1.86.09-2.72-.02-1.03-.14-1.41.47-1.7,1.23-1.57,4.08-3.12,8.17-4.7,12.25-1.54,3.95-3.11,7.89-4.69,11.9h3.98c.89-2.33,1.76-4.62,2.62-6.89h10.35c.77,2.14,1.52,4.24,2.3,6.34.09.24.39.55.61.56,1.21.05,2.42.03,3.78.03-3.33-8.58-6.57-16.95-9.84-25.38ZM376.74,322.27c-.65-.6-1.23-1.29-1.95-1.76-3.12-2.01-6.53-1.84-9.92-1.01-3.72.91-5.52,5.03-4.39,8.5.99,3.05,3.52,4.42,6.5,5.19,1.66.43,3.32.95,4.87,1.67,2.27,1.05,2.59,4.27.85,5.8-1.93,1.7-4.21,2.14-6.5,1.21-1.71-.69-3.18-1.95-5.01-3.11-.59.66-1.37,1.54-2.35,2.65,1.18.9,2.34,1.91,3.63,2.72,2.16,1.36,4.61,1.58,7.12,1.51,4.64-.14,7.75-3.34,7.9-7.92.12-3.37-2.06-5.79-4.76-6.7-1.99-.67-4.01-1.24-6-1.93-1.73-.59-2.78-1.99-2.72-3.45.06-1.36,1.28-2.82,2.75-3.21,1.97-.52,3.83-.17,5.6.77.76.41,1.6,1.34,2.2,1.2.8-.19,1.41-1.2,2.1-1.86.02-.02.03-.07.1-.27ZM407.27,340.63c-.93-.76-1.64-1.26-2.27-1.86-.54-.51-.87-.31-1.28.14-.52.57-1.03,1.16-1.64,1.61-3.7,2.67-9.23,1.93-11.87-1.84-2.64-3.76-2.7-8.82-.17-12.72,2.31-3.57,7.35-4.66,10.93-2.66,1.29.72,2.37,1.79,3.64,2.77.72-.6,1.6-1.34,2.63-2.21-.95-.91-1.81-1.85-2.79-2.62-2.42-1.91-5.26-2.3-8.25-2.2-4.19.13-7.36,1.94-9.66,5.42-1.87,2.82-2.36,5.91-2.18,9.21.23,4.21,1.95,7.71,5.47,9.95,4.57,2.9,9.41,2.84,14.05-.01,1.24-.76,2.23-1.93,3.39-2.96ZM397.17,384.77v-25.43h-3.61v25.43h3.61ZM273.23,384.77v-25.41h-3.59v25.41h3.59ZM202.23,384.77v-25.41h-3.59v25.41h3.59ZM179.33,345.15c-.63,1.47-1.21,2.83-1.92,4.5,1.04-.21,2.15-.11,2.45-.55,1.67-2.43,3.37-4.93,2.34-8.2h-4.37c0,.96.06,1.87-.01,2.77-.08,1.05.15,1.72,1.51,1.49Z"/>
    <path class="cls-9" d="M318.33,326.3c-.29,6.24-.58,12.48-.88,18.85-.97,0-1.87-.02-2.78,0-.73.02-.88-.38-.81-.99.08-.7.19-1.39.22-2.09.17-4.35.3-8.71.5-13.06.14-3.11.38-6.22.58-9.48,1.04,0,2.15-.06,3.24.04.31.03.67.47.87.81,2.32,3.94,4.62,7.9,6.93,11.85.06.1.15.18.28.33,1.81-3.09,3.6-6.14,5.38-9.18.51-.87,1.12-1.7,1.5-2.63.44-1.09,1.19-1.33,2.24-1.23.63.06,1.26.01,2,.01.17,2.87.35,5.66.48,8.45.11,2.46.13,4.92.26,7.38.16,3.12.37,6.24.57,9.52h-3.7c-.08-1.18-.19-2.52-.24-3.85-.1-2.69-.16-5.39-.25-8.09-.06-1.82-.14-3.64-.25-5.45-.02-.4-.16-.79-.31-1.49-1.44,2.41-2.73,4.56-4.02,6.72-.73,1.22-1.46,2.44-2.17,3.67-.95,1.63-2.36,1.61-3.34-.03-2-3.36-4.01-6.72-6.01-10.08-.09,0-.19.02-.28.03Z"/>
    <path class="cls-15" d="M488.09,325.78v19.3h-3.61v-25.56c1.11,0,2.22-.06,3.31.04.33.03.69.44.92.77,4.21,5.98,8.41,11.97,12.61,17.96.1.15.22.29.33.43.11-.01.22-.03.33-.04v-18.9c.06-.07.13-.14.19-.21,1.12,0,2.23,0,3.43,0v25.35c-1.16,0-2.34.03-3.51-.02-.25-.01-.56-.25-.72-.47-3.18-4.53-6.34-9.07-9.5-13.61-1.19-1.71-2.37-3.42-3.55-5.13-.06-.07-.12-.15-.17-.22-.02.11-.04.21-.06.32ZM501.83,339s0,.07.02.08c.03.02.07.02.1.02,0-.05-.02-.1-.03-.15-.03.01-.06.03-.1.04Z"/>
    <path class="cls-15" d="M273.54,338.68c.01-5.67.02-11.33.04-17,0-.64.02-1.28.03-1.91.06-.07.13-.14.19-.21h3.43v25.37c-1.18,0-2.36.03-3.54-.02-.24,0-.53-.25-.68-.46-2.47-3.54-4.9-7.11-7.37-10.65-1.92-2.75-3.88-5.47-5.95-8.37v19.42h-3.58v-25.31c1.11,0,2.21-.04,3.32.03.26.02.56.35.74.6,4.33,6.14,8.64,12.29,12.96,18.43.04.06.12.09.19.14.1.12.2.24.29.36-.02-.14-.04-.27-.06-.41Z"/>
    <path class="cls-2" d="M116.96,344.9v-25.13c.06-.07.13-.14.19-.21,3.5-.18,3.47-.15,5.52,2.81,3.61,5.22,7.28,10.4,10.93,15.6.18.25.42.47.83.91v-19.33h3.59c.06.07.13.14.19.21v24.89c-.06.07-.13.14-.19.21-2.75.6-4.33-.6-5.84-2.95-3.4-5.28-7.19-10.31-10.82-15.45-.22-.31-.44-.63-.65-.94-.03-.07-.05-.13-.08-.2-.01.07-.02.14-.03.2v19.56h-3.44c-.06-.07-.13-.14-.19-.21ZM134.58,339.02l-.07-.05v.08s.07-.04.07-.04Z"/>
    <path class="cls-13" d="M215.09,366c0,5.82-.05,11.64,0,17.47.01,1.2-.38,1.57-1.51,1.45-.67-.07-1.35-.01-2.1-.01v-25.62c1.03,0,2.16-.22,3.13.07.71.22,1.31,1.05,1.78,1.74,3.91,5.6,7.77,11.22,11.66,16.84.15.22.4.38.61.56.1.12.19.24.29.36,0-.14-.02-.27-.02-.41.01-6.31.03-12.61.04-18.92.06-.07.13-.14.19-.21,1.12,0,2.23,0,3.43,0v25.5c-1.19,0-2.37.02-3.55-.02-.17,0-.38-.24-.5-.41-2.18-3.12-4.34-6.25-6.52-9.36-2.24-3.21-4.51-6.4-6.76-9.6-.03-.06-.06-.13-.08-.19-.03.26-.06.51-.09.77Z"/>
    <path class="cls-16" d="M514.78,344.97v-25.43c3.28,0,6.55-.16,9.8.05,2.39.16,4.81.51,6.97,1.82,3.4,2.07,5.23,5.07,5.35,9,.07,2.11-.05,4.28-.48,6.34-.7,3.31-2.94,5.53-5.97,6.92-2.13.98-4.41,1.34-6.76,1.31-2.95-.03-5.9,0-8.91,0ZM518.51,341.91c2.34-.13,4.58-.12,6.77-.4,3.66-.48,6.57-2.12,7.48-6,.34-1.44.46-2.99.34-4.46-.27-3.39-1.63-6.22-5.41-7.47-2.99-.99-6.08-.67-9.17-.68v19.02Z"/>
    <path class="cls-13" d="M201.64,344.96v-25.21c3.46,0,6.91.02,10.35,0,2.17-.01,4.09.69,6.04,1.6,2.98,1.4,4.59,3.83,5.33,6.8,1.09,4.36.71,8.58-2.08,12.36-1.24,1.68-2.9,2.67-4.76,3.43-2,.82-4.09,1.03-6.23,1.02-2.87-.02-5.74,0-8.66,0ZM205.38,342c2.78-.25,5.42-.35,8.02-.75,1.91-.3,3.56-1.24,4.76-2.9,1.84-2.55,2.08-5.42,1.58-8.33-.42-2.46-1.55-4.58-3.98-5.83-3.33-1.72-6.87-1.21-10.38-1.31v19.12Z"/>
    <path class="cls-9" d="M160.57,332.03h8.79c0,.42,0,.8,0,1.19,0,2.55-.07,5.11.03,7.66.04,1.02-.33,1.64-1.1,2.14-2.36,1.57-4.92,2.53-7.8,2.58-2.29.04-4.52,0-6.69-.95-3.76-1.64-6.1-4.43-7.13-8.33-1.19-4.52-.53-8.81,2.23-12.59,2.05-2.8,4.9-4.56,8.49-4.67,1.81-.06,3.68-.03,5.43.38,2.58.59,4.61,2.18,6.16,4.48-.85.74-1.72,1.49-2.62,2.27-1.33-1.45-2.62-2.97-4.63-3.46-4.06-1.01-7.51-.2-9.85,3.39-2.86,4.39-2.4,10.14,1.21,13.61,3.45,3.32,8.21,3.13,11.98,1.01.29-.16.48-.72.5-1.1.06-1.39.02-2.78.02-4.28h-5.24v-3.16c.07-.06.14-.13.21-.19Z"/>
    <path class="cls-9" d="M428.27,371.97c.02,3.15.06,6.3.04,9.45,0,.32-.26.71-.52.95-1.62,1.48-3.61,2.3-5.71,2.68-2.95.54-5.92.69-8.82-.42-3.53-1.36-5.99-3.75-7.21-7.34-1.05-3.09-1.22-6.26-.3-9.38,1.55-5.21,5.5-8.93,11.28-9.12,2.9-.09,5.7.21,8.1,1.99,1.07.8,1.97,1.83,3.02,2.83-1.04.88-1.94,1.63-2.89,2.43-1.12-1.86-2.71-3.13-4.7-3.61-4.11-.99-8.15.01-10.26,4.53-1.97,4.2-1.76,8.32,1.31,12.01,2.21,2.65,5.18,3.5,8.49,2.94,1.34-.23,2.61-.89,3.86-1.48.34-.16.66-.73.69-1.13.08-1.35.03-2.7.03-4.21-1.46,0-2.88-.05-4.3.02-.95.05-1.34-.25-1.23-1.22.07-.63.04-1.27.05-1.91.07-.06.14-.13.21-.19h8.63c.08.06.16.12.24.18Z"/>
    <path class="cls-13" d="M304.18,363.43c-.46.51-.74.81-1.01,1.12-1.07,1.22-1.65,1.26-2.78.09-3.76-3.86-11.03-3.37-13.67,1.68-2.1,4.01-2.3,8.07.31,11.82,2.56,3.69,5.32,4.29,9.57,3.76.39-.05.78-.1,1.15-.2,2.94-.86,3.15-1.15,3.15-4.23v-2.39h-5.43v-3.25h8.93c.02.35.06.69.07,1.03,0,2.19-.21,4.41.06,6.57.31,2.44-1.02,3.6-2.85,4.48-3.4,1.63-7.03,1.92-10.67,1.19-4.8-.97-8.89-5.4-9.52-10.15-.52-3.96-.13-7.78,2.38-11.1,2.34-3.1,5.41-4.87,9.36-5.06,2.65-.13,5.18.28,7.41,1.72,1.26.81,2.33,1.91,3.55,2.93Z"/>
    <path class="cls-15" d="M341.44,359.32c2.72-.01,5.44-.15,8.15,0,2.17.12,4.35.38,6.17,1.89,2.31,1.91,2.71,4.38,2.38,7.12-.33,2.77-2,4.53-4.45,5.63,1.96,3.59,3.91,7.13,5.99,10.93-1.49,0-2.7.06-3.91-.04-.31-.02-.68-.47-.85-.81-1.55-2.93-3.08-5.87-4.58-8.83-.33-.66-.74-.91-1.47-.88-1.27.06-2.54.02-3.89.02v10.35h-3.72v-25.2c.06-.07.13-.14.19-.21ZM344.99,371.19c1.58,0,3.05,0,4.52,0,3.54,0,4.96-1.44,4.88-4.91-.04-1.61-1.08-3.16-2.65-3.37-2.22-.29-4.48-.28-6.75-.39v8.67Z"/>
    <path class="cls-13" d="M418.19,344.87h-3.52v-25.31c1.16,0,2.34,0,3.52,0,.06.07.13.14.19.21v10.24h13.78v-10.41h3.72v25.32h-3.52c-.03-.07-.08-.09-.15-.05v-11.31h-13.82v11.11c-.06.07-.13.14-.19.21Z"/>
    <path class="cls-16" d="M87.88,319.56c1.12,0,2.23,0,3.35,0,.06.07.13.14.19.21.02,5.38.02,10.77.06,16.15.03,3.53,2.34,6.31,6.18,6.17,2.49-.09,4.57-.77,5.64-2.97.69-1.41.89-3.16.93-4.77.12-4.5.04-9.01.04-13.52v-1.24h3.76v1.51c0,4.87.1,9.74-.03,14.6-.09,3.24-.98,6.24-3.9,8.22-2.72,1.84-5.73,1.98-8.84,1.54-2.84-.4-5-1.93-6.27-4.43-.68-1.33-1.18-2.91-1.22-4.39-.14-5.62-.07-11.24-.07-16.87.06-.07.13-.14.19-.21Z"/>
    <path class="cls-16" d="M475.48,319.77c.01,5.3.23,10.62-.03,15.91-.22,4.45-1.8,8.09-6.57,9.49-3.95,1.16-7.88.84-11.05-2.12-1.64-1.53-2.59-3.69-2.64-5.96-.12-5.7-.04-11.4-.04-17.11,0-.11.04-.22.07-.39h3.69c0,.45,0,.88,0,1.3.02,5.1,0,10.21.09,15.31.04,2.67,1.15,4.92,3.87,5.57,4.19.99,8.11.04,8.54-5.07.32-3.83.23-7.69.31-11.54.03-1.79.03-3.59.04-5.38.06-.07.13-.14.19-.21,1.12,0,2.23,0,3.35,0,.06.07.13.14.19.21Z"/>
    <path class="cls-15" d="M241.44,362.39v-3.04h19.47c.77,2.39-.36,4.13-1.86,5.89-4.43,5.22-8.75,10.53-13.11,15.81-.07.11-.14.23-.21.34.09.03.17.05.26.08h15.48c0,.77-.06,1.44.01,2.09.11.98-.23,1.29-1.25,1.28-5.43-.05-10.87-.02-16.3-.02-.99,0-1.98,0-3.04,0-.35-1.96-.24-3.63,1.24-5.14,1.52-1.55,2.79-3.35,4.19-5.02,1.38-1.65,2.78-3.29,4.16-4.94,1.42-1.7,2.83-3.43,4.25-5.13.49-.59,1.01-1.17,1.73-2.01h-14.83c-.07-.06-.14-.13-.21-.19Z"/>
    <path class="cls-8" d="M334.51,384.86h-4.09c-.88-2.34-1.76-4.71-2.68-7.16-3.27,0-6.54-.01-9.81.03-.25,0-.61.32-.71.58-.67,1.66-1.36,3.32-1.87,5.03-.35,1.18-.89,1.76-2.17,1.59-.76-.1-1.54-.02-2.45-.02,3.4-8.67,6.7-17.08,10.06-25.63.64,0,1.45.09,2.22-.02,1.28-.18,1.84.35,2.28,1.53,1.61,4.35,3.35,8.64,5.04,12.96,1.34,3.42,2.68,6.83,4.01,10.25.1.25.11.53.18.85ZM326.65,374.49c-1.35-3.67-2.65-7.19-4.03-10.94-1.41,3.78-2.72,7.31-4.08,10.94h8.11Z"/>
    <path class="cls-9" d="M297.66,319.52c3.27,8.44,6.52,16.81,9.84,25.38-1.37,0-2.58.03-3.78-.03-.22,0-.52-.32-.61-.56-.79-2.09-1.53-4.2-2.3-6.34h-10.35c-.86,2.27-1.74,4.56-2.62,6.89h-3.98c1.58-4.01,3.15-7.95,4.69-11.9,1.58-4.08,3.13-8.17,4.7-12.25.29-.76.67-1.36,1.7-1.23.86.11,1.75.02,2.72.02ZM299.67,334.66c-1.34-3.63-2.62-7.12-4.01-10.88-1.4,3.76-2.71,7.26-4.06,10.88h8.07Z"/>
    <path class="cls-13" d="M189.77,359.52v3.08h-12.3v7.25h9.16v3.45h-9.16v8.06h13.16v3.4h-16.87v-25.44h15.82c.06.07.13.14.19.21Z"/>
    <path class="cls-11" d="M376.74,322.27c-.07.2-.07.25-.1.27-.69.66-1.3,1.67-2.1,1.86-.6.14-1.44-.79-2.2-1.2-1.77-.94-3.63-1.29-5.6-.77-1.47.39-2.7,1.85-2.75,3.21-.06,1.46.99,2.86,2.72,3.45,1.98.68,4.01,1.26,6,1.93,2.7.91,4.88,3.32,4.76,6.7-.16,4.58-3.26,7.79-7.9,7.92-2.51.07-4.95-.14-7.12-1.51-1.29-.81-2.44-1.82-3.63-2.72.99-1.11,1.77-1.99,2.35-2.65,1.83,1.17,3.31,2.42,5.01,3.11,2.29.93,4.57.5,6.5-1.21,1.74-1.53,1.42-4.75-.85-5.8-1.55-.72-3.21-1.24-4.87-1.67-2.97-.77-5.51-2.14-6.5-5.19-1.13-3.47.67-7.59,4.39-8.5,3.4-.83,6.8-1,9.92,1.01.72.47,1.3,1.16,1.95,1.76Z"/>
    <path class="cls-8" d="M407.27,340.63c-1.17,1.04-2.16,2.2-3.39,2.96-4.64,2.85-9.48,2.92-14.05.01-3.52-2.24-5.23-5.74-5.47-9.95-.18-3.3.31-6.39,2.18-9.21,2.3-3.48,5.47-5.29,9.66-5.42,2.99-.09,5.84.29,8.25,2.2.98.78,1.84,1.72,2.79,2.62-1.04.87-1.91,1.61-2.63,2.21-1.26-.98-2.35-2.05-3.64-2.77-3.59-2-8.62-.92-10.93,2.66-2.53,3.91-2.47,8.96.17,12.72,2.64,3.77,8.17,4.51,11.87,1.84.62-.44,1.13-1.04,1.64-1.61.41-.45.74-.66,1.28-.14.63.6,1.34,1.1,2.27,1.86Z"/>
    <path class="cls-13" d="M386.05,362.57h-8.81v1.33c0,6.54-.02,13.09.02,19.63,0,1.02-.25,1.49-1.34,1.38-.74-.08-1.5-.01-2.37-.01v-22.33h-9.07c-.07-.06-.14-.13-.21-.19v-3.04h21.99v3.04c-.07.06-.14.12-.21.19Z"/>
    <path class="cls-8" d="M240.2,344.87h-3.6c0-2.4-.15-4.79.04-7.16.22-2.77-.57-5.05-2.14-7.32-2.39-3.47-4.48-7.14-6.79-10.87,1.35,0,2.57-.04,3.78.03.29.02.66.35.84.63,1.99,3.18,3.95,6.38,5.92,9.58.08.12.16.24.3.44,1.95-3.17,3.91-6.22,5.72-9.36.57-1,1.16-1.46,2.3-1.34.79.09,1.6.02,2.61.02-.58.97-1.07,1.84-1.6,2.68-2.2,3.51-4.43,7.01-6.6,10.54-.31.51-.52,1.16-.53,1.75-.06,3.39-.05,6.78-.06,10.17-.06.07-.13.14-.19.21Z"/>
    <path class="cls-15" d="M78.94,319.77c.01,5.9.08,11.8-.01,17.7-.02,1.41-.42,2.87-.91,4.2-.9,2.41-2.98,3.58-5.36,3.91-3.09.42-6.08,0-8.52-2.25-.39-.36-.66-.84-.98-1.26.88-.79,1.72-1.53,2.29-2.04,1.57.76,2.83,1.63,4.21,1.99,2.73.7,4.8-.93,5.31-3.3.16-.72.2-1.47.2-2.21.03-5.58.03-11.16.04-16.74.06-.07.13-.14.19-.21,1.12,0,2.23,0,3.35,0,.06.07.13.14.19.21Z"/>
    <path class="cls-13" d="M397.17,384.77h-3.61v-25.43h3.61v25.43Z"/>
    <path class="cls-13" d="M273.23,384.77h-3.59v-25.41h3.59v25.41Z"/>
    <path class="cls-13" d="M202.23,384.77h-3.59v-25.41h3.59v25.41Z"/>
    <path class="cls-13" d="M351.45,319.77v24.89c-.06.07-.13.14-.19.21-1.11.02-2.22.03-3.33.05-.07-.02-.13-.03-.2-.02v-25.13c.06-.07.13-.14.19-.21,1.12,0,2.23,0,3.35,0,.06.07.13.14.19.21Z"/>
    <path class="cls-11" d="M179.33,345.15c-1.36.24-1.59-.43-1.51-1.49.07-.9.01-1.81.01-2.77h4.37c1.03,3.27-.67,5.77-2.34,8.2-.31.45-1.42.34-2.45.55.71-1.67,1.29-3.02,1.92-4.5Z"/>
    <path class="cls-14" d="M273.54,338.68c.02.14.04.27.06.41-.1-.12-.2-.24-.29-.36.08-.02.16-.03.24-.05Z"/>
    <path class="cls-14" d="M228.94,378.44c0,.14.02.27.02.41-.1-.12-.19-.24-.29-.36.09-.02.18-.03.26-.05Z"/>
    <path class="cls-3" d="M215.09,366c.03-.26.06-.51.09-.77.03.06.06.13.08.19-.06.19-.12.38-.18.57Z"/>
    <path class="cls-7" d="M245.99,381.47c-.09-.03-.17-.05-.26-.08.07-.11.14-.23.21-.34.02.14.03.28.05.42Z"/>
    <path class="cls-3" d="M488.09,325.78c.02-.11.04-.21.06-.32.06.07.12.15.17.22-.08.03-.15.07-.23.1Z"/>
    <path class="cls-14" d="M351.45,319.77c-.06-.07-.13-.14-.19-.21.06.07.13.14.19.21Z"/>
    <path class="cls-14" d="M160.57,332.03c-.07.06-.14.13-.21.19.07-.06.14-.13.21-.19Z"/>
    <path class="cls-14" d="M418.19,344.87c.06-.07.13-.14.19-.21-.06.07-.13.14-.19.21Z"/>
    <path class="cls-14" d="M116.96,344.9c.06.07.13.14.19.21-.06-.07-.13-.14-.19-.21Z"/>
    <path class="cls-14" d="M347.73,344.9c.07,0,.14,0,.2.02-.06.05-.12.1-.18.16,0-.06-.01-.12-.02-.18Z"/>
    <path class="cls-4" d="M432.21,344.86c.07-.04.12-.02.15.05-.05.05-.1.11-.15.16,0-.07,0-.14,0-.21Z"/>
    <path class="cls-7" d="M120.59,325.54c.01-.07.02-.14.03-.2.03.07.05.13.08.2,0,0-.05.04-.05.04l-.06-.04Z"/>
    <path class="cls-14" d="M189.77,359.52c-.06-.07-.13-.14-.19-.21.06.07.13.14.19.21Z"/>
    <path class="cls-14" d="M502.17,319.56c-.06.07-.13.14-.19.21.06-.07.13-.14.19-.21Z"/>
    <path class="cls-14" d="M229.17,359.32c-.06.07-.13.14-.19.21.06-.07.13-.14.19-.21Z"/>
    <path class="cls-14" d="M475.48,319.77c-.06-.07-.13-.14-.19-.21.06.07.13.14.19.21Z"/>
    <path class="cls-14" d="M471.94,319.56c-.06.07-.13.14-.19.21.06-.07.13-.14.19-.21Z"/>
    <path class="cls-14" d="M418.38,319.77c-.06-.07-.13-.14-.19-.21.06.07.13.14.19.21Z"/>
    <path class="cls-14" d="M240.2,344.87c.06-.07.13-.14.19-.21-.06.07-.13.14-.19.21Z"/>
    <path class="cls-14" d="M341.44,359.32c-.06.07-.13.14-.19.21.06-.07.13-.14.19-.21Z"/>
    <path class="cls-14" d="M347.92,319.56c-.06.07-.13.14-.19.21.06-.07.13-.14.19-.21Z"/>
    <path class="cls-14" d="M273.79,319.56c-.06.07-.13.14-.19.21.06-.07.13-.14.19-.21Z"/>
    <path class="cls-14" d="M138.19,319.77c-.06-.07-.13-.14-.19-.21.06.07.13.14.19.21Z"/>
    <path class="cls-14" d="M241.44,362.39c.07.06.14.13.21.19-.07-.06-.14-.13-.21-.19Z"/>
    <path class="cls-14" d="M364.26,362.38c.07.06.14.13.21.19-.07-.06-.14-.13-.21-.19Z"/>
    <path class="cls-14" d="M386.05,362.57c.07-.06.14-.12.21-.19-.07.06-.14.12-.21.19Z"/>
    <path class="cls-14" d="M117.15,319.56c-.06.07-.13.14-.19.21.06-.07.13-.14.19-.21Z"/>
    <path class="cls-14" d="M91.42,319.77c-.06-.07-.13-.14-.19-.21.06.07.13.14.19.21Z"/>
    <path class="cls-14" d="M138.01,344.87c.06-.07.13-.14.19-.21-.06.07-.13.14-.19.21Z"/>
    <path class="cls-5" d="M87.88,319.56c-.06.07-.13.14-.19.21.06-.07.13-.14.19-.21Z"/>
    <path class="cls-14" d="M419.4,371.79l-.21.19.21-.19Z"/>
    <path class="cls-14" d="M78.94,319.77c-.06-.07-.13-.14-.19-.21.06.07.13.14.19.21Z"/>
    <path class="cls-14" d="M428.27,371.97c-.08-.06-.16-.12-.24-.18.08.06.16.12.24.18Z"/>
    <path class="cls-14" d="M75.4,319.56c-.06.07-.13.14-.19.21.06-.07.13-.14.19-.21Z"/>
    <path class="cls-14" d="M351.27,344.87c.06-.07.13-.14.19-.21-.06.07-.13.14-.19.21Z"/>
    <path class="cls-14" d="M501.83,339s.06-.03.1-.04c0,.05.02.1.03.15-.04,0-.08,0-.1-.02-.02-.01-.01-.06-.02-.08Z"/>
    <polygon class="cls-10" points="134.58 339.02 134.5 339.05 134.51 338.97 134.58 339.02"/>
    <path class="cls-6" d="M518.51,341.91v-19.02c3.09,0,6.19-.3,9.17.68,3.78,1.25,5.14,4.08,5.41,7.47.12,1.47,0,3.02-.34,4.46-.91,3.88-3.82,5.52-7.48,6-2.19.29-4.43.27-6.77.4Z"/>
    <path class="cls-6" d="M205.38,342v-19.12c3.51.1,7.05-.41,10.38,1.31,2.42,1.25,3.56,3.37,3.98,5.83.49,2.91.26,5.78-1.58,8.33-1.2,1.66-2.85,2.6-4.76,2.9-2.6.4-5.24.51-8.02.75Z"/>
    <path class="cls-6" d="M344.99,371.19v-8.67c2.28.12,4.53.11,6.75.39,1.57.2,2.61,1.76,2.65,3.37.08,3.47-1.35,4.9-4.88,4.91-1.47,0-2.94,0-4.52,0Z"/>
    <path class="cls-1" d="M326.65,374.49h-8.11c1.35-3.63,2.67-7.15,4.08-10.94,1.38,3.74,2.68,7.27,4.03,10.94Z"/>
    <path class="cls-1" d="M299.67,334.66h-8.07c1.35-3.62,2.66-7.12,4.06-10.88,1.39,3.76,2.67,7.25,4.01,10.88Z"/>
  </g>
</svg>