<?xml version="1.0" encoding="UTF-8"?>
<svg id="Ebene_1" data-name="Ebene 1" xmlns="http://www.w3.org/2000/svg" xmlns:xlink="http://www.w3.org/1999/xlink" viewBox="0 0 595.28 595.28">
  <defs>
    <style>
      .cls-1 {
        fill: url(#Türkis);
      }

      .cls-2 {
        fill: #264652;
      }
    </style>
    <linearGradient id="Türkis" x1="111.64" y1="315.54" x2="486.02" y2="315.54" gradientUnits="userSpaceOnUse">
      <stop offset=".01" stop-color="#42afcc"/>
      <stop offset=".5" stop-color="#008eb3"/>
      <stop offset=".99" stop-color="#00737d"/>
    </linearGradient>
  </defs>
  <g>
    <path class="cls-2" d="M143.65,362.3c.15.16.33.33.54.5.2.17.43.33.69.47.25.14.53.25.83.34.3.09.62.13.96.13.2,0,.4-.03.6-.09s.38-.14.55-.25c.16-.11.3-.25.4-.41.1-.16.15-.34.15-.54,0-.43-.21-.77-.63-1.01s-1.09-.48-2.01-.71c-.45-.1-.86-.26-1.24-.46s-.71-.44-.99-.72c-.27-.28-.49-.6-.64-.97-.15-.36-.23-.77-.23-1.21,0-.49.09-.96.26-1.39s.44-.82.8-1.15c.36-.34.8-.6,1.34-.79s1.16-.29,1.89-.29c.6,0,1.13.06,1.58.18.46.12.85.27,1.17.44.32.17.59.35.79.53s.36.33.47.43l-1.53,1.69c-.13-.11-.28-.22-.45-.34-.17-.12-.36-.24-.57-.34-.21-.1-.44-.19-.69-.26-.25-.07-.52-.11-.8-.11-.19,0-.37.03-.55.09-.18.06-.35.14-.49.24-.15.1-.26.22-.35.35-.09.14-.13.28-.13.43,0,.4.21.72.63.97s1,.45,1.74.62c.43.11.86.25,1.28.43s.79.42,1.12.71c.33.29.59.65.79,1.08.2.43.3.95.3,1.56,0,.53-.12,1.02-.35,1.46-.23.45-.55.83-.96,1.16-.41.33-.88.58-1.43.77s-1.14.27-1.77.27c-.59,0-1.12-.06-1.6-.17s-.91-.26-1.3-.44c-.39-.18-.74-.39-1.05-.62s-.58-.48-.8-.72l1.71-1.85Z"/>
    <path class="cls-2" d="M159.56,366.1c-.87,0-1.68-.16-2.42-.48-.74-.32-1.39-.75-1.94-1.3s-.97-1.21-1.28-1.96c-.31-.76-.47-1.57-.47-2.44s.15-1.7.47-2.45c.31-.75.74-1.4,1.28-1.95s1.19-.99,1.94-1.3,1.55-.48,2.42-.48,1.67.16,2.42.48c.74.32,1.39.75,1.94,1.3.55.55.97,1.2,1.28,1.95s.47,1.57.47,2.45-.16,1.68-.47,2.44-.74,1.41-1.28,1.96c-.55.55-1.19.99-1.94,1.3-.75.32-1.55.48-2.42.48ZM159.56,363.6c.52,0,.98-.1,1.39-.3.41-.2.76-.47,1.05-.81.29-.34.51-.73.66-1.18.15-.45.23-.92.23-1.43s-.08-.98-.23-1.42c-.15-.45-.37-.84-.66-1.17-.29-.33-.64-.6-1.05-.79-.41-.19-.88-.29-1.39-.29s-.98.1-1.4.29-.77.46-1.06.79c-.29.33-.51.72-.66,1.17-.15.45-.23.92-.23,1.42s.08.98.23,1.43c.15.45.37.84.66,1.18.29.34.64.61,1.06.81.42.2.88.3,1.4.3Z"/>
    <path class="cls-2" d="M168.2,354.06h2.66v9.38h5.61v2.36h-8.27v-11.74Z"/>
    <path class="cls-2" d="M178.48,354.06h2.67v6.95c0,.39.04.74.11,1.05s.2.58.38.8c.18.22.41.4.7.52.29.12.64.18,1.06.18s.76-.06,1.05-.18.52-.3.7-.52c.18-.22.3-.49.38-.8.08-.31.11-.66.11-1.05v-6.95h2.69v7.28c0,.7-.11,1.35-.34,1.94-.23.59-.56,1.09-.99,1.51s-.95.74-1.56.98c-.61.23-1.29.35-2.04.35s-1.43-.11-2.04-.34-1.13-.55-1.56-.98-.76-.93-.99-1.51c-.23-.59-.34-1.23-.34-1.94v-7.28Z"/>
    <path class="cls-2" d="M194.26,356.4h-3.8v-2.34h10.26v2.34h-3.78v9.4h-2.67v-9.4Z"/>
    <path class="cls-2" d="M202.94,354.06h2.66v11.74h-2.66v-11.74Z"/>
    <path class="cls-2" d="M214.24,366.1c-.87,0-1.67-.16-2.42-.48-.75-.32-1.39-.75-1.94-1.3-.55-.55-.97-1.21-1.28-1.96s-.47-1.57-.47-2.44.16-1.7.47-2.45.74-1.4,1.28-1.95c.55-.55,1.19-.99,1.94-1.3.74-.32,1.55-.48,2.42-.48s1.68.16,2.42.48,1.39.75,1.94,1.3.97,1.2,1.28,1.95.47,1.57.47,2.45-.15,1.68-.47,2.44-.74,1.41-1.28,1.96-1.19.99-1.94,1.3c-.74.32-1.55.48-2.42.48ZM214.24,363.6c.52,0,.98-.1,1.39-.3.41-.2.76-.47,1.05-.81.29-.34.51-.73.66-1.18s.23-.92.23-1.43-.08-.98-.23-1.42c-.15-.45-.37-.84-.66-1.17s-.64-.6-1.05-.79-.87-.29-1.39-.29-.98.1-1.4.29c-.42.19-.77.46-1.06.79s-.51.72-.66,1.17c-.15.45-.23.92-.23,1.42s.08.98.23,1.43c.15.45.37.84.66,1.18.29.34.64.61,1.06.81.42.2.88.3,1.4.3Z"/>
    <path class="cls-2" d="M222.88,354.06h2.53l5.09,7.62v-7.62h2.62v11.74h-2.41l-5.21-7.76v7.76h-2.62v-11.74Z"/>
    <path class="cls-2" d="M236.99,362.3c.15.16.33.33.54.5s.44.33.69.47c.25.14.53.25.83.34.3.09.62.13.96.13.2,0,.4-.03.6-.09.2-.06.38-.14.55-.25.16-.11.3-.25.4-.41.1-.16.15-.34.15-.54,0-.43-.21-.77-.63-1.01-.42-.24-1.09-.48-2.01-.71-.45-.1-.86-.26-1.24-.46-.38-.2-.71-.44-.99-.72-.27-.28-.49-.6-.64-.97s-.23-.77-.23-1.21c0-.49.09-.96.26-1.39s.44-.82.8-1.15c.36-.34.8-.6,1.34-.79s1.16-.29,1.89-.29c.6,0,1.13.06,1.58.18.46.12.85.27,1.17.44.32.17.59.35.79.53.21.18.36.33.47.43l-1.53,1.69c-.13-.11-.28-.22-.45-.34s-.36-.24-.57-.34-.44-.19-.69-.26-.52-.11-.8-.11c-.19,0-.37.03-.55.09-.18.06-.35.14-.49.24-.15.1-.27.22-.35.35-.09.14-.13.28-.13.43,0,.4.21.72.63.97.42.25,1,.45,1.74.62.44.11.86.25,1.28.43.42.18.79.42,1.12.71.33.29.59.65.79,1.08s.3.95.3,1.56c0,.53-.12,1.02-.35,1.46-.23.45-.56.83-.96,1.16-.4.33-.88.58-1.43.77-.54.18-1.13.27-1.77.27-.59,0-1.12-.06-1.6-.17s-.92-.26-1.3-.44-.74-.39-1.05-.62-.58-.48-.8-.72l1.71-1.85Z"/>
    <path class="cls-2" d="M256.76,366.1c-.87,0-1.67-.16-2.42-.48-.75-.32-1.39-.75-1.94-1.3-.55-.55-.97-1.21-1.28-1.96s-.47-1.57-.47-2.44.16-1.7.47-2.45.74-1.4,1.28-1.95c.55-.55,1.19-.99,1.94-1.3.74-.32,1.55-.48,2.42-.48s1.67.16,2.42.48c.74.32,1.39.75,1.94,1.3.55.55.97,1.2,1.28,1.95s.47,1.57.47,2.45-.16,1.68-.47,2.44-.74,1.41-1.28,1.96c-.54.55-1.19.99-1.94,1.3-.75.32-1.55.48-2.42.48ZM256.76,363.6c.52,0,.98-.1,1.39-.3.41-.2.76-.47,1.05-.81.29-.34.51-.73.66-1.18.15-.45.23-.92.23-1.43s-.08-.98-.23-1.42c-.15-.45-.37-.84-.66-1.17s-.64-.6-1.05-.79-.87-.29-1.39-.29-.98.1-1.4.29-.77.46-1.06.79-.51.72-.66,1.17c-.15.45-.23.92-.23,1.42s.08.98.23,1.43c.15.45.37.84.66,1.18.29.34.64.61,1.06.81.42.2.88.3,1.4.3Z"/>
    <path class="cls-2" d="M265.4,354.06h2.53l5.09,7.62v-7.62h2.62v11.74h-2.41l-5.21-7.76v7.76h-2.62v-11.74Z"/>
    <path class="cls-2" d="M282.52,354.06h4.43c.9,0,1.74.12,2.51.35.77.23,1.43.59,1.99,1.07.56.48.99,1.1,1.3,1.85.31.75.47,1.64.47,2.66s-.16,1.82-.48,2.54-.75,1.33-1.31,1.81c-.56.49-1.22.85-1.99,1.09-.77.24-1.6.36-2.51.36h-4.42v-11.74ZM286.8,363.44c1.17,0,2.08-.31,2.71-.92.63-.62.95-1.46.95-2.54,0-.54-.07-1.03-.22-1.47-.15-.44-.37-.81-.67-1.13-.3-.31-.68-.55-1.14-.72-.46-.17-1-.26-1.64-.26h-1.62v7.04h1.62Z"/>
    <path class="cls-2" d="M295.85,354.06h8.03v2.32h-5.37v2.29h4.17v2.25h-4.17v2.53h5.75v2.34h-8.41v-11.74Z"/>
    <path class="cls-2" d="M307.11,354.06h2.52l3.06,5.51,2.99-5.51h2.53l.55,11.74h-2.66l-.34-7.67-2.43,4.58h-1.37l-2.57-4.52-.3,7.62h-2.53l.54-11.74Z"/>
    <path class="cls-2" d="M324.92,354.06h2.94l4.29,11.74h-2.9l-.9-2.69h-4.14l-.9,2.69h-2.78l4.38-11.74ZM327.72,361.05l-1.43-4.43-1.46,4.43h2.89Z"/>
    <path class="cls-2" d="M334.14,354.06h2.53l5.09,7.62v-7.62h2.62v11.74h-2.41l-5.21-7.76v7.76h-2.62v-11.74Z"/>
    <path class="cls-2" d="M347.38,354.06h4.43c.9,0,1.74.12,2.51.35.77.23,1.43.59,1.99,1.07.56.48.99,1.1,1.3,1.85.31.75.47,1.64.47,2.66s-.16,1.82-.48,2.54-.75,1.33-1.31,1.81c-.56.49-1.22.85-1.99,1.09-.77.24-1.6.36-2.51.36h-4.42v-11.74ZM351.65,363.44c1.17,0,2.08-.31,2.71-.92.63-.62.95-1.46.95-2.54,0-.54-.07-1.03-.22-1.47-.15-.44-.37-.81-.67-1.13-.3-.31-.68-.55-1.14-.72-.46-.17-1-.26-1.64-.26h-1.62v7.04h1.62Z"/>
  </g>
  <path class="cls-1" d="M137.63,331.41c-4.07,2.78-6.1,6.47-6.1,11.28v12.58c0,.65-.37,1.02-1.02,1.02h-4.72c-.65,0-1.02-.37-1.02-1.02v-12.58c0-2.77.46-5.18,1.39-7.31.28-.83,0-1.29-.93-1.48-3.98-.74-7.22-2.68-9.81-5.82-2.5-3.05-3.79-6.66-3.79-10.64v-25.54c0-.65.28-.92,1.02-.92h4.72c.65,0,1.02.28,1.02.92v25.54c0,2.77.92,5.09,2.87,7.03,1.94,1.94,4.26,2.96,7.03,2.96s5.18-1.02,7.12-2.96c1.85-1.94,2.87-4.26,2.87-7.03v-25.54c0-.65.37-.92,1.02-.92h4.81c.65,0,1.02.28,1.02.92v25.54c0,6.01-2.5,10.64-7.49,13.97ZM192.77,334.09c-3.51,3.52-7.68,5.27-12.67,5.27s-9.16-1.76-12.68-5.27c-3.51-3.51-5.27-7.77-5.27-12.67v-13.79c0-4.99,1.76-9.16,5.27-12.67,3.52-3.52,7.77-5.28,12.68-5.28s9.16,1.76,12.67,5.28c3.51,3.52,5.27,7.68,5.27,12.67v13.79c0,4.9-1.76,9.16-5.27,12.67ZM191.29,307.63c0-3.14-1.02-5.73-3.23-7.96-2.22-2.22-4.81-3.24-7.96-3.24s-5.74,1.02-7.96,3.24c-2.13,2.22-3.24,4.81-3.24,7.96v13.79c0,3.05,1.11,5.73,3.24,7.86,2.22,2.22,4.9,3.33,7.96,3.33s5.73-1.11,7.96-3.33c2.22-2.13,3.23-4.81,3.23-7.86v-13.79ZM244.3,334.46c-3.24,3.23-7.12,4.9-11.66,4.9s-8.51-1.67-11.75-4.9c-3.24-3.24-4.81-7.12-4.81-11.65v-30.9c0-.65.28-.92,1.01-.92h4.72c.65,0,1.02.28,1.02.92v30.9c0,2.68.93,4.99,2.87,6.94,1.94,1.94,4.16,2.87,6.94,2.87s5-.92,6.85-2.87c1.94-1.94,2.96-4.25,2.96-6.94v-30.9c0-.65.28-.92.92-.92h4.81c.65,0,1.02.28,1.02.92v30.9c0,4.53-1.66,8.41-4.9,11.65ZM300.45,338.07h-4.72c-.65,0-1.02-.37-1.02-1.02v-30.9c0-2.68-.92-4.99-2.87-6.84-1.94-1.94-4.25-2.87-6.94-2.87s-4.99.93-6.94,2.87c-1.85,1.85-2.87,4.16-2.87,6.84v30.9c0,.64-.28,1.02-1.02,1.02h-4.72c-.65,0-1.02-.37-1.02-1.02v-30.9c0-4.53,1.67-8.42,4.9-11.66,3.24-3.23,7.12-4.81,11.65-4.81s8.42,1.58,11.66,4.81c3.24,3.24,4.9,7.13,4.9,11.66v30.9c0,.64-.37,1.02-1.02,1.02ZM327.65,281.07c-.83.93-1.94,1.39-3.24,1.39-1.2,0-2.31-.46-3.14-1.39-.92-.83-1.39-1.94-1.39-3.14,0-1.3.46-2.4,1.39-3.24.83-.92,1.94-1.29,3.14-1.29,1.3,0,2.4.37,3.24,1.29.92.84,1.39,1.94,1.39,3.24,0,1.2-.46,2.31-1.39,3.14ZM326.82,338.07h-4.72c-.74,0-1.02-.37-1.02-1.02v-45.15c0-.65.28-.92,1.02-.92h4.72c.65,0,1.02.28,1.02.92v45.15c0,.64-.37,1.02-1.02,1.02ZM374.74,332.98c-.46.28-.65.74-.55,1.11,0,.19.19.37.55.74,2.96,3.05,4.44,6.76,4.44,10.92v10.92c0,.65-.37,1.02-1.02,1.02h-4.72c-.65,0-1.02-.37-1.02-1.02v-10.92c0-2.4-.83-4.44-2.5-6.2-1.75-1.76-3.79-2.59-6.38-2.59-4.9,0-9.06-1.76-12.58-5.27-3.52-3.51-5.18-7.68-5.18-12.58v-11.66c0-4.9,1.66-9.06,5.18-12.58,3.51-3.51,7.68-5.18,12.58-5.18s9.07,1.76,12.58,5.37c3.51,3.52,5.27,7.68,5.27,12.39v11.66c0,5.83-2.22,10.36-6.66,13.88ZM374.64,307.44c0-3.05-1.11-5.64-3.24-7.77-2.22-2.22-4.81-3.24-7.86-3.24s-5.55,1.02-7.77,3.24c-2.22,2.13-3.23,4.72-3.23,7.77v11.66c0,3.05,1.02,5.64,3.23,7.86,2.13,2.13,4.72,3.24,7.77,3.24s5.73-1.11,7.86-3.24c2.13-2.22,3.24-4.81,3.24-7.86v-11.66ZM429.32,334.46c-3.24,3.23-7.12,4.9-11.66,4.9s-8.51-1.67-11.75-4.9c-3.24-3.24-4.81-7.12-4.81-11.65v-30.9c0-.65.28-.92,1.02-.92h4.72c.65,0,1.02.28,1.02.92v30.9c0,2.68.92,4.99,2.87,6.94,1.95,1.94,4.16,2.87,6.94,2.87s5-.92,6.85-2.87c1.94-1.94,2.96-4.25,2.96-6.94v-30.9c0-.65.28-.92.92-.92h4.81c.65,0,1.02.28,1.02.92v30.9c0,4.53-1.66,8.41-4.9,11.65ZM485.1,317.53h-25.16c-.64,0-1.02.37-1.02,1.02v2.87c0,3.14,1.11,5.73,3.23,7.86,2.22,2.22,4.81,3.33,7.87,3.33,3.88,0,7.4-1.11,10.55-3.33.46-.37.93-.28,1.29.19l2.77,3.98c.37.46.28,1.02-.27,1.38-4.16,3.05-8.97,4.53-14.34,4.53-4.9,0-9.07-1.76-12.58-5.27-3.52-3.51-5.27-7.68-5.27-12.67v-14.8c0-4.72,1.67-8.7,4.99-12.03,3.33-3.23,7.31-4.9,11.93-4.9s8.7,1.67,12.03,5c3.33,3.33,4.9,7.31,4.9,11.94v9.9c0,.65-.28,1.01-.92,1.01ZM479.27,306.61c0-2.78-.92-5.18-2.96-7.21-2.04-2.04-4.44-2.97-7.22-2.97s-5.18.93-7.12,2.97c-2.04,2.03-3.05,4.44-3.05,7.21v3.14c0,.65.37,1.02,1.02,1.02h18.41c.65,0,.92-.37.92-1.02v-3.14Z"/>
</svg>