<?xml version="1.0" encoding="UTF-8"?>
<svg id="Ebene_1" data-name="Ebene 1" xmlns="http://www.w3.org/2000/svg" xmlns:xlink="http://www.w3.org/1999/xlink" viewBox="0 0 595.28 595.28">
  <defs>
    <style>
      .cls-1 {
        fill: url(#Türkis);
      }
    </style>
    <linearGradient id="Türkis" x1="143.53" y1="306.49" x2="451.75" y2="306.49" gradientUnits="userSpaceOnUse">
      <stop offset=".01" stop-color="#42afcc"/>
      <stop offset=".5" stop-color="#008eb3"/>
      <stop offset=".99" stop-color="#00737d"/>
    </linearGradient>
  </defs>
  <path class="cls-1" d="M230.31,311.71c-2.59,1.76-3.88,4.12-3.88,7.17v8c0,.41-.24.65-.65.65h-3c-.41,0-.65-.23-.65-.65v-8c0-1.76.29-3.29.88-4.64.18-.53,0-.82-.59-.94-2.53-.47-4.59-1.71-6.23-3.7-1.59-1.94-2.41-4.23-2.41-6.76v-16.23c0-.41.18-.59.65-.59h3c.41,0,.65.18.65.59v16.23c0,1.76.59,3.23,1.82,4.47,1.23,1.23,2.71,1.88,4.47,1.88s3.29-.65,4.53-1.88c1.18-1.23,1.82-2.71,1.82-4.47v-16.23c0-.41.23-.59.65-.59h3.06c.41,0,.65.18.65.59v16.23c0,3.82-1.59,6.76-4.76,8.88ZM265.35,313.41c-2.23,2.23-4.88,3.35-8.05,3.35s-5.82-1.12-8.06-3.35c-2.23-2.23-3.35-4.94-3.35-8.05v-8.76c0-3.17,1.12-5.82,3.35-8.06,2.23-2.23,4.94-3.35,8.06-3.35s5.82,1.12,8.05,3.35c2.23,2.23,3.35,4.88,3.35,8.06v8.76c0,3.12-1.12,5.82-3.35,8.05ZM264.41,296.6c0-2-.65-3.64-2.06-5.06-1.41-1.41-3.06-2.06-5.06-2.06s-3.65.65-5.06,2.06c-1.35,1.41-2.06,3.06-2.06,5.06v8.76c0,1.94.71,3.64,2.06,5,1.41,1.41,3.12,2.12,5.06,2.12s3.64-.71,5.06-2.12c1.41-1.35,2.06-3.06,2.06-5v-8.76ZM298.11,313.65c-2.06,2.06-4.53,3.12-7.41,3.12s-5.41-1.06-7.47-3.12c-2.06-2.06-3.06-4.53-3.06-7.41v-19.64c0-.41.18-.59.64-.59h3c.41,0,.65.18.65.59v19.64c0,1.71.59,3.17,1.82,4.41,1.23,1.23,2.65,1.82,4.41,1.82s3.18-.59,4.35-1.82c1.23-1.23,1.88-2.7,1.88-4.41v-19.64c0-.41.18-.59.59-.59h3.06c.41,0,.65.18.65.59v19.64c0,2.88-1.06,5.35-3.12,7.41ZM333.8,315.94h-3c-.41,0-.65-.24-.65-.65v-19.64c0-1.71-.59-3.17-1.82-4.35-1.23-1.23-2.7-1.82-4.41-1.82s-3.17.59-4.41,1.82c-1.18,1.18-1.82,2.64-1.82,4.35v19.64c0,.41-.18.65-.65.65h-3c-.41,0-.65-.24-.65-.65v-19.64c0-2.88,1.06-5.35,3.12-7.41,2.06-2.06,4.53-3.06,7.41-3.06s5.35,1,7.41,3.06c2.06,2.06,3.12,4.53,3.12,7.41v19.64c0,.41-.24.65-.65.65ZM351.09,279.72c-.53.59-1.23.88-2.06.88-.77,0-1.47-.29-2-.88-.59-.53-.88-1.23-.88-2,0-.82.3-1.53.88-2.06.53-.59,1.23-.82,2-.82.82,0,1.53.24,2.06.82.59.53.88,1.24.88,2.06,0,.76-.3,1.47-.88,2ZM350.56,315.94h-3c-.47,0-.65-.24-.65-.65v-28.7c0-.41.18-.59.65-.59h3c.41,0,.65.18.65.59v28.7c0,.41-.24.65-.65.65ZM381.01,312.71c-.29.18-.41.47-.35.71,0,.12.12.24.35.47,1.88,1.94,2.82,4.29,2.82,6.94v6.94c0,.41-.24.65-.65.65h-3c-.41,0-.65-.23-.65-.65v-6.94c0-1.53-.53-2.82-1.59-3.94-1.11-1.12-2.41-1.65-4.06-1.65-3.12,0-5.76-1.12-7.99-3.35-2.23-2.23-3.29-4.88-3.29-8v-7.41c0-3.12,1.06-5.76,3.29-8,2.23-2.23,4.88-3.29,7.99-3.29s5.76,1.12,8,3.41c2.23,2.23,3.35,4.88,3.35,7.88v7.41c0,3.7-1.41,6.59-4.24,8.82ZM380.95,296.48c0-1.94-.7-3.59-2.06-4.94-1.41-1.41-3.06-2.06-5-2.06s-3.53.65-4.94,2.06c-1.41,1.35-2.06,3-2.06,4.94v7.41c0,1.94.65,3.59,2.06,5,1.35,1.35,3,2.06,4.94,2.06s3.64-.71,5-2.06c1.35-1.41,2.06-3.06,2.06-5v-7.41ZM415.71,313.65c-2.06,2.06-4.53,3.12-7.41,3.12s-5.41-1.06-7.47-3.12c-2.06-2.06-3.06-4.53-3.06-7.41v-19.64c0-.41.18-.59.65-.59h3c.41,0,.65.18.65.59v19.64c0,1.71.59,3.17,1.82,4.41,1.24,1.23,2.65,1.82,4.41,1.82s3.18-.59,4.35-1.82c1.23-1.23,1.88-2.7,1.88-4.41v-19.64c0-.41.18-.59.59-.59h3.06c.41,0,.65.18.65.59v19.64c0,2.88-1.06,5.35-3.12,7.41ZM451.16,302.89h-15.99c-.41,0-.65.24-.65.65v1.82c0,2,.71,3.64,2.06,5,1.41,1.41,3.06,2.12,5,2.12,2.47,0,4.7-.71,6.7-2.12.29-.24.59-.18.82.12l1.76,2.53c.24.29.18.65-.17.88-2.65,1.94-5.7,2.88-9.11,2.88-3.12,0-5.76-1.12-8-3.35-2.23-2.23-3.35-4.88-3.35-8.05v-9.41c0-3,1.06-5.53,3.17-7.65,2.12-2.06,4.65-3.12,7.59-3.12s5.53,1.06,7.64,3.18c2.12,2.12,3.12,4.65,3.12,7.59v6.29c0,.41-.18.64-.59.64ZM447.46,295.95c0-1.76-.59-3.29-1.88-4.58-1.3-1.3-2.82-1.89-4.59-1.89s-3.29.59-4.53,1.89c-1.3,1.29-1.94,2.82-1.94,4.58v2c0,.41.24.65.65.65h11.7c.41,0,.59-.24.59-.65v-2ZM159.58,295.29c-1.22.07-2.32.03-2.89-.54-1.11-2.45.37-4.52,2.71-4.34,4.65.35,1.78,6.21,1.45,9.22-.4,3.63.81,6.05,1.99,7.95.87,1.41,1.88,3.18,4.16,2.71.21-.93.35-1.94.54-2.89-1.88-2.19-3.72-3.74-3.8-7.05-.08-3.41,1.67-6.58-.36-9.58-1.84-2.72-7.46-2.49-8.14,1.08-.54,2.89,2.24,5.48,4.34,3.43ZM181.99,300.36c-.04,1.63-.7,3.2-1.27,4.16-1.06,1.8-3.63,2.99-1.99,5.78,2.29.45,3.28-1.3,4.16-2.71.82-1.32,1.77-3.14,1.99-5.06.46-4.17-2.55-8-.72-10.85,1.86-2.89,7.17-.24,4.7,3.25-.59.43-1.66.39-2.71.36,2.55,1.99,4.87-.63,4.34-3.43-.8-4.26-6.58-3.38-8.14-1.08-1.96,2.9-.29,6.62-.36,9.58ZM184.89,317.71c-4.12-.38-7.07-5.89-7.41-9.04-.21-1.92.11-3.29.43-4.69-.29.34-.65.63-1.06.82l-.11.42c-.3,1.1-1.3,1.86-2.43,1.86h-2.84c-1.14,0-2.14-.77-2.43-1.87l-.11-.42c-.47-.22-.87-.55-1.18-.96.35,1.7.74,3.21.52,5.02-.42,3.38-3.71,8.51-7.59,8.86-4.49.41-7.04,1.03-9.22,3.25-.89.91-2.04,2.45-2.35,4.34-.72,4.4,2.7,8.4,6.51,6.69,1.03-.46,2.43-3.12.54-4.34,1.4,4.13-3.97,4.17-4.88,1.08-1.12-3.79,2.85-6.69,5.79-7.05,1.61-.2,3.52.26,5.6,0,2.78-.35,4.48-2.07,6.15-2.71-.99,4.81-7.6,6.56-7.59,12.47,0,2.16,1.1,4.78,2.53,5.78,4.08,2.87,10.51-2.42,5.78-5.42,1.61,1.86.69,4.64-1.81,4.88-3.52.34-4.92-3.45-3.8-6.51.89-2.41,3.77-3.19,5.6-5.06,1.7-1.74,2.38-3.64,3.44-5.24.66,4.22,6.09,6.46,8.14,9.22,1.74,2.36,1.17,6.57-1.45,7.41-3.52,1.13-5.43-2.68-3.44-4.7-3.46,1.96-.8,6.31,2.71,6.33,3.7.01,5.66-3.45,5.6-6.87-.1-5.82-6.76-7.52-7.59-12.47h.18c.01.11.03.21.18.18,1.58,1.07,3.28,2.41,5.97,2.71,2.12.24,3.98-.22,5.6,0,2.42.33,4.45,2.06,5.24,3.8,1.11,2.44-.12,6.05-3.07,5.6-1.8-.27-1.52-2.24-1.63-3.43-1.5,1.23-.39,3.84.72,4.34,2.72,1.22,6.04-1.13,6.51-3.62.62-3.28-1.14-6.18-2.35-7.41-2.24-2.29-4.83-2.83-9.4-3.25ZM150.36,310.66c2.76,4.27-4.03,5.23-5.06,1.63-1.16-4.04,2.62-6.81,6.33-6.33,5.54.73,6.54,8.54,12.29,9.22,1.11-1.12,1.95-2.51,2.71-3.98-6.97.37-6.98-7.33-14.46-7.95-2.83-.24-5.7,1.06-7.05,2.53-2.28,2.48-2.2,7.92.9,9.58,3.92,2.09,8.26-3.08,4.34-4.7ZM195.19,303.25c-6.89-.58-9.58,6.3-13.2,7.59-.75.27-.88.35-2.71.36.54,1.63,1.48,2.86,2.53,3.98,5.81-.71,6.75-8.61,12.47-9.22,3.83-.41,7.4,2.61,6.15,6.51-1.17,3.62-8.03,2.07-5.06-1.81-3.25,1.71-.59,5.94,3.43,5.06,1.66-.36,3.22-2.6,3.44-3.8.98-5.49-2.9-8.33-7.05-8.68ZM172.81,275.4c-5.45.04-9.79,4.45-9.73,9.9.02,2.59,1.06,4.95,2.73,6.69,1.29,1.33,2.14,3.07,2.42,4.89,0,0,0,0,0,.01.12.78.8,1.35,1.59,1.35h6.08c.8,0,1.48-.58,1.6-1.37.01-.08.03-.16.05-.25.31-1.73,1.13-3.35,2.36-4.63,1.7-1.76,2.75-4.16,2.75-6.8,0-5.44-4.42-9.84-9.86-9.8ZM176.29,299.73h-6.83c-.62,0-1.12.5-1.12,1.12v1.16c0,.93.68,1.69,1.57,1.83l.28,1.05c.15.57.67.97,1.27.97h2.84c.6,0,1.11-.4,1.27-.97l.29-1.05c.88-.13,1.56-.9,1.56-1.83v-1.16c0-.62-.5-1.12-1.12-1.13Z"/>
</svg>