<?xml version="1.0" encoding="UTF-8"?>
<svg id="Ebene_1" data-name="Ebene 1" xmlns="http://www.w3.org/2000/svg" xmlns:xlink="http://www.w3.org/1999/xlink" viewBox="0 0 595.28 595.28">
  <defs>
    <style>
      .cls-1 {
        fill: url(#Rot-lila);
      }

      .cls-2 {
        fill: #181716;
      }

      .cls-3 {
        fill: url(#Unbenannter_Verlauf_29);
      }

      .cls-4 {
        fill: url(#Unbenannter_Verlauf_19);
      }
    </style>
    <linearGradient id="Unbenannter_Verlauf_29" data-name="Unbenannter Verlauf 29" x1="262.2" y1="133.23" x2="333.07" y2="133.23" gradientUnits="userSpaceOnUse">
      <stop offset="0" stop-color="#d86fa9"/>
      <stop offset=".5" stop-color="#c8007e"/>
      <stop offset="1" stop-color="#a01280"/>
    </linearGradient>
    <linearGradient id="Unbenannter_Verlauf_19" data-name="Unbenannter Verlauf 19" x1="403.94" y1="133.23" x2="474.8" y2="133.23" gradientUnits="userSpaceOnUse">
      <stop offset=".01" stop-color="#42afcc"/>
      <stop offset=".5" stop-color="#008eb3"/>
      <stop offset=".99" stop-color="#00737d"/>
    </linearGradient>
    <linearGradient id="Rot-lila" x1="187.84" y1="179.06" x2="122.97" y2="114.19" gradientUnits="userSpaceOnUse">
      <stop offset="0" stop-color="#b981b7"/>
      <stop offset=".5" stop-color="#91318a"/>
      <stop offset="1" stop-color="#771d81"/>
    </linearGradient>
  </defs>
  <path class="cls-3" d="M267.12,175.22c-.77.53-1.16,1.23-1.16,2.14v2.38c0,.12-.07.19-.19.19h-.89c-.12,0-.19-.07-.19-.19v-2.38c0-.52.09-.98.26-1.38.05-.16,0-.25-.18-.28-.75-.14-1.37-.51-1.86-1.1-.47-.58-.72-1.26-.72-2.01v-4.83c0-.12.05-.17.19-.17h.89c.12,0,.19.05.19.17v4.83c0,.52.17.96.54,1.33.37.37.81.56,1.33.56s.98-.19,1.35-.56c.35-.37.54-.81.54-1.33v-4.83c0-.12.07-.17.19-.17h.91c.12,0,.19.05.19.17v4.83c0,1.14-.47,2.01-1.42,2.64ZM277.56,175.73c-.67.67-1.45,1-2.4,1s-1.73-.33-2.4-1c-.67-.67-1-1.47-1-2.4v-2.61c0-.95.33-1.73,1-2.4.67-.67,1.47-1,2.4-1s1.73.33,2.4,1c.67.67,1,1.45,1,2.4v2.61c0,.93-.33,1.73-1,2.4ZM277.28,170.72c0-.59-.19-1.09-.61-1.51-.42-.42-.91-.61-1.51-.61s-1.09.19-1.51.61c-.4.42-.61.91-.61,1.51v2.61c0,.58.21,1.08.61,1.49.42.42.93.63,1.51.63s1.09-.21,1.51-.63c.42-.4.61-.91.61-1.49v-2.61ZM287.32,175.8c-.61.61-1.35.93-2.21.93s-1.61-.32-2.22-.93-.91-1.35-.91-2.21v-5.85c0-.12.05-.17.19-.17h.89c.12,0,.19.05.19.17v5.85c0,.51.18.95.54,1.31.37.37.79.54,1.31.54s.95-.17,1.3-.54c.37-.37.56-.81.56-1.31v-5.85c0-.12.05-.17.17-.17h.91c.12,0,.19.05.19.17v5.85c0,.86-.31,1.59-.93,2.21ZM297.94,176.49h-.89c-.12,0-.19-.07-.19-.19v-5.85c0-.51-.17-.94-.54-1.3-.37-.37-.81-.54-1.31-.54s-.95.18-1.31.54c-.35.35-.54.79-.54,1.3v5.85c0,.12-.05.19-.19.19h-.89c-.12,0-.19-.07-.19-.19v-5.85c0-.86.32-1.59.93-2.21.61-.61,1.35-.91,2.21-.91s1.59.3,2.21.91c.61.61.93,1.35.93,2.21v5.85c0,.12-.07.19-.19.19ZM303.09,165.7c-.16.18-.37.26-.61.26-.23,0-.44-.09-.6-.26-.17-.16-.26-.37-.26-.59,0-.25.09-.46.26-.61.16-.17.37-.25.6-.25.25,0,.46.07.61.25.17.16.26.37.26.61,0,.23-.09.44-.26.59ZM302.93,176.49h-.89c-.14,0-.19-.07-.19-.19v-8.55c0-.12.05-.17.19-.17h.89c.12,0,.19.05.19.17v8.55c0,.12-.07.19-.19.19ZM312.01,175.52c-.09.05-.12.14-.1.21,0,.04.04.07.1.14.56.58.84,1.28.84,2.07v2.07c0,.12-.07.19-.19.19h-.89c-.12,0-.19-.07-.19-.19v-2.07c0-.46-.16-.84-.47-1.17-.33-.33-.72-.49-1.21-.49-.93,0-1.72-.33-2.38-1-.67-.67-.98-1.45-.98-2.38v-2.21c0-.93.31-1.72.98-2.38.67-.67,1.45-.98,2.38-.98s1.72.33,2.38,1.02c.67.67,1,1.45,1,2.35v2.21c0,1.1-.42,1.96-1.26,2.63ZM311.99,170.69c0-.58-.21-1.07-.61-1.47-.42-.42-.91-.61-1.49-.61s-1.05.19-1.47.61c-.42.4-.61.89-.61,1.47v2.21c0,.58.19,1.07.61,1.49.4.4.89.61,1.47.61s1.09-.21,1.49-.61c.4-.42.61-.91.61-1.49v-2.21ZM322.34,175.8c-.61.61-1.35.93-2.21.93s-1.61-.32-2.22-.93c-.61-.61-.91-1.35-.91-2.21v-5.85c0-.12.05-.17.19-.17h.89c.12,0,.19.05.19.17v5.85c0,.51.17.95.54,1.31.37.37.79.54,1.31.54s.95-.17,1.3-.54c.37-.37.56-.81.56-1.31v-5.85c0-.12.05-.17.17-.17h.91c.12,0,.19.05.19.17v5.85c0,.86-.31,1.59-.93,2.21ZM332.9,172.6h-4.76c-.12,0-.19.07-.19.19v.54c0,.6.21,1.08.61,1.49.42.42.91.63,1.49.63.73,0,1.4-.21,2-.63.09-.07.18-.05.25.04l.52.75c.07.09.05.19-.05.26-.79.58-1.7.86-2.71.86-.93,0-1.72-.33-2.38-1-.67-.67-1-1.45-1-2.4v-2.8c0-.89.32-1.65.95-2.28.63-.61,1.38-.93,2.26-.93s1.65.32,2.28.95c.63.63.93,1.38.93,2.26v1.87c0,.12-.05.19-.17.19ZM331.79,170.53c0-.53-.17-.98-.56-1.37-.39-.39-.84-.56-1.37-.56s-.98.18-1.35.56c-.39.38-.58.84-.58,1.37v.6c0,.12.07.19.19.19h3.48c.12,0,.17-.07.17-.19v-.6ZM281.52,110.22c-1.46.08-2.8.04-3.48-.65-1.34-2.94.45-5.44,3.27-5.22,5.6.43,2.14,7.48,1.74,11.1-.49,4.37.97,7.28,2.39,9.58,1.05,1.69,2.26,3.83,5.01,3.26.25-1.12.42-2.33.65-3.48-2.27-2.63-4.48-4.5-4.57-8.49-.09-4.11,2.01-7.92-.44-11.54-2.22-3.27-8.99-2.99-9.79,1.31-.65,3.48,2.69,6.6,5.22,4.14ZM308.51,116.31c-.05,1.96-.84,3.85-1.52,5.01-1.27,2.16-4.37,3.6-2.39,6.96,2.76.54,3.95-1.56,5.01-3.26.99-1.6,2.14-3.78,2.39-6.09.56-5.02-3.07-9.64-.87-13.06,2.24-3.48,8.64-.29,5.66,3.92-.71.52-2,.47-3.26.44,3.07,2.4,5.86-.76,5.22-4.14-.96-5.13-7.92-4.07-9.79-1.31-2.36,3.49-.34,7.97-.43,11.54ZM311.99,137.2c-4.96-.46-8.52-7.09-8.92-10.88-.25-2.32.13-3.96.52-5.65-.35.41-.78.75-1.27.98l-.14.51c-.36,1.32-1.56,2.25-2.93,2.25h-3.42c-1.37,0-2.57-.92-2.93-2.25l-.13-.51c-.57-.26-1.05-.67-1.42-1.16.42,2.05.9,3.87.63,6.04-.5,4.07-4.47,10.24-9.14,10.67-5.4.49-8.48,1.24-11.1,3.92-1.07,1.1-2.46,2.95-2.83,5.22-.87,5.3,3.25,10.12,7.83,8.05,1.25-.56,2.92-3.76.65-5.22,1.69,4.97-4.78,5.02-5.88,1.31-1.35-4.56,3.43-8.05,6.96-8.49,1.94-.24,4.24.32,6.75,0,3.34-.42,5.39-2.5,7.4-3.27-1.19,5.79-9.15,7.9-9.14,15.02,0,2.61,1.32,5.75,3.05,6.96,4.92,3.45,12.65-2.91,6.96-6.53,1.94,2.24.83,5.59-2.18,5.88-4.23.4-5.92-4.15-4.57-7.84,1.07-2.9,4.54-3.84,6.75-6.09,2.04-2.09,2.86-4.38,4.14-6.31.79,5.08,7.33,7.77,9.79,11.1,2.1,2.84,1.41,7.91-1.74,8.92-4.24,1.36-6.53-3.22-4.14-5.66-4.17,2.36-.97,7.6,3.27,7.62,4.46.02,6.81-4.16,6.75-8.27-.11-7-8.14-9.05-9.14-15.02h.22c.01.13.03.26.22.22,1.9,1.29,3.95,2.91,7.18,3.27,2.55.28,4.79-.27,6.75,0,2.92.4,5.36,2.48,6.31,4.57,1.33,2.93-.15,7.28-3.7,6.75-2.17-.32-1.83-2.7-1.96-4.14-1.81,1.48-.47,4.62.87,5.22,3.27,1.47,7.27-1.36,7.84-4.35.75-3.95-1.38-7.44-2.83-8.92-2.7-2.76-5.82-3.41-11.32-3.92ZM270.42,128.71c3.32,5.14-4.85,6.3-6.09,1.96-1.39-4.86,3.16-8.2,7.62-7.62,6.67.88,7.87,10.28,14.8,11.1,1.34-1.34,2.35-3.02,3.26-4.79-8.39.45-8.4-8.82-17.41-9.58-3.41-.29-6.87,1.28-8.49,3.05-2.74,2.99-2.65,9.54,1.09,11.54,4.71,2.52,9.95-3.7,5.22-5.66ZM324.4,119.79c-8.3-.7-11.54,7.58-15.89,9.14-.9.32-1.06.42-3.27.44.65,1.96,1.78,3.44,3.05,4.79,7-.86,8.13-10.36,15.02-11.1,4.61-.49,8.92,3.14,7.4,7.84-1.41,4.36-9.67,2.5-6.09-2.18-3.92,2.06-.72,7.15,4.14,6.09,2-.43,3.88-3.12,4.14-4.57,1.17-6.61-3.49-10.03-8.49-10.45ZM297.46,86.26c-6.56.05-11.79,5.36-11.72,11.92.03,3.12,1.28,5.96,3.29,8.05,1.56,1.61,2.57,3.69,2.92,5.89,0,0,0,0,0,.01.14.94.97,1.62,1.92,1.62h7.32c.97,0,1.78-.7,1.93-1.65.02-.1.04-.2.06-.3.38-2.08,1.35-4.03,2.84-5.58,2.05-2.12,3.31-5.01,3.31-8.19,0-6.54-5.32-11.84-11.87-11.8ZM301.65,115.55h-8.23c-.75,0-1.35.6-1.35,1.35v1.4c0,1.12.82,2.04,1.89,2.21l.34,1.27c.19.69.81,1.17,1.53,1.17h3.42c.72,0,1.34-.48,1.53-1.17l.34-1.27c1.06-.16,1.88-1.08,1.88-2.2v-1.4c0-.75-.6-1.35-1.35-1.36Z"/>
  <path class="cls-4" d="M408.86,175.22c-.77.53-1.16,1.23-1.16,2.14v2.38c0,.12-.07.19-.19.19h-.89c-.12,0-.19-.07-.19-.19v-2.38c0-.52.09-.98.26-1.38.05-.16,0-.25-.18-.28-.75-.14-1.37-.51-1.86-1.1-.47-.58-.72-1.26-.72-2.01v-4.83c0-.12.05-.17.19-.17h.89c.12,0,.19.05.19.17v4.83c0,.52.17.96.54,1.33.37.37.81.56,1.33.56s.98-.19,1.35-.56c.35-.37.54-.81.54-1.33v-4.83c0-.12.07-.17.19-.17h.91c.12,0,.19.05.19.17v4.83c0,1.14-.47,2.01-1.42,2.64ZM419.29,175.73c-.67.67-1.45,1-2.4,1s-1.73-.33-2.4-1c-.67-.67-1-1.47-1-2.4v-2.61c0-.95.33-1.73,1-2.4.67-.67,1.47-1,2.4-1s1.73.33,2.4,1c.67.67,1,1.45,1,2.4v2.61c0,.93-.33,1.73-1,2.4ZM419.01,170.72c0-.59-.19-1.09-.61-1.51-.42-.42-.91-.61-1.51-.61s-1.09.19-1.51.61c-.4.42-.61.91-.61,1.51v2.61c0,.58.21,1.08.61,1.49.42.42.93.63,1.51.63s1.09-.21,1.51-.63c.42-.4.61-.91.61-1.49v-2.61ZM429.05,175.8c-.61.61-1.35.93-2.21.93s-1.61-.32-2.22-.93-.91-1.35-.91-2.21v-5.85c0-.12.05-.17.19-.17h.89c.12,0,.19.05.19.17v5.85c0,.51.18.95.54,1.31.37.37.79.54,1.31.54s.95-.17,1.3-.54c.37-.37.56-.81.56-1.31v-5.85c0-.12.05-.17.17-.17h.91c.12,0,.19.05.19.17v5.85c0,.86-.31,1.59-.93,2.21ZM439.68,176.49h-.89c-.12,0-.19-.07-.19-.19v-5.85c0-.51-.17-.94-.54-1.3-.37-.37-.81-.54-1.31-.54s-.95.18-1.31.54c-.35.35-.54.79-.54,1.3v5.85c0,.12-.05.19-.19.19h-.89c-.12,0-.19-.07-.19-.19v-5.85c0-.86.32-1.59.93-2.21.61-.61,1.35-.91,2.21-.91s1.59.3,2.21.91c.61.61.93,1.35.93,2.21v5.85c0,.12-.07.19-.19.19ZM444.82,165.7c-.16.18-.37.26-.61.26-.23,0-.44-.09-.6-.26-.17-.16-.26-.37-.26-.59,0-.25.09-.46.26-.61.16-.17.37-.25.6-.25.25,0,.46.07.61.25.17.16.26.37.26.61,0,.23-.09.44-.26.59ZM444.67,176.49h-.89c-.14,0-.19-.07-.19-.19v-8.55c0-.12.05-.17.19-.17h.89c.12,0,.19.05.19.17v8.55c0,.12-.07.19-.19.19ZM453.74,175.52c-.09.05-.12.14-.1.21,0,.04.04.07.1.14.56.58.84,1.28.84,2.07v2.07c0,.12-.07.19-.19.19h-.89c-.12,0-.19-.07-.19-.19v-2.07c0-.46-.16-.84-.47-1.17-.33-.33-.72-.49-1.21-.49-.93,0-1.72-.33-2.38-1-.67-.67-.98-1.45-.98-2.38v-2.21c0-.93.31-1.72.98-2.38.67-.67,1.45-.98,2.38-.98s1.72.33,2.38,1.02c.67.67,1,1.45,1,2.35v2.21c0,1.1-.42,1.96-1.26,2.63ZM453.72,170.69c0-.58-.21-1.07-.61-1.47-.42-.42-.91-.61-1.49-.61s-1.05.19-1.47.61c-.42.4-.61.89-.61,1.47v2.21c0,.58.19,1.07.61,1.49.4.4.89.61,1.47.61s1.09-.21,1.49-.61c.4-.42.61-.91.61-1.49v-2.21ZM464.07,175.8c-.61.61-1.35.93-2.21.93s-1.61-.32-2.22-.93c-.61-.61-.91-1.35-.91-2.21v-5.85c0-.12.05-.17.19-.17h.89c.12,0,.19.05.19.17v5.85c0,.51.17.95.54,1.31.37.37.79.54,1.31.54s.95-.17,1.3-.54c.37-.37.56-.81.56-1.31v-5.85c0-.12.05-.17.17-.17h.91c.12,0,.19.05.19.17v5.85c0,.86-.31,1.59-.93,2.21ZM474.63,172.6h-4.76c-.12,0-.19.07-.19.19v.54c0,.6.21,1.08.61,1.49.42.42.91.63,1.49.63.73,0,1.4-.21,2-.63.09-.07.18-.05.25.04l.52.75c.07.09.05.19-.05.26-.79.58-1.7.86-2.71.86-.93,0-1.72-.33-2.38-1-.67-.67-1-1.45-1-2.4v-2.8c0-.89.32-1.65.95-2.28.63-.61,1.38-.93,2.26-.93s1.65.32,2.28.95c.63.63.93,1.38.93,2.26v1.87c0,.12-.05.19-.17.19ZM473.52,170.53c0-.53-.17-.98-.56-1.37-.39-.39-.84-.56-1.37-.56s-.98.18-1.35.56c-.39.38-.58.84-.58,1.37v.6c0,.12.07.19.19.19h3.48c.12,0,.17-.07.17-.19v-.6ZM423.25,110.22c-1.46.08-2.8.04-3.48-.65-1.34-2.94.45-5.44,3.27-5.22,5.6.43,2.14,7.48,1.74,11.1-.49,4.37.97,7.28,2.39,9.58,1.05,1.69,2.26,3.83,5.01,3.26.25-1.12.42-2.33.65-3.48-2.27-2.63-4.48-4.5-4.57-8.49-.09-4.11,2.01-7.92-.44-11.54-2.22-3.27-8.99-2.99-9.79,1.31-.65,3.48,2.69,6.6,5.22,4.14ZM450.24,116.31c-.05,1.96-.84,3.85-1.52,5.01-1.27,2.16-4.37,3.6-2.39,6.96,2.76.54,3.95-1.56,5.01-3.26.99-1.6,2.14-3.78,2.39-6.09.56-5.02-3.07-9.64-.87-13.06,2.24-3.48,8.64-.29,5.66,3.92-.71.52-2,.47-3.26.44,3.07,2.4,5.86-.76,5.22-4.14-.96-5.13-7.92-4.07-9.79-1.31-2.36,3.49-.34,7.97-.43,11.54ZM453.73,137.2c-4.96-.46-8.52-7.09-8.92-10.88-.25-2.32.13-3.96.52-5.65-.35.41-.78.75-1.27.98l-.14.51c-.36,1.32-1.56,2.25-2.93,2.25h-3.42c-1.37,0-2.57-.92-2.93-2.25l-.13-.51c-.57-.26-1.05-.67-1.42-1.16.42,2.05.9,3.87.63,6.04-.5,4.07-4.47,10.24-9.14,10.67-5.4.49-8.48,1.24-11.1,3.92-1.07,1.1-2.46,2.95-2.83,5.22-.87,5.3,3.25,10.12,7.83,8.05,1.25-.56,2.92-3.76.65-5.22,1.69,4.97-4.78,5.02-5.88,1.31-1.35-4.56,3.43-8.05,6.96-8.49,1.94-.24,4.24.32,6.75,0,3.34-.42,5.39-2.5,7.4-3.27-1.19,5.79-9.15,7.9-9.14,15.02,0,2.61,1.32,5.75,3.05,6.96,4.92,3.45,12.65-2.91,6.96-6.53,1.94,2.24.83,5.59-2.18,5.88-4.23.4-5.92-4.15-4.57-7.84,1.07-2.9,4.54-3.84,6.75-6.09,2.04-2.09,2.86-4.38,4.14-6.31.79,5.08,7.33,7.77,9.79,11.1,2.1,2.84,1.41,7.91-1.74,8.92-4.24,1.36-6.53-3.22-4.14-5.66-4.17,2.36-.97,7.6,3.27,7.62,4.46.02,6.81-4.16,6.75-8.27-.11-7-8.14-9.05-9.14-15.02h.22c.01.13.03.26.22.22,1.9,1.29,3.95,2.91,7.18,3.27,2.55.28,4.79-.27,6.75,0,2.92.4,5.36,2.48,6.31,4.57,1.33,2.93-.15,7.28-3.7,6.75-2.17-.32-1.83-2.7-1.96-4.14-1.81,1.48-.47,4.62.87,5.22,3.27,1.47,7.27-1.36,7.84-4.35.75-3.95-1.38-7.44-2.83-8.92-2.7-2.76-5.82-3.41-11.32-3.92ZM412.15,128.71c3.32,5.14-4.85,6.3-6.09,1.96-1.39-4.86,3.16-8.2,7.62-7.62,6.67.88,7.87,10.28,14.8,11.1,1.34-1.34,2.35-3.02,3.26-4.79-8.39.45-8.4-8.82-17.41-9.58-3.41-.29-6.87,1.28-8.49,3.05-2.74,2.99-2.65,9.54,1.09,11.54,4.71,2.52,9.95-3.7,5.22-5.66ZM466.13,119.79c-8.3-.7-11.54,7.58-15.89,9.14-.9.32-1.06.42-3.27.44.65,1.96,1.78,3.44,3.05,4.79,7-.86,8.13-10.36,15.02-11.1,4.61-.49,8.92,3.14,7.4,7.84-1.41,4.36-9.67,2.5-6.09-2.18-3.92,2.06-.72,7.15,4.14,6.09,2-.43,3.88-3.12,4.14-4.57,1.17-6.61-3.49-10.03-8.49-10.45ZM439.19,86.26c-6.56.05-11.79,5.36-11.72,11.92.03,3.12,1.28,5.96,3.29,8.05,1.56,1.61,2.57,3.69,2.92,5.89,0,0,0,0,0,.01.14.94.97,1.62,1.92,1.62h7.32c.97,0,1.78-.7,1.93-1.65.02-.1.04-.2.06-.3.38-2.08,1.35-4.03,2.84-5.58,2.05-2.12,3.31-5.01,3.31-8.19,0-6.54-5.32-11.84-11.87-11.8ZM443.38,115.55h-8.23c-.75,0-1.35.6-1.35,1.35v1.4c0,1.12.82,2.04,1.89,2.21l.34,1.27c.19.69.81,1.17,1.53,1.17h3.42c.72,0,1.34-.48,1.53-1.17l.34-1.27c1.06-.16,1.88-1.08,1.88-2.2v-1.4c0-.75-.6-1.35-1.35-1.36Z"/>
  <path class="cls-1" d="M125.39,175.22c-.77.53-1.16,1.23-1.16,2.14v2.38c0,.12-.07.19-.19.19h-.89c-.12,0-.19-.07-.19-.19v-2.38c0-.52.09-.98.26-1.38.05-.16,0-.25-.18-.28-.75-.14-1.37-.51-1.86-1.1-.47-.58-.72-1.26-.72-2.01v-4.83c0-.12.05-.17.19-.17h.89c.12,0,.19.05.19.17v4.83c0,.52.17.96.54,1.33.37.37.81.56,1.33.56s.98-.19,1.35-.56c.35-.37.54-.81.54-1.33v-4.83c0-.12.07-.17.19-.17h.91c.12,0,.19.05.19.17v4.83c0,1.14-.47,2.01-1.42,2.64ZM135.83,175.73c-.67.67-1.45,1-2.4,1s-1.73-.33-2.4-1c-.67-.67-1-1.47-1-2.4v-2.61c0-.95.33-1.73,1-2.4.67-.67,1.47-1,2.4-1s1.73.33,2.4,1c.67.67,1,1.45,1,2.4v2.61c0,.93-.33,1.73-1,2.4ZM135.55,170.72c0-.59-.19-1.09-.61-1.51-.42-.42-.91-.61-1.51-.61s-1.09.19-1.51.61c-.4.42-.61.91-.61,1.51v2.61c0,.58.21,1.08.61,1.49.42.42.93.63,1.51.63s1.09-.21,1.51-.63c.42-.4.61-.91.61-1.49v-2.61ZM145.58,175.8c-.61.61-1.35.93-2.21.93s-1.61-.32-2.22-.93-.91-1.35-.91-2.21v-5.85c0-.12.05-.17.19-.17h.89c.12,0,.19.05.19.17v5.85c0,.51.18.95.54,1.31.37.37.79.54,1.31.54s.95-.17,1.3-.54c.37-.37.56-.81.56-1.31v-5.85c0-.12.05-.17.17-.17h.91c.12,0,.19.05.19.17v5.85c0,.86-.31,1.59-.93,2.21ZM156.21,176.49h-.89c-.12,0-.19-.07-.19-.19v-5.85c0-.51-.17-.94-.54-1.3-.37-.37-.81-.54-1.31-.54s-.95.18-1.31.54c-.35.35-.54.79-.54,1.3v5.85c0,.12-.05.19-.19.19h-.89c-.12,0-.19-.07-.19-.19v-5.85c0-.86.32-1.59.93-2.21.61-.61,1.35-.91,2.21-.91s1.59.3,2.21.91c.61.61.93,1.35.93,2.21v5.85c0,.12-.07.19-.19.19ZM161.36,165.7c-.16.18-.37.26-.61.26-.23,0-.44-.09-.6-.26-.17-.16-.26-.37-.26-.59,0-.25.09-.46.26-.61.16-.17.37-.25.6-.25.25,0,.46.07.61.25.17.16.26.37.26.61,0,.23-.09.44-.26.59ZM161.2,176.49h-.89c-.14,0-.19-.07-.19-.19v-8.55c0-.12.05-.17.19-.17h.89c.12,0,.19.05.19.17v8.55c0,.12-.07.19-.19.19ZM170.27,175.52c-.09.05-.12.14-.1.21,0,.04.04.07.1.14.56.58.84,1.28.84,2.07v2.07c0,.12-.07.19-.19.19h-.89c-.12,0-.19-.07-.19-.19v-2.07c0-.46-.16-.84-.47-1.17-.33-.33-.72-.49-1.21-.49-.93,0-1.72-.33-2.38-1-.67-.67-.98-1.45-.98-2.38v-2.21c0-.93.31-1.72.98-2.38.67-.67,1.45-.98,2.38-.98s1.72.33,2.38,1.02c.67.67,1,1.45,1,2.35v2.21c0,1.1-.42,1.96-1.26,2.63ZM170.26,170.69c0-.58-.21-1.07-.61-1.47-.42-.42-.91-.61-1.49-.61s-1.05.19-1.47.61c-.42.4-.61.89-.61,1.47v2.21c0,.58.19,1.07.61,1.49.4.4.89.61,1.47.61s1.09-.21,1.49-.61c.4-.42.61-.91.61-1.49v-2.21ZM180.6,175.8c-.61.61-1.35.93-2.21.93s-1.61-.32-2.22-.93c-.61-.61-.91-1.35-.91-2.21v-5.85c0-.12.05-.17.19-.17h.89c.12,0,.19.05.19.17v5.85c0,.51.17.95.54,1.31.37.37.79.54,1.31.54s.95-.17,1.3-.54c.37-.37.56-.81.56-1.31v-5.85c0-.12.05-.17.17-.17h.91c.12,0,.19.05.19.17v5.85c0,.86-.31,1.59-.93,2.21ZM191.16,172.6h-4.76c-.12,0-.19.07-.19.19v.54c0,.6.21,1.08.61,1.49.42.42.91.63,1.49.63.73,0,1.4-.21,2-.63.09-.07.18-.05.25.04l.52.75c.07.09.05.19-.05.26-.79.58-1.7.86-2.71.86-.93,0-1.72-.33-2.38-1-.67-.67-1-1.45-1-2.4v-2.8c0-.89.32-1.65.95-2.28.63-.61,1.38-.93,2.26-.93s1.65.32,2.28.95c.63.63.93,1.38.93,2.26v1.87c0,.12-.05.19-.17.19ZM190.06,170.53c0-.53-.17-.98-.56-1.37-.39-.39-.84-.56-1.37-.56s-.98.18-1.35.56c-.39.38-.58.84-.58,1.37v.6c0,.12.07.19.19.19h3.48c.12,0,.17-.07.17-.19v-.6ZM139.79,110.22c-1.46.08-2.8.04-3.48-.65-1.34-2.94.45-5.44,3.27-5.22,5.6.43,2.14,7.48,1.74,11.1-.49,4.37.97,7.28,2.39,9.58,1.05,1.69,2.26,3.83,5.01,3.26.25-1.12.42-2.33.65-3.48-2.27-2.63-4.48-4.5-4.57-8.49-.09-4.11,2.01-7.92-.44-11.54-2.22-3.27-8.99-2.99-9.79,1.31-.65,3.48,2.69,6.6,5.22,4.14ZM166.78,116.31c-.05,1.96-.84,3.85-1.52,5.01-1.27,2.16-4.37,3.6-2.39,6.96,2.76.54,3.95-1.56,5.01-3.26.99-1.6,2.14-3.78,2.39-6.09.56-5.02-3.07-9.64-.87-13.06,2.24-3.48,8.64-.29,5.66,3.92-.71.52-2,.47-3.26.44,3.07,2.4,5.86-.76,5.22-4.14-.96-5.13-7.92-4.07-9.79-1.31-2.36,3.49-.34,7.97-.43,11.54ZM170.26,137.2c-4.96-.46-8.52-7.09-8.92-10.88-.25-2.32.13-3.96.52-5.65-.35.41-.78.75-1.27.98l-.14.51c-.36,1.32-1.56,2.25-2.93,2.25h-3.42c-1.37,0-2.57-.92-2.93-2.25l-.13-.51c-.57-.26-1.05-.67-1.42-1.16.42,2.05.9,3.87.63,6.04-.5,4.07-4.47,10.24-9.14,10.67-5.4.49-8.48,1.24-11.1,3.92-1.07,1.1-2.46,2.95-2.83,5.22-.87,5.3,3.25,10.12,7.83,8.05,1.25-.56,2.92-3.76.65-5.22,1.69,4.97-4.78,5.02-5.88,1.31-1.35-4.56,3.43-8.05,6.96-8.49,1.94-.24,4.24.32,6.75,0,3.34-.42,5.39-2.5,7.4-3.27-1.19,5.79-9.15,7.9-9.14,15.02,0,2.61,1.32,5.75,3.05,6.96,4.92,3.45,12.65-2.91,6.96-6.53,1.94,2.24.83,5.59-2.18,5.88-4.23.4-5.92-4.15-4.57-7.84,1.07-2.9,4.54-3.84,6.75-6.09,2.04-2.09,2.86-4.38,4.14-6.31.79,5.08,7.33,7.77,9.79,11.1,2.1,2.84,1.41,7.91-1.74,8.92-4.24,1.36-6.53-3.22-4.14-5.66-4.17,2.36-.97,7.6,3.27,7.62,4.46.02,6.81-4.16,6.75-8.27-.11-7-8.14-9.05-9.14-15.02h.22c.01.13.03.26.22.22,1.9,1.29,3.95,2.91,7.18,3.27,2.55.28,4.79-.27,6.75,0,2.92.4,5.36,2.48,6.31,4.57,1.33,2.93-.15,7.28-3.7,6.75-2.17-.32-1.83-2.7-1.96-4.14-1.81,1.48-.47,4.62.87,5.22,3.27,1.47,7.27-1.36,7.84-4.35.75-3.95-1.38-7.44-2.83-8.92-2.7-2.76-5.82-3.41-11.32-3.92ZM128.69,128.71c3.32,5.14-4.85,6.3-6.09,1.96-1.39-4.86,3.16-8.2,7.62-7.62,6.67.88,7.87,10.28,14.8,11.1,1.34-1.34,2.35-3.02,3.26-4.79-8.39.45-8.4-8.82-17.41-9.58-3.41-.29-6.87,1.28-8.49,3.05-2.74,2.99-2.65,9.54,1.09,11.54,4.71,2.52,9.95-3.7,5.22-5.66ZM182.67,119.79c-8.3-.7-11.54,7.58-15.89,9.14-.9.32-1.06.42-3.27.44.65,1.96,1.78,3.44,3.05,4.79,7-.86,8.13-10.36,15.02-11.1,4.61-.49,8.92,3.14,7.4,7.84-1.41,4.36-9.67,2.5-6.09-2.18-3.92,2.06-.72,7.15,4.14,6.09,2-.43,3.88-3.12,4.14-4.57,1.17-6.61-3.49-10.03-8.49-10.45ZM155.73,86.26c-6.56.05-11.79,5.36-11.72,11.92.03,3.12,1.28,5.96,3.29,8.05,1.56,1.61,2.57,3.69,2.92,5.89,0,0,0,0,0,.01.14.94.97,1.62,1.92,1.62h7.32c.97,0,1.78-.7,1.93-1.65.02-.1.04-.2.06-.3.38-2.08,1.35-4.03,2.84-5.58,2.05-2.12,3.31-5.01,3.31-8.19,0-6.54-5.32-11.84-11.87-11.8ZM159.92,115.55h-8.23c-.75,0-1.35.6-1.35,1.35v1.4c0,1.12.82,2.04,1.89,2.21l.34,1.27c.19.69.81,1.17,1.53,1.17h3.42c.72,0,1.34-.48,1.53-1.17l.34-1.27c1.06-.16,1.88-1.08,1.88-2.2v-1.4c0-.75-.6-1.35-1.35-1.36Z"/>
  <g>
    <path class="cls-2" d="M236.61,506.36c-1.54,1.05-2.31,2.45-2.31,4.27v4.76c0,.25-.14.38-.39.38h-1.79c-.25,0-.39-.14-.39-.38v-4.76c0-1.05.17-1.96.53-2.77.1-.31,0-.49-.35-.56-1.51-.28-2.73-1.02-3.71-2.2-.95-1.16-1.44-2.52-1.44-4.03v-9.67c0-.24.11-.35.38-.35h1.79c.25,0,.39.11.39.35v9.67c0,1.05.35,1.93,1.08,2.66.74.74,1.61,1.12,2.66,1.12s1.96-.38,2.7-1.12c.7-.74,1.08-1.61,1.08-2.66v-9.67c0-.24.14-.35.38-.35h1.82c.25,0,.39.11.39.35v9.67c0,2.28-.95,4.03-2.84,5.29Z"/>
    <path class="cls-2" d="M257.49,507.37c-1.33,1.33-2.91,2-4.8,2s-3.47-.67-4.8-2c-1.33-1.33-2-2.94-2-4.8v-5.22c0-1.89.66-3.47,2-4.8,1.33-1.33,2.94-2,4.8-2s3.47.67,4.8,2c1.33,1.33,2,2.91,2,4.8v5.22c0,1.86-.67,3.47-2,4.8ZM256.92,497.35c0-1.19-.38-2.17-1.22-3.01-.84-.84-1.82-1.23-3.01-1.23s-2.17.39-3.01,1.23c-.81.84-1.23,1.82-1.23,3.01v5.22c0,1.16.42,2.17,1.23,2.98.84.84,1.86,1.26,3.01,1.26s2.17-.42,3.01-1.26c.84-.81,1.22-1.82,1.22-2.98v-5.22Z"/>
    <path class="cls-2" d="M276.99,507.51c-1.23,1.22-2.7,1.86-4.41,1.86s-3.22-.63-4.45-1.86-1.82-2.7-1.82-4.41v-11.7c0-.24.1-.35.38-.35h1.79c.25,0,.38.11.38.35v11.7c0,1.02.35,1.89,1.09,2.63.74.74,1.58,1.08,2.63,1.08s1.89-.35,2.59-1.08c.73-.74,1.12-1.61,1.12-2.63v-11.7c0-.24.1-.35.35-.35h1.82c.24,0,.38.11.38.35v11.7c0,1.71-.63,3.19-1.86,4.41Z"/>
    <path class="cls-2" d="M298.25,508.88h-1.79c-.25,0-.39-.14-.39-.38v-11.7c0-1.02-.35-1.89-1.09-2.59-.73-.74-1.61-1.09-2.63-1.09s-1.89.35-2.63,1.09c-.7.7-1.09,1.58-1.09,2.59v11.7c0,.24-.11.38-.38.38h-1.79c-.25,0-.39-.14-.39-.38v-11.7c0-1.71.63-3.19,1.86-4.41,1.23-1.22,2.7-1.82,4.41-1.82s3.19.6,4.41,1.82c1.22,1.23,1.86,2.7,1.86,4.41v11.7c0,.24-.14.38-.38.38Z"/>
    <path class="cls-2" d="M308.55,487.3c-.32.35-.74.53-1.23.53-.46,0-.88-.17-1.19-.53-.35-.31-.53-.73-.53-1.19,0-.49.18-.91.53-1.23.31-.35.73-.49,1.19-.49.49,0,.91.14,1.23.49.35.32.53.74.53,1.23,0,.46-.18.88-.53,1.19ZM308.23,508.88h-1.79c-.28,0-.38-.14-.38-.38v-17.09c0-.24.11-.35.38-.35h1.79c.25,0,.39.11.39.35v17.09c0,.24-.14.38-.39.38Z"/>
    <path class="cls-2" d="M326.37,506.95c-.17.11-.25.28-.21.42,0,.07.07.14.21.28,1.12,1.16,1.68,2.56,1.68,4.13v4.13c0,.25-.14.38-.39.38h-1.79c-.25,0-.39-.14-.39-.38v-4.13c0-.91-.32-1.68-.95-2.35-.66-.67-1.44-.98-2.42-.98-1.86,0-3.43-.67-4.76-2-1.33-1.33-1.96-2.91-1.96-4.76v-4.41c0-1.86.63-3.43,1.96-4.76,1.33-1.33,2.91-1.96,4.76-1.96s3.43.67,4.76,2.03c1.33,1.33,2,2.91,2,4.69v4.41c0,2.21-.84,3.92-2.52,5.25ZM326.34,497.28c0-1.15-.42-2.14-1.23-2.94-.84-.84-1.82-1.23-2.98-1.23s-2.1.39-2.94,1.23c-.84.81-1.22,1.79-1.22,2.94v4.41c0,1.16.38,2.14,1.22,2.98.81.81,1.79,1.23,2.94,1.23s2.17-.42,2.98-1.23c.81-.84,1.23-1.82,1.23-2.98v-4.41Z"/>
    <path class="cls-2" d="M347.04,507.51c-1.23,1.22-2.7,1.86-4.41,1.86s-3.22-.63-4.45-1.86c-1.23-1.23-1.82-2.7-1.82-4.41v-11.7c0-.24.11-.35.39-.35h1.79c.25,0,.38.11.38.35v11.7c0,1.02.35,1.89,1.09,2.63.74.74,1.58,1.08,2.63,1.08s1.89-.35,2.59-1.08c.73-.74,1.12-1.61,1.12-2.63v-11.7c0-.24.1-.35.35-.35h1.82c.25,0,.38.11.38.35v11.7c0,1.71-.63,3.19-1.86,4.41Z"/>
    <path class="cls-2" d="M368.15,501.1h-9.53c-.24,0-.38.14-.38.39v1.09c0,1.19.42,2.17,1.22,2.98.84.84,1.82,1.26,2.98,1.26,1.47,0,2.8-.42,3.99-1.26.17-.14.35-.11.49.07l1.05,1.51c.14.17.11.38-.1.52-1.58,1.16-3.4,1.72-5.43,1.72-1.86,0-3.43-.67-4.76-2-1.33-1.33-2-2.91-2-4.8v-5.6c0-1.79.63-3.29,1.89-4.55,1.26-1.22,2.77-1.86,4.52-1.86s3.29.63,4.55,1.89c1.26,1.26,1.86,2.77,1.86,4.52v3.75c0,.24-.11.38-.35.38ZM365.95,496.97c0-1.05-.35-1.96-1.12-2.73-.77-.77-1.68-1.12-2.73-1.12s-1.96.35-2.7,1.12c-.77.77-1.16,1.68-1.16,2.73v1.19c0,.25.14.39.38.39h6.97c.25,0,.35-.14.35-.39v-1.19Z"/>
  </g>
  <path class="cls-2" d="M265.41,376.34c-2.93.17-5.6.08-6.97-1.31-2.68-5.89.9-10.88,6.53-10.45,11.19.85,4.29,14.96,3.48,22.2-.97,8.73,1.94,14.56,4.79,19.15,2.1,3.39,4.53,7.65,10.01,6.53.51-2.25.85-4.66,1.3-6.96-4.54-5.26-8.96-9-9.14-16.98-.19-8.22,4.02-15.84-.87-23.07-4.43-6.54-17.97-5.99-19.59,2.61-1.31,6.95,5.39,13.2,10.45,8.27Z"/>
  <path class="cls-2" d="M319.38,388.52c-.1,3.92-1.69,7.7-3.05,10.01-2.55,4.33-8.73,7.2-4.79,13.93,5.52,1.09,7.9-3.12,10.01-6.53,1.98-3.19,4.27-7.56,4.79-12.19,1.11-10.04-6.14-19.27-1.74-26.12,4.48-6.97,17.27-.57,11.32,7.83-1.42,1.05-4,.94-6.53.87,6.14,4.79,11.71-1.53,10.45-8.27-1.93-10.25-15.84-8.15-19.59-2.61-4.72,6.97-.69,15.94-.87,23.07Z"/>
  <path class="cls-2" d="M326.35,430.31c-9.92-.92-17.03-14.18-17.85-21.77-.5-4.63.26-7.93,1.03-11.3-.69.83-1.56,1.51-2.55,1.97l-.28,1.01c-.72,2.64-3.13,4.49-5.86,4.49h-6.84c-2.73,0-5.14-1.85-5.86-4.49l-.27-1.01c-1.14-.52-2.1-1.33-2.83-2.32.85,4.09,1.79,7.73,1.25,12.08-1.01,8.14-8.94,20.48-18.28,21.33-10.8.98-16.96,2.47-22.2,7.83-2.14,2.2-4.91,5.89-5.66,10.45-1.74,10.6,6.5,20.23,15.67,16.11,2.49-1.12,5.84-7.52,1.31-10.45,3.37,9.94-9.56,10.03-11.75,2.61-2.7-9.12,6.85-16.11,13.93-16.98,3.87-.47,8.48.64,13.49,0,6.68-.85,10.78-4.99,14.8-6.53-2.38,11.58-18.3,15.8-18.28,30.04,0,5.21,2.64,11.5,6.1,13.93,9.83,6.9,25.3-5.82,13.93-13.06,3.88,4.49,1.67,11.18-4.35,11.75-8.47.81-11.85-8.3-9.14-15.67,2.13-5.8,9.08-7.67,13.49-12.19,4.09-4.18,5.73-8.77,8.27-12.62,1.58,10.17,14.66,15.55,19.59,22.2,4.2,5.67,2.82,15.83-3.48,17.85-8.48,2.72-13.06-6.44-8.27-11.32-8.33,4.72-1.93,15.2,6.53,15.24,8.92.04,13.63-8.32,13.49-16.54-.23-14-16.28-18.1-18.28-30.04h.44c.03.27.07.52.44.44,3.79,2.57,7.91,5.81,14.37,6.53,5.11.57,9.58-.54,13.49,0,5.83.8,10.73,4.97,12.62,9.14,2.67,5.86-.29,14.56-7.4,13.49-4.33-.65-3.66-5.4-3.92-8.27-3.61,2.97-.95,9.24,1.74,10.45,6.54,2.94,14.54-2.72,15.67-8.71,1.5-7.9-2.75-14.88-5.66-17.85-5.4-5.52-11.63-6.82-22.63-7.83Z"/>
  <path class="cls-2" d="M243.21,413.33c6.64,10.29-9.7,12.59-12.19,3.92-2.79-9.73,6.32-16.41,15.24-15.24,13.35,1.76,15.74,20.56,29.6,22.2,2.68-2.69,4.69-6.04,6.53-9.58-16.78.9-16.8-17.64-34.83-19.15-6.82-.57-13.73,2.56-16.98,6.09-5.48,5.97-5.29,19.08,2.18,23.07,9.43,5.04,19.9-7.41,10.45-11.32Z"/>
  <path class="cls-2" d="M351.16,395.49c-16.6-1.39-23.08,15.16-31.78,18.28-1.79.64-2.12.84-6.53.87,1.29,3.93,3.56,6.88,6.09,9.58,14-1.72,16.26-20.73,30.04-22.2,9.21-.98,17.83,6.29,14.8,15.67-2.82,8.71-19.34,5-12.19-4.35-7.83,4.11-1.43,14.3,8.27,12.19,4-.87,7.76-6.25,8.27-9.14,2.35-13.22-6.98-20.05-16.98-20.89Z"/>
  <g>
    <path class="cls-2" d="M297.28,328.42c-13.13.1-23.57,10.72-23.43,23.85.06,6.25,2.56,11.92,6.58,16.1,3.12,3.21,5.14,7.39,5.83,11.79,0,0,0,.02,0,.02.29,1.88,1.94,3.25,3.84,3.25h14.64c1.93,0,3.57-1.4,3.86-3.29.03-.2.08-.4.11-.59.75-4.17,2.71-8.07,5.68-11.15,4.1-4.24,6.62-10.01,6.62-16.38,0-13.09-10.64-23.69-23.75-23.59Z"/>
    <path class="cls-2" d="M305.66,387.02h-16.46c-1.5,0-2.7,1.2-2.7,2.7v2.8c0,2.25,1.64,4.08,3.78,4.42l.67,2.54c.37,1.38,1.62,2.35,3.05,2.35h6.84c1.44,0,2.68-.97,3.05-2.35l.69-2.54c2.13-.32,3.77-2.17,3.77-4.4v-2.8c0-1.5-1.2-2.7-2.7-2.72Z"/>
  </g>
</svg>