<?xml version="1.0" encoding="UTF-8"?>
<svg id="Ebene_1" xmlns="http://www.w3.org/2000/svg" version="1.1" viewBox="0 0 1080 1080">
  <!-- Generator: Adobe Illustrator 29.5.1, SVG Export Plug-In . SVG Version: 2.1.0 Build 141)  -->
  <defs>
    <style>
      .st0 {
        fill: #fff;
      }
    </style>
  </defs>
  <g id="Ebene_11" data-name="Ebene_1">
    <path class="st0" d="M316,345.3c-20.6,1.2-39.4.6-49-9.2-18.9-41.4,6.3-76.5,45.9-73.5,78.7,6,30.2,105.2,24.5,156.2-6.8,61.4,13.6,102.4,33.7,134.7,14.8,23.8,31.9,53.8,70.4,45.9,3.6-15.8,6-32.8,9.1-49-31.9-37-63-63.3-64.3-119.4-1.3-57.8,28.3-111.4-6.1-162.3-31.2-46-126.4-42.1-137.8,18.4-9.2,48.9,37.9,92.9,73.5,58.2h0c0,0,0,0,0,0ZM695.7,431c-.7,27.6-11.9,54.2-21.5,70.4-17.9,30.5-61.4,50.7-33.7,98,38.8,7.7,55.6-22,70.4-45.9,13.9-22.4,30-53.2,33.7-85.8,7.8-70.6-43.2-135.5-12.2-183.7,31.5-49,121.5-4,79.6,55.1-10,7.4-28.1,6.6-45.9,6.1,43.2,33.7,82.4-10.8,73.5-58.2-13.6-72.1-111.4-57.3-137.8-18.4-33.2,49-4.8,112.1-6.1,162.3h0c0,0,0,0,0,0ZM744.6,725c-69.8-6.5-119.8-99.8-125.6-153.1-3.5-32.6,1.8-55.8,7.2-79.5-4.8,5.8-11,10.6-17.9,13.9l-2,7.1c-5.1,18.6-22,31.6-41.2,31.6h-48.1c-19.2,0-36.2-13-41.2-31.6l-1.9-7.1c-8-3.7-14.8-9.4-19.9-16.3,6,28.8,12.6,54.4,8.8,85-7.1,57.3-62.9,144.1-128.6,150-76,6.9-119.3,17.4-156.2,55.1-15.1,15.5-34.5,41.4-39.8,73.5-12.2,74.6,45.7,142.3,110.2,113.3,17.5-7.9,41.1-52.9,9.2-73.5,23.7,69.9-67.2,70.5-82.6,18.4-19-64.2,48.2-113.3,98-119.4,27.2-3.3,59.6,4.5,94.9,0,47-6,75.8-35.1,104.1-45.9-16.7,81.5-128.7,111.1-128.6,211.3,0,36.7,18.6,80.9,42.9,98,69.1,48.5,178-40.9,98-91.9,27.3,31.6,11.8,78.6-30.6,82.7-59.6,5.7-83.4-58.4-64.3-110.2,15-40.8,63.9-54,94.9-85.8,28.8-29.4,40.3-61.7,58.2-88.8,11.1,71.5,103.1,109.4,137.8,156.2,29.5,39.9,19.8,111.3-24.5,125.6-59.7,19.1-91.9-45.3-58.2-79.6-58.6,33.2-13.6,106.9,45.9,107.2,62.8.3,95.9-58.5,94.9-116.3-1.6-98.5-114.5-127.3-128.6-211.3h3.1c.2,1.9.5,3.7,3.1,3.1,26.7,18.1,55.6,40.9,101.1,45.9,36,4,67.4-3.8,94.9,0,41,5.6,75.5,35,88.8,64.3,18.8,41.2-2,102.4-52,94.9-30.5-4.6-25.8-38-27.6-58.2-25.4,20.9-6.7,65,12.2,73.5,46,20.7,102.3-19.1,110.2-61.3,10.5-55.6-19.3-104.7-39.8-125.6-38-38.8-81.8-48-159.2-55.1h0c0,0,0,0,0,0ZM159.8,605.6c46.7,72.4-68.2,88.6-85.8,27.6-19.6-68.4,44.5-115.4,107.2-107.2,93.9,12.4,110.7,144.6,208.2,156.2,18.9-18.9,33-42.5,45.9-67.4-118,6.3-118.2-124.1-245-134.7-48-4-96.6,18-119.4,42.8-38.5,42-37.2,134.2,15.3,162.3,66.3,35.5,140-52.1,73.5-79.6h0c0,0,0,0,0,0ZM919.2,480c-116.8-9.8-162.3,106.6-223.5,128.6-12.6,4.5-14.9,5.9-45.9,6.1,9.1,27.6,25,48.4,42.8,67.4,98.5-12.1,114.4-145.8,211.3-156.2,64.8-6.9,125.4,44.2,104.1,110.2-19.8,61.3-136,35.2-85.8-30.6-55.1,28.9-10.1,100.6,58.2,85.8,28.1-6.1,54.6-44,58.2-64.3,16.5-93-49.1-141-119.4-146.9h0ZM540.2,8.3c-92.4.7-165.8,75.4-164.8,167.8.4,44,18,83.8,46.3,113.2,22,22.6,36.2,52,41,82.9h0c2,13.4,13.6,23,27,23h103c13.6,0,25.1-9.9,27.2-23.1.2-1.4.6-2.8.8-4.1,5.3-29.3,19.1-56.8,40-78.4,28.8-29.8,46.6-70.4,46.6-115.2,0-92.1-74.8-166.6-167.1-165.9h.1c0,0,0,0,0,0ZM599,420.4h-115.8c-10.5,0-19,8.4-19,19v19.7c0,15.8,11.5,28.7,26.6,31.1l4.7,17.9c2.6,9.7,11.4,16.5,21.5,16.5h48.1c10.1,0,18.8-6.8,21.5-16.5l4.8-17.9c15-2.2,26.5-15.3,26.5-31v-19.7c0-10.5-8.4-19-19-19.1h0,0Z"/>
  </g>
</svg>