<?xml version="1.0" encoding="UTF-8"?><svg id="Ebene_1" xmlns="http://www.w3.org/2000/svg" xmlns:xlink="http://www.w3.org/1999/xlink" viewBox="0 0 238 46"><defs><style>.cls-1{letter-spacing:-.02em;}.cls-2{letter-spacing:0em;}.cls-3{fill:#00b0af;}.cls-4{font-family:Lexend-Light, Lexend;font-size:30px;font-variation-settings:'wght' 300;font-weight:300;}.cls-5{letter-spacing:-.02em;}.cls-6{fill:url(#Unbenannter_Verlauf_15);}.cls-7{fill:url(#Unbenannter_Verlauf_16);}.cls-8{letter-spacing:0em;}.cls-9{letter-spacing:0em;}</style><linearGradient id="Unbenannter_Verlauf_16" x1="8.07" y1="29.89" x2=".33" y2="41.45" gradientUnits="userSpaceOnUse"><stop offset="0" stop-color="#00b0af"/><stop offset=".69" stop-color="#003737"/><stop offset="1" stop-color="#000"/></linearGradient><linearGradient id="Unbenannter_Verlauf_15" x1="2.98" y1="33.54" x2="23.88" y2="16.74" gradientUnits="userSpaceOnUse"><stop offset="0" stop-color="#00b0af"/><stop offset=".11" stop-color="#00a7a6"/><stop offset=".29" stop-color="#009090"/><stop offset=".51" stop-color="#006b6a"/><stop offset=".76" stop-color="#003838"/><stop offset="1" stop-color="#000"/></linearGradient></defs><text class="cls-4" transform="translate(30.76 32.07)"><tspan class="cls-1" x="0" y="0">L</tspan><tspan class="cls-2" x="16.38" y="0">a </tspan><tspan class="cls-9" x="43.38" y="0">P</tspan><tspan x="61.74" y="0">a</tspan><tspan class="cls-8" x="80.34" y="0">t</tspan><tspan class="cls-2" x="91.32" y="0">acone</tspan><tspan class="cls-5" x="178.05" y="0">r</tspan><tspan x="188.58" y="0">a</tspan></text><g><path class="cls-3" d="m23.18,2v8.02c-.6-.74-1.28-1.42-2.02-2.02-.31-.26-.64-.5-.98-.73v-2.27h-12v-3h15Z"/><polygon class="cls-7" points="5.18 41 5.18 2 2.18 2 2.18 44 2.19 44 2.19 44 23.19 44 23.19 41 5.18 41"/><path class="cls-6" d="m23.19,18.5c0-5.8-4.71-10.5-10.5-10.5S2.19,12.7,2.19,18.5h0v25.5h3v-18.16c1.91,1.95,4.56,3.16,7.5,3.16s5.59-1.21,7.5-3.16v12.16h3v-19.41s0-.06,0-.08Zm-10.5,7.43c-4.1,0-7.43-3.33-7.43-7.43s3.33-7.42,7.43-7.42,7.42,3.32,7.42,7.42-3.32,7.43-7.42,7.43Z"/></g></svg>