<?xml version="1.0" encoding="UTF-8"?>
<svg id="b" data-name="Ebene 1" xmlns="http://www.w3.org/2000/svg" xmlns:xlink="http://www.w3.org/1999/xlink" viewBox="0 0 2700 2700">
  <defs>
    <style>
      .f, .g {
        fill: none;
      }

      .h {
        fill: #e0e0e0;
      }

      .i {
        fill: #c3e1e5;
      }

      .j {
        fill: #51cb90;
      }

      .k {
        fill: gray;
      }

      .l {
        fill: #e6e6e6;
      }

      .m {
        fill: #46b77b;
      }

      .n {
        fill: #c1c1c1;
      }

      .o {
        fill: #5eb246;
      }

      .o, .p, .q {
        fill-rule: evenodd;
      }

      .r {
        fill: #1e1e1e;
      }

      .s {
        opacity: .2;
      }

      .s, .t {
        fill: #f2f2f2;
      }

      .u {
        fill: #4d4d4d;
      }

      .v {
        fill: #e5e5e5;
      }

      .w {
        fill: #3a3a3a;
      }

      .x {
        fill: #d8d8d8;
      }

      .y {
        fill: #b7b7b7;
      }

      .z {
        fill: #fff;
      }

      .aa {
        fill: #f60;
      }

      .ab {
        fill: #262626;
      }

      .ac {
        fill: #666;
      }

      .ad {
        fill: #301407;
      }

      .ae {
        fill: #b8ced3;
      }

      .af {
        fill: #ec6608;
      }

      .ag {
        fill: #fafafa;
      }

      .g {
        stroke: #000;
        stroke-miterlimit: 10;
        stroke-width: 1.97px;
      }

      .p {
        fill: #959895;
      }

      .ah {
        fill: #0c0c0c;
      }

      .ai {
        fill: #a3b4b7;
      }

      .aj {
        fill: #b3b3b3;
      }

      .ak {
        fill: #9bb216;
      }

      .al {
        fill: #ffe500;
      }

      .am {
        clip-path: url(#d);
      }

      .an {
        clip-path: url(#c);
      }

      .ao {
        fill: #281105;
      }

      .ap {
        fill: #f3f3f3;
      }

      .aq {
        fill: #a8a8a8;
      }

      .ar {
        fill: #ededed;
      }

      .as {
        fill: #333;
      }

      .q {
        fill: #000105;
      }

      .at {
        fill: #ea660a;
      }

      .au {
        fill: #1a1a1a;
      }

      .av {
        fill: #07773c;
      }

      .aw {
        fill: #93e5b6;
      }
    </style>
    <clipPath id="c">
      <polygon class="f" points="957.34 2089.6 370.32 1750.68 957.34 1411.77 1544.37 1750.69 957.34 2089.6"/>
    </clipPath>
    <clipPath id="d">
      <polygon class="f" points="1787.47 2483.58 1201.07 2145.03 1637.48 1893.07 2225.33 2230.78 1787.47 2483.58"/>
    </clipPath>
  </defs>
  <g>
    <polygon class="ao" points="968.31 1196.09 360.02 844.9 360.02 793.32 1576.6 793.32 1576.6 844.9 968.31 1196.09"/>
    <polygon class="ad" points="968.31 1196.09 968.31 793.32 1576.6 793.32 1576.6 844.9 968.31 1196.09"/>
    <polygon class="av" points="968.31 1144.52 360.02 793.32 968.31 442.13 1576.6 793.32 968.31 1144.52"/>
    <ellipse class="j" cx="1092.49" cy="994.71" rx="43.69" ry="38.24" transform="translate(-20.27 1966.68) rotate(-83.45)"/>
    <ellipse class="j" cx="523.14" cy="822.16" rx="43.69" ry="38.24" transform="translate(-353.29 1248.17) rotate(-83.45)"/>
    <ellipse class="aw" cx="561.46" cy="846.66" rx="39.8" ry="45.47" transform="translate(-75.44 55.19) rotate(-5.27)"/>
    <ellipse class="m" cx="1524.18" cy="767.3" rx="21.45" ry="24.51"/>
    <polygon class="r" points="757.14 1022.6 564.43 911.34 701.16 836.73 893.87 947.99 757.14 1022.6"/>
    <g>
      <polygon class="l" points="1211.72 663.79 1211.72 1003.92 604.36 653.26 604.36 313.13 1211.72 663.79"/>
      <polygon class="ar" points="1515.4 488.46 1515.4 828.59 1211.72 1003.92 1211.72 663.79 1515.4 488.46"/>
      <polygon class="ae" points="655.53 464.02 655.53 599.02 693.68 621.04 693.68 486.04 655.53 464.02"/>
      <polygon class="ae" points="714.47 498.05 714.47 633.04 752.62 655.07 752.62 520.07 714.47 498.05"/>
      <polygon class="ae" points="769.95 530.08 769.95 665.07 808.1 687.1 808.1 552.1 769.95 530.08"/>
      <polygon class="ae" points="1014.48 671.26 1014.48 806.25 1052.63 828.28 1052.63 693.28 1014.48 671.26"/>
      <polygon class="ae" points="1073.42 705.29 1073.42 840.28 1111.57 862.31 1111.57 727.31 1073.42 705.29"/>
      <polygon class="ae" points="1128.89 737.31 1128.89 872.31 1167.04 894.34 1167.04 759.34 1128.89 737.31"/>
      <polygon class="ae" points="851.75 515.11 851.75 796.09 964.32 861.08 964.32 580.11 851.75 515.11"/>
      <polygon class="x" points="1018.77 878.17 907.8 942.24 684.73 813.45 795.71 749.38 1018.77 878.17"/>
      <polyline class="aj" points="604.36 313.13 1211.72 663.79 1211.72 677.73 604.36 327.07"/>
      <polygon class="aj" points="1000.29 867.5 907.71 920.96 721.6 813.51 721.6 797.78 907.71 905.23 1000.29 851.77 1000.29 867.5"/>
      <polygon class="v" points="1000.29 851.77 907.71 905.23 721.6 797.78 814.19 744.32 1000.29 851.77"/>
      <polygon class="t" points="979.68 826.34 904.91 869.51 754.6 782.73 829.38 739.56 979.68 826.34"/>
      <g>
        <polygon class="aq" points="913.29 568.39 913.29 845.81 893.87 834.6 893.87 557.18 913.29 568.39"/>
        <polygon class="aj" points="932.71 557.18 932.71 834.6 913.29 845.81 913.29 568.39 932.71 557.18"/>
      </g>
      <g>
        <polygon class="aq" points="802.3 513.69 802.3 791.11 782.89 779.9 782.89 502.48 802.3 513.69"/>
        <polygon class="aj" points="821.72 502.48 821.72 779.9 802.3 791.11 802.3 513.69 821.72 502.48"/>
      </g>
      <polygon class="aj" points="919.77 596.51 769.46 509.74 769.46 494.78 919.77 581.56 919.77 596.51"/>
      <polygon class="k" points="1515.4 488.46 1211.72 663.79 994.54 538.38 919.77 581.56 769.46 494.78 844.24 451.6 604.36 313.13 908.04 137.8 1515.4 488.46"/>
      <polygon class="n" points="994.54 552.34 919.77 596.51 919.77 581.56 994.54 538.38 994.54 552.34"/>
      <polygon class="n" points="1211.72 677.73 1515.4 502.4 1515.4 488.46 1211.72 663.79 1211.72 677.73"/>
      <g>
        <polygon class="n" points="1209.4 633.8 1479.94 477.6 1479.94 429.45 1209.4 585.65 1209.4 633.8"/>
        <polygon class="l" points="1479.94 429.45 1209.4 585.65 651.74 265.04 918.88 119.23 1479.94 429.45"/>
        <polygon class="aj" points="1209.4 633.79 651.74 313.19 651.74 265.04 1209.4 585.64 1209.4 633.79"/>
      </g>
      <polygon class="ae" points="1316.74 724.62 1316.74 859.62 1354.89 837.59 1354.89 702.59 1316.74 724.62"/>
      <polygon class="ae" points="1372.22 692.59 1372.22 827.59 1410.37 805.56 1410.37 670.57 1372.22 692.59"/>
      <g>
        <polygon class="as" points="912.18 553.19 902.98 558.5 902.98 493.27 912.18 487.96 912.18 553.19"/>
        <polygon class="ab" points="912.18 487.96 902.98 493.27 811.41 440.41 820.61 435.09 912.18 487.96"/>
        <polygon class="au" points="902.98 558.5 811.41 505.63 811.41 440.41 902.98 493.27 902.98 558.5"/>
        <g>
          <polygon class="z" points="834.83 508.9 834.83 513.28 869.63 533.37 869.7 533.33 869.7 529.11 869.63 528.99 834.83 508.9"/>
          <polygon class="z" points="869.63 528.99 869.63 533.37 879.96 539.33 879.96 534.96 869.63 528.99"/>
          <path class="z" d="M841.6,498.94v-5.1s-1.89,4-1.89,4l-1.05-.61-1.86-6.17v5.1s-1.96-1.13-1.96-1.13v-8.83s2.62,1.51,2.62,1.51l1.8,6.02,1.88-3.9,2.42,1.4v8.83s-1.96-1.13-1.96-1.13ZM845.06,500.94v-8.83s1.67.97,1.67.97c.15.09.29.34.29.52v8.48s-1.97-1.13-1.97-1.13ZM852.45,500.12l2.48,1.43c.2.11.31.36.31.58v4.56c-.7-.22-1.79-.74-2.6-1.21-2.85-1.65-4.36-4.08-4.36-7.11,0-2.7,1.5-3.71,4.01-2.26,1.1.64,2.07,1.54,2.69,2.38l-.77,1.07c-.54-.59-1.26-1.2-1.78-1.5-1.44-.83-2.11-.12-2.11,1.48,0,1.71.78,3.21,2.22,4.04.26.15.59.33.85.43v-1.56s-.95-.55-.95-.55v-1.8ZM861.06,510.18l-.91-2.95c-.19-.6-.32-.92-.71-1.15l-.8-.46v3.17s-1.92-1.11-1.92-1.11v-8.48c0-.18.17-.25.3-.18l2.71,1.57c1.47.85,2.74,1.93,2.74,4.13,0,.98-.47,1.72-1.36,1.41.44.43.88,1.34,1.13,2.18l.87,3.05-2.06-1.19ZM859.61,502.21l-.96-.56v2.21s.96.56.96.56c.57.33,1.03.24,1.03-.6s-.45-1.28-1.03-1.61ZM867.36,513.99c-2.5-1.45-3.83-4.25-3.83-6.81s1.32-3.81,3.83-2.36c2.35,1.35,3.67,4.16,3.67,6.69,0,2.56-1.33,3.83-3.67,2.48ZM867.36,506.69c-1.03-.6-1.77-.17-1.77,1.68,0,1.88.73,3.15,1.77,3.75.88.51,1.61.08,1.61-1.8,0-1.85-.72-3.12-1.61-3.63ZM874.8,518.28c-1.29-.75-2.49-1.97-3.03-2.71l.87-1.28c.49.62,1.43,1.69,2.3,2.19.49.29,1.12.54,1.12-.1s-.7-1.18-1.61-2.01c-1.1-1-2.39-2.25-2.39-3.96,0-1.85,1.42-2.06,3.27-.99,1.22.7,2.17,1.75,2.65,2.56l-1.06.78c-.52-.67-1.06-1.26-1.66-1.6-.72-.42-1.13-.34-1.13.13,0,.46.53.99,1.19,1.61,1.17,1.09,2.77,2.44,2.77,4.21,0,1.82-1.26,2.35-3.28,1.18"/>
          <g>
            <path class="z" d="M858.41,511.6c.01-.21.16-.24.35-.13l1.64.95v3.76s2.54-2.29,2.54-2.29l2.21,1.28-2.87,2.45,2.97,6.44-2.35-1.36-2.51-5.48v4.03s-1.99-1.15-1.99-1.15v-8.49Z"/>
            <g>
              <path class="z" d="M851.71,510.65v5.57s-1.94-1.12-1.94-1.12v-8.83s2.09,1.21,2.09,1.21c0,0,2.64,6.08,3.07,7.24v-5.47s1.91,1.1,1.91,1.1v8.83s-1.92-1.11-1.92-1.11l-3.21-7.43Z"/>
              <path class="z" d="M846.44,511.69l.38,1.71,2.05,1.18-2.31-10.16-2.51-1.45c-.25-.15-.34-.03-.38.08l-2.27,7.22,2.05,1.18.37-1.28,2.63,1.52ZM846.11,509.79l-1.96-1.13.94-3.41.09.05.94,4.49Z"/>
              <path class="z" d="M840.98,507.58c0,1.79-1.29,1.7-3.03.69l-3.11-1.8v-8.43c0-.22.16-.31.35-.19l2.8,1.61c1.41.82,2.69,2.06,2.69,3.75,0,1.06-.36,1.59-1.14,1.39.81.65,1.45,1.71,1.45,2.99ZM839.11,506.27c0-.74-.38-1.28-1.18-1.74l-1.26-.73v2.11s1.19.69,1.19.69c.79.46,1.25.43,1.25-.33ZM837.77,500.95l-1.11-.64v1.94s1.07.62,1.07.62c.78.45,1.13.36,1.13-.33,0-.67-.37-1.17-1.08-1.58Z"/>
            </g>
          </g>
          <g>
            <path class="z" d="M861.88,492.01c-1.04-.6-1.77-.14-1.77,1.72,0,1.89.74,3.19,1.77,3.79.89.51,1.62.05,1.62-1.83,0-1.86-.73-3.16-1.62-3.68ZM858.04,492.54c0-2.54,1.33-3.86,3.85-2.4,2.36,1.36,3.69,4.21,3.69,6.76,0,1.31-.36,2.15-.93,2.62l1.33,1.94-1.09.68-1.52-2.18c-.36-.02-.99-.25-1.48-.53-2.35-1.36-3.85-4.11-3.85-6.87Z"/>
            <path class="z" d="M870.15,504.14c-2.26-1.31-3.38-3.19-3.38-5.59v-5.35s1.96,1.13,1.96,1.13v5.1c0,1.2.39,2.24,1.35,2.8.89.51,1.32-.08,1.32-1.16v-5.19s1.96,1.13,1.96,1.13v5.14c0,2.24-.9,3.33-3.22,1.99Z"/>
            <path class="z" d="M875.28,498.12l4.6,2.66v1.71s-3.09-1.78-3.09-1.78v1.73s2.77,1.6,2.77,1.6v1.64s-2.77-1.6-2.77-1.6v1.99s3.17,1.83,3.17,1.83v1.76s-5.02-2.9-5.02-2.9v-8.47c0-.19.15-.28.33-.17Z"/>
            <path class="z" d="M851.71,487.77v5.57s-1.94-1.12-1.94-1.12v-8.83s2.09,1.21,2.09,1.21c0,0,2.64,6.08,3.07,7.24v-5.47s1.91,1.1,1.91,1.1v8.83s-1.92-1.11-1.92-1.11l-3.21-7.43Z"/>
            <path class="z" d="M846.44,488.81l.38,1.71,2.05,1.18-2.31-10.16-2.51-1.45c-.25-.15-.34-.03-.38.08l-2.27,7.22,2.05,1.18.37-1.28,2.63,1.52ZM846.11,486.92l-1.96-1.13.94-3.41.09.05.94,4.49Z"/>
            <path class="z" d="M840.98,484.7c0,1.79-1.29,1.7-3.03.69l-3.11-1.8v-8.43c0-.22.16-.31.35-.19l2.8,1.61c1.41.82,2.69,2.06,2.69,3.75,0,1.06-.36,1.59-1.14,1.39.81.65,1.45,1.71,1.45,2.99ZM839.11,483.4c0-.74-.38-1.28-1.18-1.74l-1.26-.73v2.11s1.19.69,1.19.69c.79.46,1.25.43,1.25-.33ZM837.77,478.07l-1.11-.64v1.94s1.07.62,1.07.62c.78.45,1.13.36,1.13-.33,0-.67-.37-1.17-1.08-1.58Z"/>
          </g>
          <g>
            <path class="z" d="M862,488.02c-2.69-1.55-3.85-4.41-3.85-6.83,0-2.41,1.2-3.89,3.88-2.35,1,.58,1.93,1.43,2.54,2.25l-.76,1.19c-.42-.53-1.1-1.14-1.61-1.43-1.32-.76-2-.09-2,1.47s.65,3.11,2.03,3.91c.83.48,1.16.36,1.55.26l.76,2.12c-.5.16-1.41.07-2.55-.58Z"/>
            <g>
              <path class="z" d="M851.71,476.33v5.57s-1.94-1.12-1.94-1.12v-8.83s2.09,1.21,2.09,1.21c0,0,2.64,6.08,3.07,7.24v-5.47s1.91,1.1,1.91,1.1v8.83s-1.92-1.11-1.92-1.11l-3.21-7.43Z"/>
              <path class="z" d="M846.44,477.37l.38,1.71,2.05,1.18-2.31-10.16-2.51-1.45c-.25-.15-.34-.03-.38.08l-2.27,7.22,2.05,1.18.37-1.28,2.63,1.52ZM846.11,475.48l-1.96-1.13.94-3.41.09.05.94,4.49Z"/>
              <path class="z" d="M840.98,473.27c0,1.79-1.29,1.7-3.03.69l-3.11-1.8v-8.43c0-.22.16-.31.35-.19l2.8,1.61c1.41.82,2.69,2.06,2.69,3.75,0,1.06-.36,1.59-1.14,1.39.81.65,1.45,1.71,1.45,2.99ZM839.11,471.96c0-.74-.38-1.28-1.18-1.74l-1.26-.73v2.11s1.19.69,1.19.69c.79.46,1.25.43,1.25-.33ZM837.77,466.64l-1.11-.64v1.94s1.07.62,1.07.62c.78.45,1.13.36,1.13-.33,0-.66-.37-1.17-1.08-1.58Z"/>
            </g>
            <path class="z" d="M869.94,490.94l.38,1.71,2.05,1.18-2.31-10.16-2.51-1.45c-.25-.15-.34-.03-.38.08l-2.27,7.22,2.05,1.18.37-1.28,2.63,1.52ZM869.61,489.05l-1.96-1.13.94-3.41.09.05.94,4.49Z"/>
          </g>
        </g>
      </g>
      <g>
        <polygon class="z" points="1259.42 596.08 1223.33 616.92 1223.33 590.75 1259.42 569.91 1259.42 596.08"/>
        <polygon class="z" points="1328.81 556.1 1292.71 576.94 1292.71 550.77 1328.81 529.93 1328.81 556.1"/>
        <polygon class="z" points="1398.19 516.13 1362.09 536.97 1362.09 510.8 1398.19 489.96 1398.19 516.13"/>
        <polygon class="z" points="1467.57 476.16 1431.48 496.99 1431.48 470.83 1467.57 449.99 1467.57 476.16"/>
      </g>
      <g>
        <polygon class="l" points="703.22 333.3 667.13 312.46 667.13 286.29 703.22 307.13 703.22 333.3"/>
        <polygon class="l" points="764.98 368.75 728.88 347.91 728.88 321.74 764.98 342.58 764.98 368.75"/>
        <polygon class="l" points="826.73 404.2 790.63 383.37 790.63 357.2 826.73 378.03 826.73 404.2"/>
        <polygon class="l" points="888.48 439.66 852.38 418.82 852.38 392.65 888.48 413.49 888.48 439.66"/>
        <polygon class="l" points="950.23 475.11 914.14 454.27 914.14 428.1 950.23 448.94 950.23 475.11"/>
        <polygon class="l" points="1011.98 510.56 975.89 489.72 975.89 463.55 1011.98 484.39 1011.98 510.56"/>
        <polygon class="l" points="1073.73 546.01 1037.64 525.17 1037.64 499 1073.73 519.84 1073.73 546.01"/>
        <polygon class="l" points="1135.48 581.47 1099.39 560.63 1099.39 534.46 1135.48 555.3 1135.48 581.47"/>
        <polygon class="l" points="1197.24 616.92 1161.14 596.08 1161.14 569.91 1197.24 590.75 1197.24 616.92"/>
      </g>
      <polygon class="n" points="904.91 883.05 904.91 869.51 979.68 826.34 979.68 839.88 904.91 883.05"/>
      <polygon class="aj" points="754.6 782.73 904.91 869.51 904.91 883.05 754.6 796.27 754.6 782.73"/>
      <polygon class="n" points="1018.77 877.79 1018.77 892.63 907.8 956.7 907.8 941.86 1018.77 877.79"/>
      <polygon class="aj" points="684.73 827.91 684.73 813.07 907.8 941.86 907.8 956.7 684.73 827.91"/>
      <polygon class="n" points="1000.29 867.5 907.71 920.96 907.71 905.23 1000.29 851.77 1000.29 867.5"/>
    </g>
    <ellipse class="aw" cx="604.36" cy="658.52" rx="39.8" ry="45.47" transform="translate(-57.97 58.33) rotate(-5.27)"/>
  </g>
  <g>
    <polygon class="ao" points="1752.38 1665.52 1164.79 1326.27 1164.79 1276.45 2339.98 1276.45 2339.98 1326.28 1752.38 1665.52"/>
    <polygon class="ad" points="1752.38 1665.52 1752.38 1276.45 2339.98 1276.45 2339.98 1326.28 1752.38 1665.52"/>
    <polygon class="r" points="1752.38 1615.7 1164.79 1276.45 1752.38 937.2 2339.98 1276.45 1752.38 1615.7"/>
    <polygon class="av" points="2233.88 1215.2 2339.98 1276.45 2237.55 1335.71 2233.88 1215.2"/>
    <g>
      <polygon class="al" points="1606.57 1493.29 1526.39 1447 1540.49 1438.86 1620.66 1485.15 1606.57 1493.29"/>
      <polygon class="al" points="1634.76 1477.01 1554.58 1430.72 1568.68 1422.58 1648.86 1468.87 1634.76 1477.01"/>
      <polygon class="al" points="1662.96 1460.74 1582.78 1414.44 1596.87 1406.31 1677.05 1452.6 1662.96 1460.74"/>
      <polygon class="al" points="1691.15 1444.46 1610.97 1398.17 1625.07 1390.03 1705.25 1436.32 1691.15 1444.46"/>
      <polygon class="al" points="1719.34 1428.18 1639.17 1381.89 1653.26 1373.75 1733.44 1420.04 1719.34 1428.18"/>
    </g>
    <g>
      <polygon class="as" points="1797.53 1088.69 1797.53 1252.97 1944.2 1168.29 1944.2 1004.01 1797.53 1088.69"/>
      <polygon class="ai" points="1650.85 1173.37 1650.85 1337.65 1797.53 1252.97 1797.53 1088.69 1650.85 1173.37"/>
      <polygon class="ae" points="1504.18 1088.69 1504.18 1252.97 1650.85 1337.65 1650.85 1173.37 1504.18 1088.69"/>
      <polygon class="ak" points="1944.2 1002.06 1944.2 1166.34 2237.55 1335.71 2237.55 1171.43 1944.2 1002.06"/>
      <polygon class="s" points="2090.88 1256.11 2090.88 1420.39 2237.55 1335.71 2237.55 1171.43 2090.88 1256.11"/>
      <g>
        <polygon class="t" points="2237.55 1009.1 2237.55 1173.37 1944.2 1342.74 1944.2 1178.46 2237.55 1009.1"/>
        <g>
          <polyline class="af" points="1977.22 1204.14 1977.22 1190.31 1972.08 1207.11 1969.23 1208.75 1964.18 1197.84 1964.18 1211.67 1958.87 1214.73 1958.87 1190.78 1965.98 1186.68 1970.86 1197.39 1975.97 1180.91 1982.53 1177.12 1982.53 1201.08 1977.22 1204.14"/>
          <path class="af" d="M1986.61,1198.72v-23.95l4.54-2.62c.4-.23.79,0,.79.5v23l-5.33,3.08"/>
          <path class="af" d="M2006.67,1173.34l6.74-3.89c.53-.31.83.02.83.61v12.38c-1.9,1.59-4.86,3.59-7.07,4.87-7.74,4.47-11.82,2.57-11.82-5.65,0-7.33,4.08-14.76,10.88-18.69,2.99-1.73,5.62-2.32,7.31-1.98l-2.09,5.33c-1.46.09-3.43.7-4.82,1.5-3.91,2.26-5.74,6.31-5.74,10.64,0,4.63,2.12,6.27,6.02,4.02.72-.41,1.6-.96,2.31-1.49v-4.22l-2.57,1.48v-4.89"/>
          <path class="af" d="M2030.02,1173.66l-2.46-5.17c-.5-1.05-.85-1.52-1.92-.9l-2.16,1.24v8.6l-5.21,3.01v-23c0-.5.47-1.23.81-1.43l7.36-4.25c4-2.31,7.43-3.33,7.43,2.63,0,2.67-1.28,6.14-3.68,8.08,1.2-.22,2.4.86,3.05,2.4l2.37,5.54-5.59,3.23h0ZM2026.09,1156.59l-2.61,1.51v6.01l2.61-1.51c1.56-.9,2.79-2.57,2.79-4.84s-1.23-2.06-2.79-1.16"/>
          <path class="af" d="M2047.13,1164.24c-6.79,3.92-10.38.46-10.38-6.48s3.59-14.48,10.38-18.4c6.36-3.67,9.96-.21,9.96,6.66s-3.6,14.55-9.96,18.22h0ZM2047.13,1144.44c-2.8,1.62-4.79,5.07-4.79,10.1s1.99,6.25,4.79,4.63c2.4-1.39,4.37-4.82,4.37-9.92s-1.97-6.19-4.37-4.81"/>
          <path class="af" d="M2067.31,1152.59c-3.51,2.03-6.77,2.46-8.22,2.14l2.37-6.21c1.32.16,3.89.1,6.25-1.27,1.34-.77,3.03-2.05,3.03-3.77,0-1.61-1.89-1.01-4.37-.4-2.99.74-6.48,1.37-6.48-3.28,0-5.01,3.86-10.04,8.87-12.94,3.31-1.91,5.88-2.04,7.19-1.35l-2.88,5.45c-1.42-.16-2.88-.08-4.51.86-1.97,1.14-3.08,2.64-3.08,3.89s1.43,1.05,3.22.64c3.17-.7,7.5-2.05,7.5,2.75s-3.42,10.31-8.9,13.48"/>
        </g>
        <path class="at" d="M1982.78,1280.82v24.88s-4.87,2.81-4.87,2.81v-7.3c0-3.98.03-7.78.18-12.13-.45,2.15-.88,4.04-1.45,6.5l-3.72,15.81-4.18,2.41-3.72-11.51c-.57-1.8-1-3.16-1.42-4.8.12,4.19.15,7.91.15,11.9v7.3s-4.87,2.81-4.87,2.81v-24.88s7.66-4.42,7.66-4.42l2.84,9.05c.51,1.69,1.03,3.56,1.48,5.33.45-2.32.97-4.86,1.45-7.13l2.81-12.21,7.66-4.42Z"/>
        <polygon class="i" points="2042.05 1195.76 2042.05 1232.35 2090.88 1204.16 2090.88 1167.58 2042.05 1195.76"/>
        <polygon class="h" points="2090.88 1167.58 2090.88 1204.16 2237.55 1119.48 2237.55 1082.89 2090.88 1167.58"/>
      </g>
      <polygon class="k" points="2237.55 1009.1 1944.2 1178.46 1357.5 839.73 1650.85 670.37 2237.55 1009.1"/>
    </g>
    <g>
      <polygon class="ac" points="1779.24 1385.9 1779.24 1409.71 1944.2 1504.95 1944.2 1481.14 1779.24 1385.9"/>
      <polygon class="k" points="2026.68 1457.33 1944.2 1504.95 1944.2 1481.14 2026.68 1433.52 2026.68 1457.33"/>
      <polygon class="u" points="2006.06 1421.62 1944.2 1457.33 1799.86 1374 1779.24 1385.9 1944.2 1481.14 2026.68 1433.52 2006.06 1421.62"/>
    </g>
    <polygon class="h" points="1357.5 1004.01 1357.5 1168.29 1504.18 1252.97 1504.18 1088.69 1357.5 1004.01"/>
    <polygon class="h" points="1944.2 1178.46 1944.2 1342.74 1357.5 1004.01 1357.5 839.73 1944.2 1178.46"/>
    <g>
      <polyline class="af" points="1390.52 903.53 1390.52 889.7 1385.38 900.57 1382.53 898.92 1377.48 882.18 1377.48 896 1372.17 892.94 1372.17 868.99 1379.28 873.09 1384.16 889.43 1389.27 878.86 1395.83 882.64 1395.83 906.6 1390.52 903.53"/>
      <path class="af" d="M1399.91,908.95v-23.95l4.54,2.62c.4.23.79.92.79,1.42v23l-5.33-3.08"/>
      <path class="af" d="M1419.97,906.75l6.74,3.89c.53.31.83.98.83,1.57v12.38c-1.9-.61-4.86-2.02-7.07-3.29-7.74-4.47-11.82-11.08-11.82-19.29,0-7.33,4.08-10.05,10.88-6.13,2.99,1.73,5.62,4.17,7.31,6.46l-2.09,2.91c-1.46-1.6-3.43-3.26-4.82-4.07-3.91-2.26-5.74-.32-5.74,4.02,0,4.63,2.12,8.71,6.02,10.97.72.41,1.6.89,2.31,1.18v-4.22l-2.57-1.48v-4.89"/>
      <path class="af" d="M1443.32,934.02l-2.46-8.01c-.5-1.63-.85-2.5-1.92-3.12l-2.16-1.24v8.6l-5.21-3.01v-23c0-.5.47-.69.81-.49l7.36,4.25c4,2.31,7.43,5.25,7.43,11.21,0,2.67-1.28,4.67-3.68,3.83,1.2,1.16,2.4,3.63,3.05,5.92l2.37,8.28-5.59-3.23h0ZM1439.39,912.41l-2.61-1.51v6.01l2.61,1.51c1.56.9,2.79.65,2.79-1.63s-1.23-3.48-2.79-4.38"/>
      <path class="af" d="M1460.43,944.36c-6.79-3.92-10.38-11.53-10.38-18.47s3.59-10.33,10.38-6.41c6.36,3.67,9.96,11.29,9.96,18.16s-3.6,10.39-9.96,6.72h0ZM1460.43,924.56c-2.8-1.62-4.79-.46-4.79,4.56s1.99,8.55,4.79,10.16c2.4,1.39,4.37.22,4.37-4.88s-1.97-8.46-4.37-9.85"/>
      <path class="af" d="M1480.61,956.01c-3.51-2.03-6.77-5.36-8.22-7.35l2.37-3.48c1.32,1.68,3.89,4.58,6.25,5.95,1.34.77,3.03,1.45,3.03-.27,0-1.61-1.89-3.2-4.37-5.45-2.99-2.72-6.48-6.11-6.48-10.76,0-5.01,3.86-5.59,8.87-2.69,3.31,1.91,5.88,4.75,7.19,6.95l-2.88,2.12c-1.42-1.8-2.88-3.41-4.51-4.35-1.97-1.14-3.08-.92-3.08.34s1.43,2.7,3.22,4.36c3.17,2.96,7.5,6.62,7.5,11.42s-3.42,6.36-8.9,3.2"/>
    </g>
    <ellipse class="aw" cx="1378.35" cy="1175.92" rx="38.45" ry="43.93" transform="translate(-102.24 131.66) rotate(-5.27)"/>
    <ellipse class="j" cx="1436.84" cy="1194.64" rx="42.2" ry="36.94" transform="translate(86.19 2485.93) rotate(-83.45)"/>
    <ellipse class="m" cx="1399.07" cy="1215.2" rx="20.72" ry="23.67"/>
  </g>
  <g>
    <polygon class="ao" points="957.34 2139.38 370.32 1800.46 370.32 1750.68 1544.37 1750.69 1544.37 1800.46 957.34 2139.38"/>
    <polygon class="ad" points="957.34 2139.38 957.34 1750.68 1544.37 1750.69 1544.37 1800.46 957.34 2139.38"/>
    <polygon class="av" points="957.34 2089.6 370.32 1750.68 957.34 1411.77 1544.37 1750.69 957.34 2089.6"/>
    <g class="an">
      <polygon class="r" points="1419.05 2309.2 406.19 1724.43 406.19 1346.03 1419.05 1930.81 1419.05 2309.2"/>
      <polygon class="al" points="1419.05 2022.22 406.19 1437.44 406.19 1429.58 1419.05 2014.35 1419.05 2022.22"/>
      <polygon class="al" points="1419.05 2221.69 406.19 1636.92 406.19 1629.05 1419.05 2213.83 1419.05 2221.69"/>
    </g>
    <g>
      <polygon class="al" points="907.78 1896.1 827.68 1849.86 841.76 1841.73 921.86 1887.97 907.78 1896.1"/>
      <polygon class="al" points="935.94 1879.84 855.84 1833.6 869.93 1825.47 950.03 1871.71 935.94 1879.84"/>
      <polygon class="al" points="964.11 1863.58 884.01 1817.33 898.09 1809.2 978.19 1855.45 964.11 1863.58"/>
      <polygon class="al" points="992.28 1847.32 912.18 1801.07 926.26 1792.94 1006.36 1839.19 992.28 1847.32"/>
      <polygon class="al" points="1020.44 1831.06 940.34 1784.81 954.43 1776.68 1034.53 1822.93 1020.44 1831.06"/>
    </g>
    <ellipse class="j" cx="920.92" cy="1576.32" rx="42.16" ry="36.9" transform="translate(-750.1 2311.54) rotate(-83.45)"/>
    <ellipse class="j" cx="527.74" cy="1778.51" rx="42.16" ry="36.9" transform="translate(-1299.34 2100.06) rotate(-83.45)"/>
    <g>
      <polygon class="l" points="920.92 1440.26 920.92 1643.12 1213.99 1812.32 1213.99 1609.46 920.92 1440.26"/>
      <polygon class="k" points="1067.46 1355.66 920.92 1440.26 1213.99 1609.46 1360.52 1524.86 1067.46 1355.66"/>
      <polygon class="t" points="1213.99 1609.46 1213.99 1812.32 1360.52 1727.72 1360.52 1524.86 1213.99 1609.46"/>
      <polygon class="as" points="920.92 1643.12 920.92 1628 1213.99 1797.2 1213.99 1812.32 920.92 1643.12"/>
      <polygon class="w" points="1213.99 1812.32 1213.99 1797.2 1360.52 1712.6 1360.52 1727.72 1213.99 1812.32"/>
      <polygon class="ae" points="949.17 1517.63 949.17 1627.04 1022.17 1669.19 1022.17 1559.77 949.17 1517.63"/>
      <polygon class="aj" points="1030.96 1564.85 1030.96 1706.65 1103.95 1748.79 1103.95 1606.99 1030.96 1564.85"/>
      <polygon class="ae" points="1112.75 1612.07 1112.75 1721.48 1185.74 1763.63 1185.74 1654.22 1112.75 1612.07"/>
      <polygon class="ae" points="1250.76 1649.29 1250.76 1758.71 1323.75 1716.56 1323.75 1607.15 1250.76 1649.29"/>
      <g>
        <path class="p" d="M979.51,1517.32l-.16.04-3.83-2.1-.14-.27.99-4.18.4-1.72c.12-.53.47-2.25.47-2.69,0-.71-.3-1.64-1.2-2.16s-1.5-.3-1.9-.2c-.14,1.25-.19,1.55-.45,2.81l-.52,2.33-.78,4.03-.17.04-3.78-2.07-.12-.26.92-4,.35-1.64c.42-2.09.49-2.59.49-3,0-1.41-.87-1.97-1.17-2.14-.66-.38-1.25-.31-1.74-.14l-.8,3.63-1.08,5.48-.17.04-3.85-2.11-.12-.26.99-4.07.59-2.56c.54-2.59.61-3.09.96-5.6l.16-.07c1.67.69,2.14.88,3.95,1.52l.14.27-.31,1.45c.35-.12.71-.21,1.08-.27.78-.07,1.86.2,2.7.69,1.25.72,2.11,1.84,2.54,3.39,1.22-.38,2.66-.39,4.21.5,1.13.65,3.22,2.4,3.22,5.38,0,.87-.19,1.66-.38,2.41l-.49,2.29-1.01,5.2Z"/>
        <path class="p" d="M987.42,1513.56c2.39,1.5,3.61,1.38,3.71-.13.05-.82-.43-1.7-1.2-2.15-1.41-.7-2.15.51-2.51,2.28ZM993.21,1523.6c-1.7.19-3.99.03-6.38-1.35-3.23-1.86-4.23-6.26-4.18-8.18.17-6.75,4.57-6.86,7.63-5.09,2.34,1.35,4.28,3.52,4.28,6.31,0,3.14-3.82,2.74-7.31.61-.05.61-.24,3.01,2.01,4.3,1.15.66,1.98.56,3.06.54l.91,2.85Z"/>
        <path class="p" d="M1004.25,1520.38c-1.01-.61-1.93-1.17-2.82-1.09-1.86.15-2.23,2.94-2.23,4,0,1.87.78,3.13,1.81,3.73.75.43,1.27.27,1.76.15l1.48-6.79ZM1007.82,1523.85c-1.13,4.88-1.17,5.18-1.79,8.74l-.16.07-3.55-1.94-.12-.23.21-1.04c-.89.24-1.81.53-3.41-.39-1.83-1.06-3.92-3.54-3.92-7.53,0-2.41.75-4.34,1.83-5.29,1.88-1.68,4.39-.58,6.48.62.49.28.99.6,1.48.91l.56-2.6c.3-1.42.38-1.82.54-3l.17-.1,3.95,1.49.14.27-1.03,4.1-1.38,5.93Z"/>
        <path class="o" d="M1013.17,1533.94l.28.19c.87.5,1.92,1.11,3.01.7,1.03-.43,1.85-1.94,1.85-3.92,0-1.74-.87-3.02-1.88-3.61-.73-.42-1.22-.33-1.69-.24l-1.57,6.88ZM1008.73,1534.2l.96-4.11,1.13-4.99c1.03-4.29,1.22-5.29,1.86-9.1l.16-.09,4.02,1.53.14.27-.63,2.48-1.08,4.45c.94-.11,1.74-.19,3.12.61,2.11,1.22,3.9,4.1,3.9,7.6,0,2.09-.71,4.37-2.23,5.38-2.12,1.38-4.82-.12-7.68-1.75l-1.62-.94-1.93-1.09-.12-.26Z"/>
        <path class="o" d="M1027.49,1538.66l2.13,1.23v-5.23s-2.13,4-2.13,4ZM1032.72,1533.65c.31,5.86.38,7.24.86,14.9l-.09.07-3.76-2.09-.09-.18v-2.13s-.02-1.39-.02-1.39l-3.35-1.93-1.38,2.64-.13.07c-1.59-.94-2-1.16-3.45-1.93l-.07-.29c.72-1.03,1.48-2.28,2.22-3.43l2.11-3.35c1.13-1.85,1.48-2.43,2.24-3.71l.14-.04,4.65,2.6.11.18Z"/>
        <path class="o" d="M1034.49,1548.18l.73-2.66.2.05c.23.45.37.69.73,1.17.79,1.01,1.63,1.62,2.13,1.91,1.45.84,1.86.19,1.86-.35,0-.76-.59-1.48-1.43-2.52l-.59-.73c-.93-1.16-2.24-2.82-2.24-4.97,0-1.69.72-2.4,1.02-2.59,1.09-.77,2.65-.23,3.96.53,1.97,1.14,3.24,2.62,3.9,3.37l.09.2-.75,2.67-.18-.04c-.22-.37-.43-.72-.66-1.05-.66-.92-1.52-1.62-1.99-1.89-.88-.51-1.45-.28-1.45.42,0,.62.39,1.28,1.54,2.65l.36.43c.84,1.02,2.44,2.98,2.44,5.21,0,2.95-2.01,3.99-5.48,1.98-.95-.55-1.9-1.24-2.83-2.11-.61-.58-.88-.9-1.31-1.44l-.05-.24Z"/>
        <path class="o" d="M1053.51,1560.06l-.13.07-4.96-2.86-3.31-1.85-.07-.16.88-3.63.72-2.98c.63-2.86.75-3.49,1.25-6.14l.13-.07,4.73,2.73,3.19,1.78.11.19-.7,2.43-.12.07-4.03-2.33-.54,2.32,3.94,2.19.07.21-.68,2.3-.13.05-3.74-2.16-.21.89-.38,1.6,1.95,1.13,2.72,1.47.11.19-.79,2.59Z"/>
        <g>
          <path class="q" d="M1075.58,1562.37l-1.66,4.15,3.36,1.94-1.7-6.09ZM1076.66,1559.17l4.92,17.1-2.42-1.01-1.14-4.1-4.81-2.78-1.12,2.8-2.42-1.4,4.94-11.79,2.05,1.19Z"/>
          <path class="q" d="M1088.59,1568.39l-1.49-.86v4.91s1.53.88,1.53.88c.72.42,1.31.56,1.75.44.45-.12.7-.58.75-1.37,0-.95-.22-1.74-.67-2.37-.45-.63-1.07-1.18-1.86-1.64ZM1084.7,1578.45v-14.64s3.97,2.29,3.97,2.29c1.38.8,2.56,1.84,3.54,3.13.98,1.29,1.47,2.77,1.47,4.45-.01,1.66-.54,2.58-1.59,2.75-1.05.18-2.25-.13-3.59-.9l-1.4-.81v5.11s-2.41-1.39-2.41-1.39Z"/>
          <path class="q" d="M1099.46,1579.7c0,1.54.27,2.95.8,4.23.53,1.29,1.37,2.26,2.5,2.91,1.02.59,1.83.62,2.44.1.61-.53.91-1.7.91-3.52s-.27-2.93-.8-4.21c-.54-1.28-1.37-2.25-2.5-2.91-1-.57-1.8-.56-2.42.04-.62.61-.93,1.72-.93,3.36ZM1096.95,1578.27c0-2.25.51-3.8,1.53-4.64,1.02-.84,2.46-.75,4.31.28,1.99,1.15,3.46,2.74,4.42,4.77.96,2.03,1.44,4.09,1.44,6.19,0,2.27-.51,3.81-1.54,4.63-1.02.82-2.46.72-4.31-.31-1.98-1.14-3.45-2.72-4.4-4.75-.96-2.02-1.43-4.08-1.43-6.18Z"/>
          <path class="q" d="M1111.25,1579.14l10.26,5.92.39,2.43-4.34-2.51v12.45s-2.44-1.41-2.44-1.41v-12.45s-3.86-2.23-3.86-2.23v-2.2Z"/>
          <path class="q" d="M1127.4,1588.35v6.31s5,2.89,5,2.89v-6.2s2.41,1.39,2.41,1.39v14.64s-2.41-1.39-2.41-1.39v-6.2s-5-2.89-5-2.89v6.2s-2.41-1.39-2.41-1.39v-14.64s2.41,1.28,2.41,1.28Z"/>
          <path class="q" d="M1148.24,1615.14l-8.88-5.12v-14.64s7.57,4.37,7.57,4.37l.37,2.41-5.54-3.2v3.94s3.39,1.96,3.39,1.96l.39,2.44-3.79-2.19v4.11s6.08,3.51,6.08,3.51l.39,2.4Z"/>
          <path class="q" d="M1153.8,1603.7v6.14s4.76-3.72,4.76-3.72l1.79,2.63-3.77,2.86,5.29,11.39-3-1.73-3.88-8.44-1.2.93v4.59s-2.42-1.4-2.42-1.4v-14.64s2.42,1.4,2.42,1.4Z"/>
          <path class="q" d="M1173.75,1629.87l-8.88-5.13v-14.64s7.57,4.37,7.57,4.37l.37,2.41-5.54-3.2v3.94s3.39,1.96,3.39,1.96l.39,2.44-3.79-2.19v4.11s6.08,3.51,6.08,3.51l.39,2.4Z"/>
        </g>
        <path class="o" d="M1066.17,1553.22l-4.14-2.39c-.06-.04-.12-.1-.16-.18-.04-.08-.06-.16-.04-.23l.9-4.4-4.13-2.39c-.06-.04-.12-.1-.16-.18-.04-.08-.05-.16-.04-.23l.98-4.01c.02-.1.11-.13.2-.07l4.19,2.42.92-4.49c.02-.1.11-.13.2-.07l4.04,2.33c.06.04.12.1.16.18.04.08.06.16.04.23l-.87,4.41,4.1,2.37c.06.04.12.1.16.18.04.08.06.16.04.23l-.88,4.07c-.02.1-.1.13-.2.07l-4.22-2.44-.89,4.51c-.02.1-.11.13-.2.07"/>
      </g>
      <g>
        <polygon class="h" points="970.78 1554.8 970.78 1604.42 1001.17 1621.96 1001.17 1572.35 970.78 1554.8"/>
        <g>
          <path class="p" d="M977.13,1565.91h-.02s-.38-.2-.38-.2v-.03s.08-.41.08-.41l.04-.17c.01-.05.05-.22.05-.26,0-.07-.03-.16-.12-.21s-.15-.03-.19-.02c-.01.12-.02.15-.04.28l-.05.23-.08.4h-.02s-.37-.2-.37-.2v-.03s.08-.39.08-.39l.03-.16c.04-.21.05-.25.05-.3,0-.14-.09-.19-.12-.21-.06-.04-.12-.03-.17-.01l-.08.36-.11.54h-.02s-.38-.2-.38-.2v-.03s.09-.4.09-.4l.06-.25c.05-.25.06-.3.09-.55h.02c.16.06.21.08.39.14v.03s-.02.14-.02.14c.03-.01.07-.02.11-.03.08,0,.18.02.27.07.12.07.21.18.25.33.12-.04.26-.04.41.05.11.06.32.24.32.53s-.02.16-.04.24l-.05.23-.1.51Z"/>
          <path class="p" d="M977.91,1565.54c.24.15.36.14.36-.01,0-.08-.04-.17-.12-.21-.14-.07-.21.05-.25.22ZM978.48,1566.53c-.17.02-.39,0-.63-.13-.32-.18-.42-.62-.41-.81.02-.66.45-.67.75-.5.23.13.42.35.42.62,0,.31-.38.27-.72.06,0,.06-.02.3.2.42.11.07.2.06.3.05l.09.28Z"/>
          <path class="p" d="M979.56,1566.22c-.1-.06-.19-.11-.28-.11-.18.01-.22.29-.22.39s.08.31.18.37c.07.04.12.03.17.01l.15-.67ZM979.91,1566.56c-.11.48-.12.51-.18.86h-.02s-.35-.18-.35-.18v-.02s0-.1,0-.1c-.09.02-.18.05-.34-.04-.18-.1-.39-.35-.39-.74,0-.24.07-.43.18-.52.18-.17.43-.06.64.06.05.03.1.06.15.09l.06-.26c.03-.14.04-.18.05-.3h.02s.39.14.39.14v.03s-.09.4-.09.4l-.14.58Z"/>
          <path class="o" d="M980.44,1567.55l.03.02c.09.05.19.11.3.07.1-.04.18-.19.18-.39s-.09-.3-.18-.35c-.07-.04-.12-.03-.17-.02l-.15.68ZM980,1567.58l.09-.4.11-.49c.1-.42.12-.52.18-.9h.02s.4.14.4.14v.03s-.05.24-.05.24l-.11.44c.09-.01.17-.02.31.06.21.12.38.4.38.75s-.07.43-.22.53c-.21.14-.47-.01-.76-.17l-.16-.09-.19-.11v-.03Z"/>
          <path class="o" d="M981.85,1568.01l.21.12v-.51l-.21.39ZM982.36,1567.52c.03.58.04.71.08,1.47h0s-.37-.2-.37-.2v-.02s0-.21,0-.21v-.14s-.33-.19-.33-.19l-.14.26h-.01c-.16-.09-.2-.11-.34-.18v-.03c.06-.1.14-.22.21-.34l.21-.33c.11-.18.15-.24.22-.37h.01s.46.25.46.25v.02Z"/>
          <path class="o" d="M982.54,1568.95l.07-.26h.02s.04.07.07.12c.08.1.16.16.21.19.14.08.18.02.18-.03,0-.08-.06-.15-.14-.25l-.06-.07c-.09-.11-.22-.28-.22-.49s.07-.24.1-.26c.11-.08.26-.02.39.05.19.11.32.26.38.33v.02s-.07.26-.07.26h-.02s-.04-.08-.07-.11c-.07-.09-.15-.16-.2-.19-.09-.05-.14-.03-.14.04,0,.06.04.13.15.26l.04.04c.08.1.24.29.24.51,0,.29-.2.39-.54.2-.09-.05-.19-.12-.28-.21-.06-.06-.09-.09-.13-.14v-.02Z"/>
          <path class="o" d="M984.41,1570.12h-.01s-.49-.27-.49-.27l-.33-.18v-.02s.08-.36.08-.36l.07-.29c.06-.28.07-.34.12-.6h.01s.47.26.47.26l.31.18v.02s-.06.24-.06.24h-.01s-.4-.22-.4-.22l-.05.23.39.22v.02s-.06.23-.06.23h-.01s-.37-.21-.37-.21l-.02.09-.04.16.19.11.27.14v.02s-.07.25-.07.25Z"/>
          <g>
            <path class="q" d="M986.58,1570.35l-.16.41.33.19-.17-.6ZM986.69,1570.03l.48,1.68-.24-.1-.11-.4-.47-.27-.11.28-.24-.14.49-1.16.2.12Z"/>
            <path class="q" d="M987.86,1570.94l-.15-.08v.48l.15.09c.07.04.13.06.17.04.04-.01.07-.06.07-.13,0-.09-.02-.17-.07-.23-.04-.06-.11-.12-.18-.16ZM987.48,1571.93v-1.44s.39.23.39.23c.14.08.25.18.35.31.1.13.14.27.14.44,0,.16-.05.25-.16.27-.1.02-.22-.01-.35-.09l-.14-.08v.5s-.24-.14-.24-.14Z"/>
            <path class="q" d="M988.93,1572.05c0,.15.03.29.08.42.05.13.13.22.25.29.1.06.18.06.24,0,.06-.05.09-.17.09-.35,0-.15-.03-.29-.08-.41-.05-.13-.13-.22-.25-.29-.1-.06-.18-.05-.24,0-.06.06-.09.17-.09.33ZM988.69,1571.91c0-.22.05-.37.15-.46.1-.08.24-.07.42.03.2.11.34.27.43.47.09.2.14.4.14.61s-.05.38-.15.46c-.1.08-.24.07-.42-.03-.19-.11-.34-.27-.43-.47-.09-.2-.14-.4-.14-.61Z"/>
            <path class="q" d="M990.09,1572l1.01.58.04.24-.43-.25v1.22s-.24-.14-.24-.14v-1.22l-.38-.22v-.22Z"/>
            <path class="q" d="M991.68,1572.9v.62l.49.28v-.61s.24.14.24.14v1.44s-.24-.14-.24-.14v-.61l-.49-.28v.61s-.24-.14-.24-.14v-1.44s.24.13.24.13Z"/>
            <path class="q" d="M993.73,1575.54l-.87-.5v-1.44s.75.43.75.43l.04.24-.55-.31v.39l.33.19.04.24-.37-.22v.4l.6.35.04.24Z"/>
            <path class="q" d="M994.28,1574.42v.6l.47-.37.18.26-.37.28.52,1.12-.3-.17-.38-.83-.12.09v.45s-.24-.14-.24-.14v-1.44s.24.14.24.14Z"/>
            <path class="q" d="M996.24,1576.99l-.87-.5v-1.44s.75.43.75.43l.04.24-.54-.31v.39l.33.19.04.24-.37-.22v.4l.6.35.04.24Z"/>
          </g>
          <path class="o" d="M985.66,1569.45l-.41-.23s-.01-.01-.02-.02c0,0,0-.02,0-.02l.09-.43-.41-.23s-.01-.01-.02-.02c0,0,0-.02,0-.02l.1-.39s.01-.01.02,0l.41.24.09-.44s.01-.01.02,0l.4.23s.01.01.02.02c0,0,0,.02,0,.02l-.09.43.4.23s.01.01.02.02c0,0,0,.02,0,.02l-.09.4s-.01.01-.02,0l-.42-.24-.09.44s-.01.01-.02,0"/>
        </g>
        <polygon class="aj" points="996.24 1595.11 975.32 1583.03 975.32 1569.52 996.24 1581.6 996.24 1595.11"/>
        <polygon class="aj" points="996.24 1600.78 975.32 1588.7 975.32 1587.88 996.24 1599.96 996.24 1600.78"/>
        <polygon class="aj" points="996.24 1604.25 975.32 1592.17 975.32 1591.35 996.24 1603.43 996.24 1604.25"/>
        <polygon class="aj" points="996.24 1607.72 975.32 1595.64 975.32 1594.82 996.24 1606.9 996.24 1607.72"/>
        <polygon class="aj" points="996.24 1611.19 975.32 1599.11 975.32 1598.29 996.24 1610.37 996.24 1611.19"/>
        <polygon class="aj" points="996.24 1614.67 975.32 1602.59 975.32 1601.77 996.24 1613.84 996.24 1614.67"/>
      </g>
    </g>
    <ellipse class="aw" cx="1334.21" cy="1739.27" rx="38.41" ry="43.88" transform="translate(-154.21 129.99) rotate(-5.27)"/>
    <ellipse class="aw" cx="564.72" cy="1802.16" rx="38.41" ry="43.88" transform="translate(-163.25 59.53) rotate(-5.27)"/>
    <ellipse class="m" cx="1354.91" cy="1778.51" rx="20.7" ry="23.65"/>
  </g>
  <g>
    <polygon class="ao" points="1705.25 2580.77 1118.85 2242.21 1118.85 2192.49 2291.64 2192.49 2291.64 2242.22 1705.25 2580.77"/>
    <polygon class="ad" points="1705.25 2580.77 1705.25 2192.49 2291.64 2192.49 2291.64 2242.22 1705.25 2580.77"/>
    <polygon class="av" points="1705.25 2531.05 1118.85 2192.49 1705.24 1853.94 2291.64 2192.49 1705.25 2531.05"/>
    <g class="am">
      <g id="e" data-name="Strasse">
        <polygon class="r" points="2315.77 2654.93 1303.99 2070.77 1303.99 1846.74 2315.77 2430.89 2315.77 2654.93"/>
        <polygon class="al" points="2315.77 2445.51 1303.99 1861.36 1303.99 1853.5 2315.77 2437.65 2315.77 2445.51"/>
        <polygon class="al" points="2315.77 2644.77 1303.99 2060.62 1303.99 2052.76 2315.77 2636.91 2315.77 2644.77"/>
      </g>
    </g>
    <ellipse class="j" cx="1941.69" cy="2112.97" rx="54.33" ry="47.55" transform="translate(-378.86 3801.13) rotate(-83.45)"/>
    <ellipse class="m" cx="1989.24" cy="2128.14" rx="26.67" ry="30.47"/>
    <ellipse class="aw" cx="1433.72" cy="2228.53" rx="49.5" ry="56.55" transform="translate(-198.75 141.21) rotate(-5.27)"/>
    <ellipse class="j" cx="1359.49" cy="2234.31" rx="54.33" ry="47.55" transform="translate(-1015.23 3330.23) rotate(-83.45)"/>
    <g>
      <path d="M1738.05,2250.44c0,6.88-2.4,11.72-6.3,13.99-2.09,1.22-7.42,4.27-7.42,4.27,0,0-5.13-4.14-7.93-5.76-11.96-6.9-21.65-23.69-21.65-37.49,0-13.81,9.69-19.4,21.65-12.5,11.96,6.9,21.65,23.69,21.65,37.49Z"/>
      <path d="M1599.8,2174.38c0,5.9-2.06,10.06-5.41,12.01-1.8,1.05-6.37,3.67-6.37,3.67,0,0-4.41-3.56-6.81-4.95-10.27-5.93-18.59-20.34-18.59-32.2,0-11.85,8.32-16.66,18.59-10.73,10.27,5.93,18.59,20.34,18.59,32.2Z"/>
      <g>
        <polygon class="ag" points="1638.73 1915.06 1533.32 1975.88 1826.08 2144.9 1931.48 2084.05 1638.73 1915.06"/>
        <g>
          <polygon class="z" points="1826.08 2144.9 1826.08 2308.85 1931.47 2248 1931.47 2084.06 1826.08 2144.9"/>
          <path class="aa" d="M1888.15,2112.97v19.51s-3.82,2.21-3.82,2.21v-5.73c0-3.12.02-6.1.14-9.51-.36,1.69-.69,3.17-1.14,5.1l-2.92,12.4-3.28,1.89-2.92-9.03c-.45-1.41-.78-2.48-1.12-3.77.1,3.29.12,6.21.12,9.33v5.73s-3.82,2.21-3.82,2.21v-19.51s6.01-3.47,6.01-3.47l2.23,7.1c.4,1.33.81,2.8,1.16,4.18.36-1.82.76-3.81,1.14-5.59l2.21-9.58,6-3.47Z"/>
          <polygon class="ah" points="1931.48 2232.39 1826.08 2293.24 1826.08 2277.62 1931.48 2216.77 1931.48 2232.39"/>
          <polygon class="y" points="1931.48 2169.93 1826.08 2230.78 1826.08 2172.23 1931.48 2111.38 1931.48 2169.93"/>
          <path class="z" d="M1842.34,2276.04c0,3.32-2.33,7.36-5.21,9.02-2.88,1.66-5.21.31-5.21-3.01s2.33-7.36,5.21-9.02,5.21-.31,5.21,3.01Z"/>
          <path class="z" d="M1855.35,2268.53c0,3.32-2.33,7.36-5.21,9.02s-5.21.31-5.21-3.01,2.33-7.36,5.21-9.02,5.21-.31,5.21,3.01Z"/>
          <path class="z" d="M1912.59,2235.48c0,3.32-2.33,7.35-5.2,9.01-2.87,1.66-5.2.31-5.2-3,0-3.32,2.33-7.35,5.2-9.01s5.2-.31,5.2,3Z"/>
          <path class="z" d="M1925.59,2227.97c0,3.32-2.33,7.35-5.2,9.01-2.87,1.66-5.2.31-5.2-3,0-3.32,2.33-7.35,5.2-9.01s5.2-.31,5.2,3Z"/>
        </g>
        <g>
          <polygon class="ap" points="1533.32 1975.88 1533.32 2139.83 1826.08 2308.85 1826.08 2144.9 1533.32 1975.88"/>
          <path class="aa" d="M1609.44,2033.75v60.93s-11.93-6.89-11.93-6.89v-17.89c0-9.76.08-18.95.44-29.18-1.11,3.98-2.15,7.4-3.56,11.81l-9.12,28.2-10.23-5.91-9.12-38.72c-1.41-6.03-2.45-10.57-3.48-15.79.3,10.61.37,19.81.37,29.57v17.89s-11.93-6.89-11.93-6.89v-60.93s18.75,10.83,18.75,10.83l6.97,30.21c1.26,5.61,2.52,11.64,3.63,17.24,1.11-4.41,2.37-9.16,3.56-13.35l6.89-21.95,18.75,10.83Z"/>
          <path class="aa" d="M1826.08,2152.69v39.03s-92.4-53.35-92.4-53.35c-12.92-7.46-25.31-8.69-34.45-3.41l-39.06,22.55c-9.14,5.27-21.53,4.05-34.45-3.41l-92.4-53.35v-39.03s78.4,45.26,78.4,45.26c12.92,7.46,25.31,8.69,34.45,3.41l39.06-22.55c9.14-5.27,21.53-4.05,34.45,3.41l106.4,61.43Z"/>
          <path class="j" d="M1826.08,2191.72v39.03s-78.4-45.26-78.4-45.26c-12.92-7.46-25.31-8.69-34.45-3.41l-39.06,22.55c-9.14,5.27-21.53,4.05-34.45-3.41l-106.4-61.43v-39.03s92.4,53.35,92.4,53.35c12.92,7.46,25.31,8.69,34.45,3.41l39.06-22.55c9.14-5.27,21.53-4.05,34.45,3.41l92.4,53.35Z"/>
          <path d="M1747.79,2125.75h0c.41,0,.91.16,1.44.47l58.02,33.5c2.77,1.6,5.12,6.16,5.12,9.96v128.99l-66.29-38.27v-131.26c0-1.56.45-3.38,1.71-3.38M1747.79,2123.78c-2.17,0-3.68,2-3.68,5.35v132.4l70.23,40.55v-132.4c0-4.49-2.73-9.72-6.1-11.66l-58.02-33.5c-.86-.5-1.68-.73-2.42-.73h0Z"/>
          <line class="g" x1="1779.26" y1="2141.28" x2="1779.26" y2="2281.82"/>
          <g>
            <path class="y" d="M1801.46,2274.31c-1.56,0-3.21-.5-4.9-1.47-6.59-3.81-11.96-14.03-11.96-22.8v-78.07c0-6.53,2.96-10.75,7.55-10.75,1.56,0,3.21.49,4.9,1.47,6.59,3.81,11.96,14.04,11.96,22.8v78.07c0,3.21-.71,5.91-2.06,7.82-1.36,1.92-3.25,2.93-5.49,2.93h0Z"/>
            <path d="M1792.16,2161.71c1.42,0,3,.45,4.65,1.41,6.47,3.73,11.71,13.75,11.71,22.37v78.07c0,6.42-2.91,10.26-7.06,10.26-1.43,0-3-.45-4.65-1.41-6.47-3.73-11.71-13.75-11.71-22.38v-78.07c0-6.42,2.91-10.26,7.06-10.26M1792.16,2160.72c-4.89,0-8.05,4.41-8.05,11.24v78.07c0,8.92,5.47,19.34,12.2,23.23,1.77,1.02,3.5,1.54,5.14,1.54,4.89,0,8.05-4.41,8.05-11.24v-78.07c0-8.92-5.47-19.34-12.2-23.23-1.77-1.02-3.5-1.54-5.14-1.54h0Z"/>
          </g>
          <g>
            <path class="y" d="M1766.32,2254.05c-1.56,0-3.2-.5-4.89-1.47-6.59-3.81-11.96-14.04-11.96-22.8v-78.07c0-6.53,2.96-10.75,7.55-10.75,1.56,0,3.21.49,4.9,1.47,6.59,3.81,11.96,14.04,11.96,22.8v78.07c0,6.53-2.96,10.75-7.55,10.75Z"/>
            <path d="M1757.03,2141.45c1.43,0,3,.45,4.65,1.41h0c6.47,3.73,11.71,13.75,11.71,22.37v78.07c0,6.42-2.91,10.26-7.06,10.26-1.43,0-3-.45-4.65-1.41h0c-6.47-3.73-11.71-13.75-11.71-22.37v-78.07c0-6.42,2.91-10.26,7.06-10.26M1757.03,2140.46c-4.89,0-8.05,4.41-8.05,11.24v78.07c0,8.92,5.47,19.34,12.2,23.23,1.77,1.02,3.5,1.54,5.14,1.54,4.89,0,8.05-4.41,8.05-11.24v-78.07c0-8.92-5.47-19.34-12.2-23.23-1.77-1.02-3.5-1.54-5.14-1.54h0Z"/>
          </g>
        </g>
      </g>
      <path d="M1594.77,2176.2c0,13.31-9.35,18.71-20.88,12.05-11.53-6.66-20.88-22.85-20.88-36.16,0-13.31,9.35-18.71,20.88-12.05,11.53,6.66,20.88,22.85,20.88,36.16Z"/>
      <path class="j" d="M1585.84,2171.04c0,7.62-5.35,10.7-11.94,6.9-6.6-3.81-11.94-13.07-11.94-20.69,0-7.62,5.35-10.7,11.94-6.9,6.6,3.81,11.94,13.07,11.94,20.69Z"/>
      <path d="M1730.23,2254.95c0,13.81-9.69,19.4-21.65,12.5-11.96-6.9-21.65-23.69-21.65-37.49s9.69-19.4,21.65-12.5c11.96,6.9,21.65,23.69,21.65,37.49Z"/>
      <path class="j" d="M1720.97,2249.6c0,7.9-5.54,11.1-12.38,7.15-6.84-3.95-12.38-13.55-12.38-21.45,0-7.9,5.54-11.1,12.38-7.15,6.84,3.95,12.38,13.55,12.38,21.45Z"/>
    </g>
    <ellipse class="m" cx="1415.47" cy="2259" rx="26.67" ry="30.47"/>
  </g>
</svg>