<?xml version="1.0" encoding="UTF-8"?>
<svg id="Ebene_1" xmlns="http://www.w3.org/2000/svg" xmlns:xlink="http://www.w3.org/1999/xlink" version="1.1" viewBox="0 0 1800 444.2">
  <!-- Generator: Adobe Illustrator 29.6.1, SVG Export Plug-In . SVG Version: 2.1.1 Build 9)  -->
  <defs>
    <style>
      .st0 {
        fill: none;
      }

      .st1 {
        fill: #fff;
      }

      .st2 {
        clip-path: url(#clippath);
      }
    </style>
    <clipPath id="clippath">
      <rect class="st0" x="17.8" y="23.2" width="1764.5" height="397.2"/>
    </clipPath>
  </defs>
  <g class="st2">
    <g id="Gruppe_17">
      <path id="Pfad_8" class="st1" d="M170.8,106h-22.7c-3.1,0-4.8,1.3-4.8,4.4v120.4c.1,25.9-20.8,47-46.7,47.1-.1,0-.3,0-.4,0-12.5.1-24.5-4.9-33.1-13.9-8.9-8.7-13.8-20.7-13.5-33.1v-120.4c0-3.1-1.8-4.4-4.8-4.4h-22.3c-3.5,0-4.8,1.3-4.8,4.4v120.4c-.1,18.3,6.2,36.1,17.9,50.1,11.5,14.5,28,24.2,46.2,27.5,4.4.9,5.7,3.1,4.4,7-4.5,10.9-6.8,22.6-6.5,34.4v65.8c-.2,2.4,1.5,4.5,3.9,4.8.3,0,.6,0,.9,0h22.2c2.4.2,4.5-1.5,4.8-3.9,0-.3,0-.6,0-.9v-65.8c-.5-21.6,10.4-41.8,28.8-53.2,22.7-14,36.2-39.1,35.3-65.8v-120.4c0-3.1-1.8-4.4-4.8-4.4"/>
      <path id="Pfad_9" class="st1" d="M340.4,99.9c-22.5-.3-44.1,8.7-59.7,24.9-16.2,15.6-25.2,37.2-24.8,59.7v65c.1,46.7,37.9,84.4,84.6,84.6,22.5.4,44.1-8.6,59.7-24.8,16.2-15.6,25.2-37.2,24.9-59.7v-65c.4-22.5-8.6-44.1-24.9-59.7-15.6-16.2-37.2-25.2-59.7-24.9M393.1,249.5c.4,14-5.2,27.4-15.3,37.1-9.8,10.2-23.3,15.9-37.5,15.7-29.1,0-52.7-23.6-52.8-52.7v-65c-.2-14,5.3-27.6,15.3-37.5,9.9-10,23.4-15.6,37.5-15.3,28.8-.3,52.4,22.7,52.7,51.5,0,.4,0,.8,0,1.3v65Z"/>
      <path id="Pfad_10" class="st1" d="M661.3,106h-22.7c-3.1,0-4.4,1.3-4.4,4.4v145.6c0,12.3-5,24.2-13.9,32.7-8.4,8.9-20.1,13.8-32.3,13.5-12.3.3-24.2-4.6-32.7-13.5-8.8-8.6-13.7-20.4-13.5-32.7V110.3c0-3.1-1.7-4.4-4.8-4.4h-22.2c-3.5,0-4.8,1.3-4.8,4.4v145.7c-.4,20.7,7.8,40.5,22.7,54.9,14.5,15,34.5,23.3,55.4,23.1,20.7.2,40.6-8.2,54.9-23.1,14.9-14.3,23.3-34.2,23.1-54.9V110.3c0-3.1-1.8-4.4-4.8-4.4"/>
      <path id="Pfad_11" class="st1" d="M834.4,99.9c-20.7-.4-40.5,7.9-54.9,22.7-14.9,14.3-23.3,34.2-23.1,54.9v145.6c-.2,2.4,1.5,4.5,3.9,4.8.3,0,.6,0,.9,0h22.2c2.3.4,4.4-1.2,4.8-3.5,0-.4,0-.9,0-1.3v-145.6c.2-25.5,21.1-46,46.7-45.8,12.1.1,23.7,5,32.2,13.5,8.9,8.3,13.8,20.1,13.5,32.2v145.6c-.2,2.4,1.5,4.5,3.9,4.8.3,0,.6,0,.9,0h22.2c2.4.2,4.5-1.5,4.8-3.9,0-.3,0-.6,0-.9v-145.6c.2-20.7-8.2-40.6-23.1-54.9-14.4-14.8-34.2-23-54.9-22.7"/>
      <path id="Pfad_12" class="st1" d="M1020.6,23.2c-5.6-.2-11,2-14.8,6.1-4.3,3.9-6.7,9.5-6.5,15.3,0,5.6,2.3,11,6.5,14.8,3.7,4.2,9.2,6.6,14.8,6.6,5.8.2,11.4-2.2,15.3-6.6,4.2-3.8,6.6-9.2,6.5-14.8.2-5.8-2.2-11.4-6.5-15.3-3.9-4.2-9.5-6.4-15.3-6.1"/>
      <path id="Pfad_13" class="st1" d="M1031.9,106h-22.2c-3.5,0-4.8,1.3-4.8,4.4v212.8c-.4,2.3,1.2,4.4,3.5,4.8.4,0,.9,0,1.3,0h22.2c2.4.2,4.5-1.5,4.8-3.9,0-.3,0-.6,0-.9V110.3c0-3.1-1.8-4.4-4.8-4.4"/>
      <path id="Pfad_14" class="st1" d="M1205,99.9c-22.3-.4-43.8,8.4-59.3,24.4-16,15.5-24.9,37-24.4,59.3v54.9c0,46.3,37.4,84,83.7,84.2,11.3-.4,22.2,4.1,30.1,12.2,7.7,7.8,11.9,18.3,11.8,29.2v51.4c-.2,2.4,1.5,4.5,3.9,4.8.3,0,.6,0,.9,0h22.2c2.4.2,4.5-1.5,4.8-3.9,0-.3,0-.6,0-.8v-51.4c.2-19.3-7.3-37.8-20.9-51.5-1.7-1.7-2.6-2.6-2.6-3.5-.4-2.1.7-4.2,2.6-5.2,20.5-15.4,32.2-39.8,31.4-65.4v-55c0-22.1-8.9-43.2-24.8-58.4-15.3-16.4-36.9-25.6-59.3-25.3M1257.3,238.6c.1,13.9-5.4,27.3-15.3,37.1-9.8,9.9-23.1,15.4-37.1,15.3-28.7-.1-52-23.5-51.9-52.2,0,0,0,0,0,0v-55c-.4-13.8,5.2-27.1,15.2-36.6,20.3-20.3,53.3-20.4,73.6,0,0,0,0,0,0,0,9.9,9.6,15.4,22.8,15.3,36.6v55Z"/>
      <path id="Pfad_15" class="st1" d="M1533.3,106h-22.7c-3.1,0-4.4,1.3-4.4,4.4v145.6c0,12.3-5,24.2-13.9,32.7-8.3,8.9-20.1,13.8-32.3,13.5-12.3.3-24.2-4.6-32.7-13.5-8.8-8.6-13.7-20.4-13.5-32.7V110.3c0-3.1-1.7-4.4-4.8-4.4h-22.2c-3.5,0-4.8,1.3-4.8,4.4v145.7c-.4,20.7,7.8,40.5,22.7,54.9,14.5,15,34.5,23.3,55.4,23.1,20.7.2,40.6-8.2,54.9-23.1,14.9-14.3,23.3-34.2,23.1-54.9V110.3c0-3.1-1.7-4.4-4.8-4.4"/>
      <path id="Pfad_16" class="st1" d="M1759.2,123.5c-14.8-15.4-35.3-23.9-56.7-23.6-21.1-.2-41.4,8.1-56.2,23.1-15.4,14.8-23.9,35.4-23.5,56.7v69.8c-.4,22.5,8.6,44.1,24.8,59.7,15.5,16.1,36.9,25.1,59.3,24.8,24.3.4,48-7.1,67.6-21.4,2.1-1,2.9-3.5,1.9-5.6-.2-.3-.4-.7-.6-.9l-13.1-18.7c-1.1-1.9-3.6-2.5-5.4-1.4-.2.1-.5.3-.7.5-14.5,10.3-31.9,15.8-49.7,15.7-28.9-.3-52.3-23.8-52.3-52.7v-13.5c-.3-2.4,1.5-4.6,3.9-4.8.3,0,.6,0,.9,0h118.6c3,0,4.3-1.7,4.3-4.8v-46.7c.4-21.1-7.9-41.5-23.1-56.3M1750.4,194.5c0,3.1-1.3,4.8-4.4,4.8h-86.7c-2.4.2-4.5-1.5-4.8-3.9,0-.3,0-.5,0-.8v-14.8c-.1-12.8,5.1-25.1,14.4-34,8.7-9.2,20.9-14.3,33.5-14,26.3-.2,47.8,21,48,47.4,0,.2,0,.4,0,.6v14.8Z"/>
    </g>
  </g>
</svg>