<?xml version="1.0" encoding="UTF-8"?>
<svg id="Ebene_1" data-name="Ebene 1" xmlns="http://www.w3.org/2000/svg" viewBox="0 0 500 250">
  <defs>
    <style>
      .cls-1 {
        fill: #fff;
      }
    </style>
  </defs>
  <g>
    <path class="cls-1" d="M86.28,28.21c1.5-.23,2.92.76,3.36,2.21,21.41,70.99,3.14,153.16-86.85,144.49l45.75-67.59c8.96-16.52,18.33-32.97,26.18-50.06"/>
    <path class="cls-1" d="M21.14,199.51c20.6-21.5,53.53-29.39,81.23-38.15l-11.01,38.15H21.14Z"/>
  </g>
  <g>
    <path class="cls-1" d="M134.86,89.74c0-8.62,2.23-15.29,6.68-20.01s10.18-7.08,17.18-7.08,12.74,2.36,17.22,7.08,6.72,11.39,6.72,20.01v3.5c0,8.62-2.24,15.29-6.72,20.01s-10.21,7.08-17.22,7.08-12.73-2.36-17.18-7.08-6.68-11.39-6.68-20.01v-3.5ZM147.85,108.06c2.73,3.41,6.35,5.12,10.86,5.12s8.14-1.71,10.88-5.12c2.74-3.41,4.11-8.24,4.11-14.48v-4.19c0-6.24-1.37-11.06-4.11-14.48-2.74-3.41-6.37-5.12-10.88-5.12s-8.14,1.71-10.86,5.12c-2.73,3.41-4.09,8.24-4.09,14.48v4.19c0,6.24,1.36,11.07,4.09,14.48Z"/>
    <path class="cls-1" d="M192.19,79.13h7.8l.27,4.98h.23c.96-1.62,2.49-2.99,4.57-4.09,2.08-1.1,4.46-1.65,7.15-1.65,5.1,0,9.19,1.88,12.27,5.63,3.08,3.75,4.62,8.6,4.62,14.53v1.22c0,5.94-1.53,10.79-4.58,14.55-3.06,3.77-7.12,5.65-12.19,5.65-2.69,0-5.02-.48-7-1.43-1.98-.95-3.53-2.23-4.64-3.82v20.32h-8.48v-55.89ZM204.27,111.29c1.69,1.31,3.7,1.96,6.03,1.96,3.47,0,6.03-1.24,7.67-3.73,1.64-2.49,2.45-5.67,2.45-9.55v-1.64c0-3.88-.82-7.06-2.45-9.55-1.64-2.49-4.19-3.73-7.67-3.73-2.38,0-4.4.65-6.05,1.94-1.65,1.29-2.84,2.77-3.58,4.41v15.41c.71,1.67,1.91,3.16,3.6,4.47Z"/>
    <path class="cls-1" d="M235.26,98.53c0-6.09,1.72-11.03,5.17-14.84s7.96-5.71,13.54-5.71,9.9,1.78,12.97,5.35c3.07,3.56,4.6,8.4,4.6,14.51v3.31h-30.82v-6.13h22.37v-.88c0-2.66-.77-4.93-2.32-6.79s-3.75-2.8-6.62-2.8c-3.45,0-6.04,1.3-7.76,3.9-1.73,2.6-2.59,5.89-2.59,9.87v1.64c0,3.93.92,7.2,2.76,9.8,1.84,2.6,4.63,3.9,8.39,3.9,2.41,0,4.48-.55,6.22-1.64,1.74-1.09,3.15-2.37,4.24-3.84l5.71,4.15c-1.27,2.08-3.29,3.93-6.07,5.55-2.78,1.62-6.12,2.44-10.03,2.44-6.31,0-11.19-1.9-14.63-5.71-3.44-3.8-5.16-8.76-5.16-14.88v-1.22Z"/>
    <path class="cls-1" d="M279.74,79.13h7.84l.3,4.91h.19c1.32-1.72,3.02-3.11,5.1-4.15,2.08-1.04,4.38-1.56,6.89-1.56,4.06,0,7.32,1.16,9.78,3.48,2.46,2.32,3.69,6.25,3.69,11.78v25.6h-8.48v-25.76c0-2.97-.65-5.08-1.96-6.33-1.31-1.26-3.18-1.88-5.61-1.88-2.03,0-3.86.56-5.48,1.67-1.62,1.12-2.88,2.6-3.77,4.45v27.85h-8.48v-40.06Z"/>
    <path class="cls-1" d="M324.82,63.79h11.26l15.37,39.72c.3.81.58,1.62.84,2.42.25.8.47,1.6.65,2.42h.3c.18-.81.39-1.62.65-2.44.25-.81.53-1.61.84-2.4l15.41-39.72h11.34v55.4h-8.56v-38.43c0-.79.01-1.67.04-2.64.02-.98.09-1.86.19-2.64h-.3c-.15.79-.37,1.67-.65,2.64-.28.98-.57,1.86-.88,2.64l-14.88,38.43h-7.38l-14.8-38.43c-.3-.79-.6-1.67-.89-2.64-.29-.98-.51-1.86-.67-2.64h-.3c.1.79.17,1.67.19,2.64.03.98.04,1.86.04,2.64v38.43h-7.8v-55.4Z"/>
    <path class="cls-1" d="M393.86,63.91c.9-.94,2.17-1.41,3.82-1.41s2.92.47,3.8,1.41,1.33,2.09,1.33,3.46-.44,2.52-1.33,3.44c-.89.93-2.16,1.39-3.8,1.39s-2.96-.46-3.84-1.39c-.89-.93-1.33-2.07-1.33-3.44s.45-2.52,1.35-3.46ZM393.42,79.13h8.52v40.06h-8.52v-40.06Z"/>
    <path class="cls-1" d="M413.01,79.13h7.84l.3,4.91h.19c1.32-1.72,3.02-3.11,5.1-4.15,2.08-1.04,4.38-1.56,6.89-1.56,4.06,0,7.32,1.16,9.78,3.48,2.46,2.32,3.69,6.25,3.69,11.78v25.6h-8.48v-25.76c0-2.97-.65-5.08-1.96-6.33-1.31-1.26-3.18-1.88-5.61-1.88-2.03,0-3.86.56-5.48,1.67-1.62,1.12-2.88,2.6-3.77,4.45v27.85h-8.48v-40.06Z"/>
    <path class="cls-1" d="M454.9,98.53c0-5.88,1.55-10.72,4.66-14.5,3.11-3.78,7.21-5.67,12.31-5.67,2.69,0,5,.48,6.92,1.45,1.93.96,3.45,2.23,4.57,3.8v-22.79h8.45v58.36h-7.84l-.27-5.02h-.23c-.94,1.62-2.43,2.99-4.47,4.11s-4.41,1.67-7.1,1.67c-5.2,0-9.33-1.9-12.4-5.69-3.07-3.79-4.6-8.63-4.6-14.51v-1.22ZM466.07,109.45c1.66,2.54,4.23,3.8,7.7,3.8,2.36,0,4.36-.64,5.99-1.92,1.64-1.28,2.82-2.77,3.56-4.47v-15.45c-.74-1.67-1.91-3.15-3.52-4.43-1.61-1.28-3.61-1.92-5.99-1.92-3.47,0-6.05,1.27-7.72,3.8-1.67,2.54-2.51,5.71-2.51,9.51v1.56c0,3.8.83,6.98,2.49,9.51Z"/>
    <path class="cls-1" d="M133.91,183.02h8.83v.61c0,3.12,1.05,5.47,3.14,7.04,2.09,1.57,5.02,2.36,8.77,2.36s6.59-.79,8.6-2.36c2-1.57,3.01-3.64,3.01-6.2,0-2.41-.96-4.32-2.89-5.73-1.93-1.41-5.73-2.91-11.41-4.51-5.96-1.65-10.29-3.69-12.97-6.13-2.69-2.43-4.03-5.85-4.03-10.23s1.72-8.18,5.17-11.07,8.17-4.34,14.15-4.34,10.76,1.51,14.32,4.53,5.35,6.92,5.35,11.72v.61h-8.75v-.57c0-2.74-.91-4.95-2.74-6.64s-4.55-2.53-8.18-2.53-6.26.71-7.97,2.13-2.57,3.33-2.57,5.75c0,2.26.89,4.01,2.66,5.27,1.78,1.26,5.54,2.68,11.3,4.28,5.86,1.62,10.21,3.72,13.05,6.28s4.27,6.2,4.3,10.92c0,4.79-1.85,8.65-5.54,11.57-3.69,2.92-8.64,4.38-14.86,4.38s-11.22-1.45-15.03-4.36-5.71-6.94-5.71-12.12v-.65Z"/>
    <path class="cls-1" d="M186.07,177.52c3.3-2.25,7.47-3.38,12.52-3.41h8.64v-2.55c0-2.21-.57-4-1.71-5.38s-3.11-2.07-5.9-2.07-4.83.57-6.03,1.71c-1.21,1.14-1.81,2.49-1.81,4.03v.34h-8.41v-.34c0-3.32,1.5-6.16,4.51-8.52,3-2.36,7.01-3.54,12-3.54s8.88,1.14,11.66,3.42c2.78,2.28,4.17,5.73,4.17,10.35v18.34c0,1.65.13,3.2.4,4.66.27,1.46.64,2.73,1.12,3.82v.61h-8.29c-.33-.61-.63-1.41-.91-2.42s-.46-1.98-.53-2.95c-.86,1.6-2.36,3.02-4.49,4.26s-4.84,1.86-8.14,1.86c-3.83,0-7.08-1.07-9.74-3.2-2.66-2.13-4-5.25-4-9.36s1.65-7.44,4.95-9.68ZM191.43,191.6c1.22,1.23,3.13,1.85,5.75,1.85s4.97-.89,7-2.68c2.03-1.79,3.04-3.75,3.04-5.88v-5.1h-7.61c-3.32,0-5.82.61-7.5,1.83-1.67,1.22-2.51,2.88-2.51,4.98s.61,3.77,1.83,5Z"/>
    <path class="cls-1" d="M226.66,140.63h8.48v58.36h-8.48v-58.36Z"/>
    <path class="cls-1" d="M243.9,178.34c0-6.09,1.72-11.03,5.17-14.84s7.96-5.71,13.54-5.71,9.9,1.78,12.97,5.35c3.07,3.56,4.6,8.4,4.6,14.51v3.31h-30.82v-6.12h22.37v-.88c0-2.66-.77-4.93-2.32-6.79s-3.75-2.8-6.62-2.8c-3.45,0-6.04,1.3-7.76,3.9-1.73,2.6-2.59,5.89-2.59,9.87v1.64c0,3.93.92,7.2,2.76,9.8s4.63,3.9,8.39,3.9c2.41,0,4.48-.54,6.22-1.64s3.15-2.37,4.24-3.84l5.71,4.15c-1.27,2.08-3.29,3.93-6.07,5.55-2.78,1.62-6.12,2.44-10.03,2.44-6.32,0-11.19-1.9-14.63-5.71-3.44-3.8-5.16-8.76-5.16-14.88v-1.22Z"/>
    <path class="cls-1" d="M294.23,186.94v.3c0,2.18.78,3.8,2.34,4.87,1.56,1.07,3.63,1.6,6.22,1.6s4.6-.51,6.05-1.54c1.45-1.03,2.17-2.35,2.17-3.98s-.63-2.9-1.88-3.77c-1.25-.86-4.05-1.78-8.39-2.74-4.44-1.01-7.86-2.47-10.27-4.36-2.41-1.89-3.61-4.47-3.61-7.74,0-3.48,1.42-6.31,4.26-8.5,2.84-2.19,6.66-3.29,11.45-3.29s8.6,1.11,11.51,3.33c2.9,2.22,4.36,5.22,4.36,9v.3h-8.41v-.46c0-1.78-.61-3.17-1.83-4.18s-3.11-1.52-5.67-1.52-4.39.46-5.55,1.37c-1.17.91-1.75,2.07-1.75,3.46s.68,2.5,2.05,3.33c1.37.82,4.24,1.73,8.6,2.72,4.44.99,7.81,2.44,10.1,4.36,2.29,1.92,3.44,4.64,3.44,8.16,0,3.73-1.4,6.74-4.19,9.04-2.79,2.3-6.94,3.44-12.44,3.44s-9.68-1.16-12.59-3.48-4.38-5.48-4.38-9.49v-.27l8.41.04Z"/>
  </g>
  <g>
    <path class="cls-1" d="M324.98,155.42h9.7v1.55h-3.88v10.8h-1.95v-10.8h-3.87v-1.55Z"/>
    <path class="cls-1" d="M336.28,155.42h2.51l3.43,8.86c.07.18.13.36.19.54.06.18.1.36.14.54h.07c.04-.18.09-.36.14-.54.06-.18.12-.36.19-.53l3.44-8.86h2.53v12.36h-1.91v-8.57c0-.17,0-.37,0-.59,0-.22.02-.41.04-.59h-.07c-.03.18-.08.37-.14.59-.06.22-.13.42-.2.59l-3.32,8.57h-1.65l-3.3-8.57c-.07-.17-.13-.37-.2-.59-.07-.22-.12-.41-.15-.59h-.07c.02.18.04.37.04.59,0,.22,0,.42,0,.59v8.57h-1.74v-12.36Z"/>
  </g>
</svg>