<?xml version="1.0" encoding="UTF-8" standalone="no"?>
<!DOCTYPE svg PUBLIC "-//W3C//DTD SVG 1.1//EN" "http://www.w3.org/Graphics/SVG/1.1/DTD/svg11.dtd">
<svg width="100%" height="100%" viewBox="0 0 238 46" version="1.1" xmlns="http://www.w3.org/2000/svg" xmlns:xlink="http://www.w3.org/1999/xlink" xml:space="preserve" xmlns:serif="http://www.serif.com/" style="fill-rule:evenodd;clip-rule:evenodd;stroke-linejoin:round;stroke-miterlimit:2;">
    <g transform="matrix(1,0,0,1,30.76,32.07)">
        <path d="M3.095,0L3.095,-21L5.435,-21L5.435,-2.282L15.508,-2.282L15.508,0L3.095,0ZM30.509,-2.81C30.444,-2.706 30.374,-2.603 30.3,-2.501C29.904,-1.955 29.419,-1.472 28.843,-1.051C28.268,-0.63 27.628,-0.3 26.922,-0.06C26.217,0.18 25.474,0.3 24.693,0.3C23.331,0.3 22.102,-0.055 21.006,-0.765C19.91,-1.474 19.04,-2.444 18.394,-3.674C17.749,-4.903 17.427,-6.298 17.427,-7.858C17.427,-9.438 17.757,-10.84 18.417,-12.065C19.078,-13.29 19.966,-14.252 21.081,-14.952C22.196,-15.652 23.444,-16.002 24.824,-16.002C25.633,-16.002 26.388,-15.882 27.089,-15.642C27.79,-15.402 28.413,-15.067 28.959,-14.637C29.506,-14.207 29.967,-13.707 30.344,-13.137C30.394,-13.061 30.441,-12.985 30.487,-12.907L30.54,-15.672L32.791,-15.672L32.791,0L30.509,0L30.509,-2.81ZM25.193,-1.852C26.236,-1.852 27.167,-2.11 27.986,-2.627C28.804,-3.144 29.449,-3.854 29.921,-4.757C30.393,-5.66 30.629,-6.699 30.629,-7.874C30.629,-9.028 30.396,-10.054 29.929,-10.953C29.462,-11.851 28.819,-12.558 28.001,-13.075C27.183,-13.592 26.247,-13.851 25.193,-13.851C24.138,-13.851 23.204,-13.592 22.391,-13.075C21.577,-12.558 20.937,-11.851 20.47,-10.953C20.003,-10.054 19.77,-9.028 19.77,-7.874C19.77,-6.72 20.001,-5.689 20.463,-4.781C20.924,-3.872 21.562,-3.157 22.375,-2.635C23.189,-2.113 24.128,-1.852 25.193,-1.852ZM46.475,0L46.475,-21L54.777,-21C55.875,-21 56.864,-20.728 57.742,-20.184C58.621,-19.64 59.319,-18.896 59.838,-17.952C60.356,-17.008 60.615,-15.941 60.615,-14.752C60.615,-13.521 60.356,-12.418 59.838,-11.443C59.319,-10.468 58.621,-9.696 57.742,-9.127C56.864,-8.558 55.875,-8.273 54.777,-8.273L48.815,-8.273L48.815,0L46.475,0ZM48.815,-10.555L54.888,-10.555C55.51,-10.555 56.07,-10.741 56.567,-11.113C57.064,-11.485 57.46,-11.988 57.756,-12.622C58.052,-13.256 58.2,-13.977 58.2,-14.783C58.2,-15.527 58.052,-16.196 57.756,-16.789C57.46,-17.382 57.064,-17.852 56.567,-18.198C56.07,-18.544 55.51,-18.718 54.888,-18.718L48.815,-18.718L48.815,-10.555ZM75.869,-2.81C75.804,-2.706 75.734,-2.603 75.66,-2.501C75.264,-1.955 74.779,-1.472 74.203,-1.051C73.628,-0.63 72.988,-0.3 72.282,-0.06C71.577,0.18 70.834,0.3 70.053,0.3C68.691,0.3 67.462,-0.055 66.366,-0.765C65.27,-1.474 64.4,-2.444 63.754,-3.674C63.109,-4.903 62.787,-6.298 62.787,-7.858C62.787,-9.438 63.117,-10.84 63.777,-12.065C64.438,-13.29 65.326,-14.252 66.441,-14.952C67.556,-15.652 68.804,-16.002 70.184,-16.002C70.993,-16.002 71.748,-15.882 72.449,-15.642C73.15,-15.402 73.773,-15.067 74.319,-14.637C74.866,-14.207 75.327,-13.707 75.704,-13.137C75.754,-13.061 75.801,-12.985 75.847,-12.907L75.9,-15.672L78.151,-15.672L78.151,0L75.869,0L75.869,-2.81ZM70.553,-1.852C71.596,-1.852 72.527,-2.11 73.346,-2.627C74.164,-3.144 74.809,-3.854 75.281,-4.757C75.753,-5.66 75.989,-6.699 75.989,-7.874C75.989,-9.028 75.756,-10.054 75.289,-10.953C74.822,-11.851 74.179,-12.558 73.361,-13.075C72.543,-13.592 71.607,-13.851 70.553,-13.851C69.498,-13.851 68.564,-13.592 67.751,-13.075C66.937,-12.558 66.297,-11.851 65.83,-10.953C65.363,-10.054 65.13,-9.028 65.13,-7.874C65.13,-6.72 65.361,-5.689 65.823,-4.781C66.284,-3.872 66.922,-3.157 67.735,-2.635C68.549,-2.113 69.488,-1.852 70.553,-1.852ZM84.683,-13.51L81.165,-13.51L81.165,-15.672L84.683,-15.672L84.683,-19.77L86.95,-19.77L86.95,-15.672L90.89,-15.672L90.89,-13.51L86.95,-13.51L86.95,0L84.683,0L84.683,-13.51ZM105.449,-2.81C105.384,-2.706 105.314,-2.603 105.24,-2.501C104.844,-1.955 104.359,-1.472 103.783,-1.051C103.208,-0.63 102.568,-0.3 101.862,-0.06C101.157,0.18 100.414,0.3 99.633,0.3C98.271,0.3 97.042,-0.055 95.946,-0.765C94.85,-1.474 93.98,-2.444 93.334,-3.674C92.689,-4.903 92.367,-6.298 92.367,-7.858C92.367,-9.438 92.697,-10.84 93.357,-12.065C94.018,-13.29 94.906,-14.252 96.021,-14.952C97.136,-15.652 98.384,-16.002 99.764,-16.002C100.573,-16.002 101.328,-15.882 102.029,-15.642C102.73,-15.402 103.353,-15.067 103.899,-14.637C104.446,-14.207 104.907,-13.707 105.284,-13.137C105.334,-13.061 105.381,-12.985 105.427,-12.907L105.48,-15.672L107.731,-15.672L107.731,0L105.449,0L105.449,-2.81ZM100.133,-1.852C101.176,-1.852 102.107,-2.11 102.926,-2.627C103.744,-3.144 104.389,-3.854 104.861,-4.757C105.333,-5.66 105.569,-6.699 105.569,-7.874C105.569,-9.028 105.336,-10.054 104.869,-10.953C104.402,-11.851 103.759,-12.558 102.941,-13.075C102.123,-13.592 101.187,-13.851 100.133,-13.851C99.078,-13.851 98.144,-13.592 97.331,-13.075C96.517,-12.558 95.877,-11.851 95.41,-10.953C94.943,-10.054 94.71,-9.028 94.71,-7.874C94.71,-6.72 94.941,-5.689 95.403,-4.781C95.864,-3.872 96.502,-3.157 97.315,-2.635C98.129,-2.113 99.068,-1.852 100.133,-1.852ZM148.37,-13.013C148.585,-13.396 148.867,-13.758 149.216,-14.1C149.796,-14.67 150.488,-15.129 151.294,-15.478C152.099,-15.828 152.937,-16.002 153.808,-16.002C154.956,-16.002 155.923,-15.77 156.707,-15.305C157.492,-14.84 158.081,-14.128 158.476,-13.168C158.871,-12.208 159.068,-10.993 159.068,-9.522L159.068,0L156.801,0L156.801,-9.39C156.801,-10.424 156.663,-11.278 156.387,-11.951C156.11,-12.624 155.696,-13.121 155.145,-13.443C154.593,-13.764 153.906,-13.915 153.083,-13.896C152.39,-13.896 151.757,-13.78 151.185,-13.549C150.612,-13.318 150.112,-13.001 149.686,-12.599C149.259,-12.197 148.927,-11.735 148.692,-11.212C148.456,-10.69 148.338,-10.133 148.338,-9.54L148.338,0L146.07,0L146.07,-15.672L148.307,-15.672L148.37,-13.013ZM164.56,-7.404C164.619,-6.384 164.855,-5.482 165.267,-4.698C165.748,-3.785 166.437,-3.08 167.334,-2.583C168.23,-2.086 169.301,-1.837 170.546,-1.837C171.305,-1.837 172.048,-1.962 172.775,-2.212C173.502,-2.461 174.307,-2.957 175.191,-3.699L176.347,-2.068C175.888,-1.619 175.337,-1.217 174.693,-0.862C174.05,-0.507 173.351,-0.225 172.596,-0.015C171.842,0.195 171.064,0.3 170.261,0.3C168.704,0.3 167.32,-0.042 166.112,-0.727C164.903,-1.412 163.957,-2.36 163.273,-3.57C162.588,-4.78 162.246,-6.181 162.246,-7.772C162.246,-8.981 162.439,-10.085 162.823,-11.085C163.208,-12.084 163.742,-12.953 164.426,-13.693C165.11,-14.432 165.932,-15.005 166.891,-15.409C167.85,-15.814 168.894,-16.017 170.022,-16.017C171.074,-16.017 172.037,-15.83 172.911,-15.455C173.786,-15.081 174.536,-14.556 175.16,-13.881C175.784,-13.206 176.258,-12.409 176.582,-11.49C176.906,-10.57 177.053,-9.56 177.023,-8.46L176.993,-7.404L164.56,-7.404ZM164.643,-9.305L174.726,-9.305L174.726,-9.5C174.697,-10.232 174.49,-10.931 174.105,-11.596C173.72,-12.261 173.18,-12.805 172.487,-13.229C171.793,-13.653 170.966,-13.865 170.007,-13.865C168.896,-13.865 167.932,-13.637 167.114,-13.18C166.297,-12.724 165.664,-12.056 165.217,-11.179C164.94,-10.634 164.748,-10.01 164.643,-9.305ZM118.695,0.3C117.214,0.3 115.893,-0.055 114.733,-0.765C113.573,-1.474 112.657,-2.444 111.987,-3.674C111.317,-4.903 110.982,-6.298 110.982,-7.859C110.982,-9.42 111.317,-10.815 111.987,-12.045C112.657,-13.274 113.575,-14.241 114.741,-14.946C115.906,-15.65 117.24,-16.002 118.741,-16.002C120.079,-16.002 121.297,-15.735 122.395,-15.202C123.494,-14.668 124.369,-13.932 125.02,-12.993L123.698,-11.374C123.316,-11.875 122.86,-12.314 122.329,-12.688C121.798,-13.063 121.231,-13.355 120.63,-13.565C120.029,-13.775 119.426,-13.88 118.824,-13.88C117.75,-13.88 116.794,-13.619 115.956,-13.097C115.118,-12.575 114.454,-11.861 113.962,-10.953C113.47,-10.045 113.224,-9.013 113.224,-7.859C113.224,-6.704 113.472,-5.673 113.969,-4.765C114.465,-3.857 115.134,-3.139 115.977,-2.613C116.82,-2.086 117.758,-1.823 118.792,-1.823C119.394,-1.823 119.984,-1.918 120.561,-2.108C121.138,-2.299 121.687,-2.576 122.209,-2.942C122.73,-3.307 123.211,-3.755 123.652,-4.285L124.974,-2.666C124.292,-1.766 123.383,-1.046 122.244,-0.508C121.106,0.031 119.923,0.3 118.695,0.3ZM134.809,0.3C133.258,0.3 131.878,-0.052 130.668,-0.757C129.458,-1.462 128.506,-2.432 127.811,-3.667C127.116,-4.902 126.769,-6.31 126.769,-7.89C126.769,-9.46 127.116,-10.854 127.811,-12.074C128.506,-13.294 129.458,-14.253 130.668,-14.953C131.878,-15.652 133.258,-16.002 134.809,-16.002C136.349,-16.002 137.725,-15.652 138.935,-14.953C140.145,-14.253 141.094,-13.294 141.784,-12.074C142.474,-10.854 142.819,-9.46 142.819,-7.89C142.819,-6.31 142.474,-4.902 141.784,-3.667C141.094,-2.432 140.145,-1.462 138.935,-0.757C137.725,-0.052 136.349,0.3 134.809,0.3ZM134.809,-1.837C135.904,-1.837 136.881,-2.101 137.74,-2.628C138.599,-3.155 139.272,-3.872 139.759,-4.781C140.246,-5.689 140.485,-6.725 140.475,-7.89C140.485,-9.044 140.246,-10.072 139.759,-10.975C139.272,-11.878 138.599,-12.586 137.74,-13.098C136.881,-13.609 135.904,-13.865 134.809,-13.865C133.703,-13.865 132.719,-13.607 131.855,-13.09C130.991,-12.574 130.315,-11.864 129.828,-10.961C129.341,-10.058 129.102,-9.034 129.112,-7.89C129.102,-6.725 129.341,-5.689 129.828,-4.781C130.315,-3.872 130.991,-3.155 131.855,-2.628C132.719,-2.101 133.703,-1.837 134.809,-1.837ZM182.532,-12.677C182.744,-13.153 183.024,-13.602 183.371,-14.023C183.865,-14.623 184.452,-15.102 185.132,-15.462C185.811,-15.822 186.557,-16.002 187.37,-16.002C187.71,-16.002 188.03,-15.975 188.329,-15.92C188.629,-15.865 188.884,-15.803 189.095,-15.734L188.471,-13.211C188.211,-13.322 187.943,-13.404 187.669,-13.459C187.394,-13.513 187.138,-13.54 186.899,-13.54C186.225,-13.54 185.617,-13.417 185.075,-13.171C184.533,-12.925 184.072,-12.586 183.692,-12.154C183.311,-11.721 183.019,-11.227 182.814,-10.67C182.61,-10.113 182.508,-9.518 182.508,-8.886L182.508,0L180.225,0L180.225,-15.672L182.476,-15.672L182.532,-12.677ZM202.709,-2.81C202.644,-2.706 202.574,-2.603 202.5,-2.501C202.104,-1.955 201.619,-1.472 201.043,-1.051C200.468,-0.63 199.828,-0.3 199.122,-0.06C198.417,0.18 197.674,0.3 196.893,0.3C195.531,0.3 194.302,-0.055 193.206,-0.765C192.11,-1.474 191.24,-2.444 190.594,-3.674C189.949,-4.903 189.627,-6.298 189.627,-7.858C189.627,-9.438 189.957,-10.84 190.617,-12.065C191.278,-13.29 192.166,-14.252 193.281,-14.952C194.396,-15.652 195.644,-16.002 197.024,-16.002C197.833,-16.002 198.588,-15.882 199.289,-15.642C199.99,-15.402 200.613,-15.067 201.159,-14.637C201.706,-14.207 202.167,-13.707 202.544,-13.137C202.594,-13.061 202.641,-12.985 202.687,-12.907L202.74,-15.672L204.991,-15.672L204.991,0L202.709,0L202.709,-2.81ZM197.393,-1.852C198.436,-1.852 199.367,-2.11 200.186,-2.627C201.004,-3.144 201.649,-3.854 202.121,-4.757C202.593,-5.66 202.829,-6.699 202.829,-7.874C202.829,-9.028 202.596,-10.054 202.129,-10.953C201.662,-11.851 201.019,-12.558 200.201,-13.075C199.383,-13.592 198.447,-13.851 197.393,-13.851C196.338,-13.851 195.404,-13.592 194.591,-13.075C193.777,-12.558 193.137,-11.851 192.67,-10.953C192.203,-10.054 191.97,-9.028 191.97,-7.874C191.97,-6.72 192.201,-5.689 192.663,-4.781C193.124,-3.872 193.762,-3.157 194.575,-2.635C195.389,-2.113 196.328,-1.852 197.393,-1.852Z"/>
    </g>
    <g>
        <path d="M23.18,2L23.18,10.02C22.58,9.28 21.9,8.6 21.16,8C20.85,7.74 20.52,7.5 20.18,7.27L20.18,5L8.18,5L8.18,2L23.18,2Z" style="fill:rgb(0,176,175);fill-rule:nonzero;"/>
        <path d="M5.18,41L5.18,2L2.18,2L2.18,44L23.19,44L23.19,41L5.18,41Z" style="fill:url(#_Linear1);fill-rule:nonzero;"/>
        <path d="M23.19,18.5C23.19,12.7 18.48,8 12.69,8C6.9,8 2.19,12.7 2.19,18.5L2.19,44L5.19,44L5.19,25.84C7.1,27.79 9.75,29 12.69,29C15.63,29 18.28,27.79 20.19,25.84L20.19,38L23.19,38L23.19,18.5ZM12.69,25.93C8.59,25.93 5.26,22.6 5.26,18.5C5.26,14.4 8.59,11.08 12.69,11.08C16.79,11.08 20.11,14.4 20.11,18.5C20.11,22.6 16.79,25.93 12.69,25.93Z" style="fill:url(#_Linear2);fill-rule:nonzero;"/>
    </g>
    <defs>
        <linearGradient id="_Linear1" x1="0" y1="0" x2="1" y2="0" gradientUnits="userSpaceOnUse" gradientTransform="matrix(-7.74,11.56,-11.56,-7.74,8.07,29.89)"><stop offset="0" style="stop-color:rgb(0,176,175);stop-opacity:1"/><stop offset="0.69" style="stop-color:rgb(0,55,55);stop-opacity:1"/><stop offset="1" style="stop-color:black;stop-opacity:1"/></linearGradient>
        <linearGradient id="_Linear2" x1="0" y1="0" x2="1" y2="0" gradientUnits="userSpaceOnUse" gradientTransform="matrix(20.9,-16.8,16.8,20.9,2.98,33.54)"><stop offset="0" style="stop-color:rgb(0,176,175);stop-opacity:1"/><stop offset="0.11" style="stop-color:rgb(0,167,166);stop-opacity:1"/><stop offset="0.29" style="stop-color:rgb(0,144,144);stop-opacity:1"/><stop offset="0.51" style="stop-color:rgb(0,107,106);stop-opacity:1"/><stop offset="0.76" style="stop-color:rgb(0,56,56);stop-opacity:1"/><stop offset="1" style="stop-color:black;stop-opacity:1"/></linearGradient>
    </defs>
</svg>
